v 0.0319025 -0.00288 -0.00111392
v 0.0321659 -0.00288 0.000657597
v 0.0310725 -0.00302141 0.00143569
v 0.0302874 -0.00335643 -0.000494279
v 0.00905867 1.55808e-17 -0.0338074
v 0.0338074 1.27613e-18 0.00905867
v 0.0289445 0 0.0179445
v -0.0338074 4.03572e-17 0.00905867
v -0.0250555 0 0.0179445
v -0.0338074 4.03572e-17 -0.00905867
v -0.0247487 3.51214e-17 -0.0247487
v 0.0342904 0.0005 0.00918808
v -0.0253929 0.02995 0.0275944
v -0.0178439 0.02995 0.0329825
v -5.71386e-09 0.02995 0.0375
v 0.00920342 0.02995 0.0363531
v 0.0253929 0.02995 0.0275944
v -0.0311447 0.02995 0.0208868
v 0.0177681 0.031363 0.0328425
v 0.00886342 0.0339092 0.0350101
v -5.61804e-09 0.0327052 0.0368712
v -0.0090491 0.0327052 0.0357435
v 0.0352648 0.0031 0.0127532
v 0.0373041 0.0031 0.00382765
v 0.0311234 0.0031 0.0209185
v 0.0251268 0.0031 0.0278369
v 0.00908705 0.0031 0.0363824
v -0.00908705 0.0031 0.0363824
v -0.0006245 0.0031 0.0374948
v -0.0251268 0.0031 0.0278369
v -0.0352648 0.0031 0.0127532
v 0.0373041 0.0031 -0.00382765
v 0.0352648 0.0031 -0.0127532
v -0.0311234 0.0031 -0.0209185
v -0.0251268 0.0031 -0.0278369
v 0.0251268 0.0031 -0.0278369
v -0.0352648 0.0031 -0.0127532
v -0.0423671 0.0540921 0.00515826
v -0.0405324 0.0616143 0.0047
v -0.0381975 0.0607979 0.00961463
v -0.0418569 0.055421 0.0072805
v 0.0424434 0.0550667 0.0047
v 0.0361354 0.0593044 0.0108408
v 0.0412172 0.055384 0.00838003
v -0.0271717 0.0800974 -0.0047
v -0.0424433 0.0550655 -0.0047
v -0.0399521 0.0583548 -0.00922554
v -4.88746e-14 0.02995 -0.0375
v -0.025148 0.02995 -0.0278177
v 0.0175743 0.031363 -0.0329466
v -0.00905768 0.031363 -0.0362256
v -0.0175743 0.031363 -0.0329466
v -0.00876026 0.0339092 -0.035036
v 0.0393715 0.0597752 -0.00920609
v 0.0421264 0.0536377 -0.00627663
v 0.02192 0.0819362 0.0101493
v 0.0244914 0.0837985 0.00465
v 0.0200328 0.0839831 0.0101493
v 0.01345 0.0895637 -0.00924698
v -0.01345 0.0897321 0.009
v 0.01345 0.0888678 0.00980194
v -0.0141043 0.00492 -0.0347465
v -0.00181234 0.00538155 -0.0374562
v 0.0311234 0.0203355 -0.0209185
f 22 28 15
f 12 2 24
f 9 8 4
f 9 30 8
f 9 28 30
f 38 46 37
f 40 41 13
f 39 46 38
f 39 38 41
f 39 41 40
f 39 60 45
f 39 40 60
f 14 28 22
f 14 13 30
f 14 30 28
f 14 40 13
f 14 22 60
f 14 60 40
f 50 63 48
f 57 42 54
f 57 61 58
f 49 52 35
f 47 45 52
f 47 46 39
f 47 39 45
f 47 52 49
f 51 48 63
f 51 53 48
f 51 52 45
f 51 45 53
f 62 35 52
f 62 11 35
f 62 52 51
f 62 51 63
f 10 4 8
f 10 11 4
f 5 4 11
f 5 50 36
f 5 63 50
f 5 62 63
f 5 11 62
f 34 35 11
f 34 10 37
f 34 11 10
f 34 49 35
f 34 47 49
f 34 37 46
f 34 46 47
f 21 61 60
f 21 22 15
f 21 60 22
f 20 19 58
f 20 58 61
f 20 61 21
f 59 45 60
f 59 60 61
f 59 61 57
f 59 48 53
f 59 53 45
f 59 57 54
f 59 50 48
f 59 54 50
f 64 33 36
f 64 36 50
f 64 50 54
f 55 54 42
f 55 64 54
f 55 33 64
f 44 17 25
f 44 42 57
f 44 19 17
f 44 43 19
f 56 58 19
f 56 19 43
f 56 43 44
f 56 57 58
f 56 44 57
f 3 4 2
f 3 2 7
f 32 24 2
f 32 33 55
f 32 42 24
f 32 55 42
f 1 2 4
f 1 4 5
f 1 5 36
f 1 36 33
f 1 33 32
f 1 32 2
f 23 25 12
f 23 12 24
f 23 44 25
f 23 24 42
f 23 42 44
f 6 25 7
f 6 12 25
f 6 7 2
f 6 2 12
f 31 8 30
f 31 30 41
f 31 41 38
f 31 38 37
f 18 13 41
f 18 30 13
f 18 41 30
f 16 15 27
f 16 27 19
f 16 19 20
f 16 21 15
f 16 20 21
f 29 15 28
f 29 27 15
f 29 4 3
f 29 7 27
f 29 3 7
f 29 9 4
f 29 28 9
f 26 25 17
f 26 7 25
f 26 27 7
f 26 17 19
f 26 19 27
f 31 37 10
f 31 10 8
