v -0.0567289 0.112361 0.00391573
v -0.056579 0.112361 0.00417745
v -0.0566008 0.112361 0.00411128
v -0.0567834 0.112361 0.00386704
v -0.0569032 0.112361 0.00375999
v -0.057112 0.112361 0.00365469
v -0.0573408 0.112361 0.00360699
v -0.0569834 0.112361 0.00371956
v -0.0575742 0.112361 0.00362015
v -0.0573822 0.112361 0.00360932
v -0.0579918 0.112361 0.00382136
v -0.0577963 0.112361 0.00369327
v -0.0580878 0.112361 0.00392877
v -0.0581475 0.112361 0.00399571
v -0.0582529 0.112361 0.00420442
v -0.0583006 0.112361 0.00443327
v -0.0582199 0.112361 0.00413916
v -0.0582874 0.112361 0.00466668
v -0.0582966 0.112361 0.00450283
v -0.0580862 0.112361 0.00508427
v -0.0582143 0.112361 0.00488872
v -0.0580317 0.112361 0.00513296
v -0.0579118 0.112361 0.00524001
v -0.0577031 0.112361 0.00534531
v -0.0574743 0.112361 0.00539301
v -0.0578317 0.112361 0.00528044
v -0.0572409 0.112361 0.00537985
v -0.0574329 0.112361 0.00539068
v -0.0568233 0.112361 0.00517864
v -0.0570188 0.112361 0.00530673
v -0.0567273 0.112361 0.00507123
v -0.0566675 0.112361 0.00500429
v -0.0565952 0.112361 0.00486084
v -0.0565622 0.112361 0.00479558
v -0.0565277 0.112361 0.00433332
v -0.0565145 0.112361 0.00456673
v -0.0569534 0.112431 0.00387473
v -0.0579269 0.112513 0.0047813
v -0.0578617 0.112431 0.00512527
v -0.0568213 0.112513 0.00457187
v -0.0567561 0.112431 0.00491584
v -0.057116 0.112513 0.00501365
v -0.057491 0.112513 0.00508469
v -0.0579938 0.112513 0.00442813
v -0.0580589 0.112431 0.00408416
v -0.0576991 0.112513 0.00398635
v -0.057324 0.112513 0.00391531
v -0.0568882 0.112513 0.0042187
v -0.0576303 0.112599 0.00434923
v -0.0572553 0.112599 0.00427819
v -0.0575598 0.112599 0.00472181
v -0.0571847 0.112599 0.00465077
v -0.056425 0.111971 0.00431387
v -0.0564103 0.111971 0.00457451
v -0.0565812 0.111971 0.00506314
v -0.0564636 0.111971 0.00483007
v -0.0567551 0.111971 0.00525783
v -0.0569735 0.111971 0.00540087
v -0.0574821 0.111971 0.00549722
v -0.0572214 0.111971 0.00548253
v -0.0579707 0.111971 0.00532636
v -0.0577376 0.111971 0.00544396
v -0.0581654 0.111971 0.00515245
v -0.0583084 0.111971 0.00493408
v -0.0584048 0.111971 0.00442549
v -0.0583901 0.111971 0.00468613
v -0.0582339 0.111971 0.00393686
v -0.0583515 0.111971 0.00416993
v -0.05806 0.111971 0.00374217
v -0.0578416 0.111971 0.00359913
v -0.057333 0.111971 0.00350278
v -0.0575937 0.111971 0.00351747
v -0.0568444 0.111971 0.00367364
v -0.0570775 0.111971 0.00355604
v -0.0566497 0.111971 0.00384755
v -0.0565067 0.111971 0.00406592
v -0.0583902 0.110421 0.00468613
v -0.0583085 0.110421 0.00493408
v -0.0581655 0.110421 0.00515245
v -0.0579708 0.110421 0.00532636
v -0.0577377 0.110421 0.00544396
v -0.0574821 0.110421 0.00549722
v -0.0572215 0.110421 0.00548253
v -0.0569735 0.110421 0.00540087
v -0.0567552 0.110421 0.00525783
v -0.0565813 0.110421 0.00506314
v -0.0564637 0.110421 0.00483007
v -0.0564104 0.110421 0.00457451
v -0.0564076 0.110421 0.0045
v -0.0564251 0.110421 0.00431387
v -0.0565068 0.110421 0.00406592
v -0.0566498 0.110421 0.00384755
v -0.0568445 0.110421 0.00367364
v -0.0570776 0.110421 0.00355604
v -0.0573331 0.110421 0.00350278
v -0.0575938 0.110421 0.00351747
v -0.0578417 0.110421 0.00359913
v -0.0580601 0.110421 0.00374217
v -0.058234 0.110421 0.00393686
v -0.0583516 0.110421 0.00416993
v -0.0584048 0.110421 0.00442549
v -0.0569786 0.110421 0.00246291
v -0.0576307 0.110421 0.00249003
v -0.0457076 0.11042 0.0081
v -0.0549447 0.110421 -0.000429027
v -0.0549076 0.110421 8.0857e-14
v -0.0563558 0.110421 0.00226795
v -0.0549176 0.110421 0.00022304
v -0.0574821 0.110421 -0.00350278
v -0.0577377 0.110421 -0.00355604
v -0.0584595 0.110421 -0.00226795
v -0.0551397 0.110421 -0.00105186
v -0.0567552 0.110421 -0.00374217
v -0.0554892 0.110421 -0.001603
v -0.0578367 0.110421 -0.00246291
v -0.0571846 0.110421 -0.00249003
v -0.0565477 0.110421 -0.00234746
v -0.0572215 0.110421 -0.00351747
v -0.0550602 0.110421 0.000859908
v -0.0553627 0.110421 0.00143817
v -0.0579708 0.110421 -0.00367364
v -0.0590106 0.110421 -0.00191843
v -0.0569735 0.110421 -0.00359913
v -0.0558046 0.110421 0.00191843
v -0.0559695 0.110421 -0.00204491
v -0.0627076 0.110421 -0.0073
v -0.0597551 0.110421 -0.000859908
v -0.0583085 0.110421 -0.00406592
v -0.0594525 0.110421 -0.00143817
v -0.0582675 0.110421 0.00234746
v -0.0449076 0.11042 0.0073
v -0.0449076 0.11042 -0.0073
v -0.0564104 0.110421 -0.00442549
v -0.0564251 0.110421 -0.00468613
v -0.0564076 0.110421 -0.0045
v -0.0581655 0.110421 -0.00384755
v -0.0588458 0.110421 0.00204491
v -0.0593261 0.110421 0.001603
v -0.0565068 0.110421 -0.00493408
v -0.0457076 0.11042 -0.0081
v -0.0619076 0.110421 -0.0081
v -0.0573331 0.110421 -0.00549722
v -0.0598977 0.110421 -0.00022304
v -0.0575938 0.110421 -0.00548253
v -0.0596756 0.110421 0.00105186
v -0.0627076 0.110421 0.0073
v -0.0566498 0.110421 -0.00515245
v -0.0570776 0.110421 -0.00544396
v -0.0580601 0.110421 -0.00525783
v -0.0578417 0.110421 -0.00540087
v -0.0619076 0.110421 0.0081
v -0.0598705 0.110421 0.000429027
v -0.0568445 0.110421 -0.00532636
v -0.0583516 0.110421 -0.00483007
v -0.058234 0.110421 -0.00506314
v -0.0565813 0.110421 -0.00393686
v -0.0564637 0.110421 -0.00416993
v -0.0584048 0.110421 -0.00457451
v -0.0583902 0.110421 -0.00431387
v -0.0449079 0.10392 0.0073
v -0.0449079 0.10392 -0.0073
v -0.0665781 0.103751 0.0081
v -0.0650367 0.104537 0.0081
v -0.065484 0.1052 0.0073
v -0.0637309 0.105672 0.0081
v -0.0643254 0.106207 0.0073
v -0.0627386 0.107089 0.0081
v -0.0634449 0.107464 0.0073
v -0.0621185 0.108704 0.0081
v -0.0628948 0.108897 0.0073
v -0.0668517 0.104503 0.0073
v -0.0621185 0.108704 -0.0081
v -0.0628948 0.108897 -0.0073
v -0.0627386 0.107089 -0.0081
v -0.0634449 0.107464 -0.0073
v -0.0637309 0.105672 -0.0081
v -0.0643254 0.106207 -0.0073
v -0.0650367 0.104537 -0.0081
v -0.065484 0.1052 -0.0073
v -0.0665781 0.103751 -0.0081
v -0.0668517 0.104503 -0.0073
v -0.0583901 0.111971 -0.00431387
v -0.0583084 0.111971 -0.00406592
v -0.0581654 0.111971 -0.00384755
v -0.0579707 0.111971 -0.00367364
v -0.0577376 0.111971 -0.00355604
v -0.0574821 0.111971 -0.00350278
v -0.0572214 0.111971 -0.00351747
v -0.0569735 0.111971 -0.00359913
v -0.0567551 0.111971 -0.00374217
v -0.0565812 0.111971 -0.00393686
v -0.0564636 0.111971 -0.00416993
v -0.056425 0.111971 -0.00468613
v -0.0564103 0.111971 -0.00442549
v -0.0565067 0.111971 -0.00493408
v -0.0566497 0.111971 -0.00515245
v -0.0568444 0.111971 -0.00532636
v -0.0570775 0.111971 -0.00544396
v -0.057333 0.111971 -0.00549722
v -0.0575937 0.111971 -0.00548253
v -0.0578416 0.111971 -0.00540087
v -0.05806 0.111971 -0.00525783
v -0.0582339 0.111971 -0.00506314
v -0.0583515 0.111971 -0.00483007
v -0.0584048 0.111971 -0.00457451
v -0.0565277 0.112361 -0.00466668
v -0.0565145 0.112361 -0.00443327
v -0.0565622 0.112361 -0.00420442
v -0.0565952 0.112361 -0.00413916
v -0.0567273 0.112361 -0.00392877
v -0.0566675 0.112361 -0.00399571
v -0.0568233 0.112361 -0.00382136
v -0.0570188 0.112361 -0.00369327
v -0.0572409 0.112361 -0.00362015
v -0.0574329 0.112361 -0.00360932
v -0.0574743 0.112361 -0.00360699
v -0.0577031 0.112361 -0.00365469
v -0.0578317 0.112361 -0.00371956
v -0.0580317 0.112361 -0.00386704
v -0.0579118 0.112361 -0.00375999
v -0.0580862 0.112361 -0.00391573
v -0.0582143 0.112361 -0.00411128
v -0.0582874 0.112361 -0.00433332
v -0.0582966 0.112361 -0.00449717
v -0.0583006 0.112361 -0.00456673
v -0.0582529 0.112361 -0.00479558
v -0.0582199 0.112361 -0.00486084
v -0.0580878 0.112361 -0.00507123
v -0.0581475 0.112361 -0.00500429
v -0.0579918 0.112361 -0.00517864
v -0.0577963 0.112361 -0.00530673
v -0.0575742 0.112361 -0.00537985
v -0.0573822 0.112361 -0.00539068
v -0.0573408 0.112361 -0.00539301
v -0.057112 0.112361 -0.00534531
v -0.0569834 0.112361 -0.00528044
v -0.0567834 0.112361 -0.00513296
v -0.0569032 0.112361 -0.00524001
v -0.0567289 0.112361 -0.00508427
v -0.0566008 0.112361 -0.00488872
v -0.056579 0.112361 -0.00482255
v -0.0569534 0.112431 -0.00512527
v -0.0579269 0.112513 -0.0042187
v -0.0578617 0.112431 -0.00387473
v -0.0568213 0.112513 -0.00442813
v -0.0567561 0.112431 -0.00408416
v -0.057116 0.112513 -0.00398635
v -0.057491 0.112513 -0.00391531
v -0.0579938 0.112513 -0.00457187
v -0.0580589 0.112431 -0.00491584
v -0.0576991 0.112513 -0.00501365
v -0.057324 0.112513 -0.00508469
v -0.0568882 0.112513 -0.0047813
v -0.0576303 0.112599 -0.00465077
v -0.0572553 0.112599 -0.00472181
v -0.0575598 0.112599 -0.00427819
v -0.0571847 0.112599 -0.00434923
v -0.0576305 0.114221 0.00249003
v -0.0569784 0.114221 0.00246291
v -0.0563556 0.114221 0.00226795
v -0.0558045 0.114221 0.00191843
v -0.0553625 0.114221 0.00143817
v -0.05506 0.114221 0.000859908
v -0.0549445 0.114221 -0.000429027
v -0.0549174 0.114221 0.00022304
v -0.0551395 0.114221 -0.00105186
v -0.055489 0.114221 -0.001603
v -0.0559693 0.114221 -0.00204491
v -0.0565475 0.114221 -0.00234746
v -0.0571844 0.114221 -0.00249003
v -0.0578365 0.114221 -0.00246291
v -0.0584593 0.114221 -0.00226795
v -0.0590105 0.114221 -0.00191843
v -0.0594524 0.114221 -0.00143817
v -0.0597549 0.114221 -0.000859908
v -0.0598975 0.114221 -0.00022304
v -0.0598704 0.114221 0.000429027
v -0.0596754 0.114221 0.00105186
v -0.0593259 0.114221 0.001603
v -0.0588456 0.114221 0.00204491
v -0.0582674 0.114221 0.00234746
v -0.0571666 0.114421 -0.00268923
v -0.0564787 0.114421 -0.00253525
v -0.0558542 0.114421 -0.0022085
v -0.0553355 0.114421 -0.00173124
v -0.0549581 0.114421 -0.00113601
v -0.0547475 0.11442 -0.000463349
v -0.0547182 0.11442 0.000240884
v -0.0548722 0.114421 0.000928701
v -0.0551989 0.114421 0.00155323
v -0.0556762 0.114421 0.00207191
v -0.0562714 0.114421 0.00244939
v -0.0569441 0.114421 0.00265995
v -0.0576483 0.114421 0.00268923
v -0.0583361 0.114421 0.00253525
v -0.0589607 0.114421 0.0022085
v -0.0594794 0.114421 0.00173124
v -0.0598568 0.114421 0.00113601
v -0.0600674 0.114421 0.000463349
v -0.0600967 0.114421 -0.000240884
v -0.0599427 0.114421 -0.000928701
v -0.059616 0.114421 -0.00155323
v -0.0591387 0.114421 -0.00207191
v -0.0585435 0.114421 -0.00244939
v -0.0578708 0.114421 -0.00265995
v -0.0565458 0.114265 -0.00235217
v -0.0559664 0.114265 -0.00204901
v -0.0554852 0.114265 -0.00160622
v -0.055135 0.114265 -0.00105397
v -0.0549396 0.114265 -0.000429887
v -0.0549124 0.114265 0.000223488
v -0.0550553 0.114265 0.000861633
v -0.0553584 0.114265 0.00144106
v -0.0558012 0.114265 0.00192228
v -0.0563535 0.114265 0.0022725
v -0.0569776 0.114265 0.00246785
v -0.0576309 0.114265 0.00249503
v -0.0582691 0.114265 0.00235217
v -0.0588485 0.114265 0.00204901
v -0.0593297 0.114265 0.00160622
v -0.05968 0.114265 0.00105397
v -0.0598753 0.114265 0.000429887
v -0.0599025 0.114265 -0.000223488
v -0.0597596 0.114265 -0.000861633
v -0.0594565 0.114265 -0.00144106
v -0.0590137 0.114265 -0.00192228
v -0.0584614 0.114265 -0.0022725
v -0.0578373 0.114265 -0.00246785
v -0.057184 0.114265 -0.00249503
v -0.0565407 0.114307 -0.00236606
v -0.0559579 0.114307 -0.00206111
v -0.0554738 0.114307 -0.0016157
v -0.0551215 0.114307 -0.00106019
v -0.054925 0.114307 -0.000432426
v -0.0548977 0.114307 0.000224808
v -0.0550414 0.114307 0.000866721
v -0.0553463 0.114307 0.00144957
v -0.0557917 0.114307 0.00193363
v -0.0563473 0.114307 0.00228592
v -0.056975 0.114307 0.00248242
v -0.0576323 0.114307 0.00250976
v -0.0582742 0.114307 0.00236606
v -0.058857 0.114307 0.00206111
v -0.0593411 0.114307 0.0016157
v -0.0596934 0.114307 0.00106019
v -0.0598899 0.114308 0.000432426
v -0.0599172 0.114308 -0.000224808
v -0.0597735 0.114308 -0.000866721
v -0.0594686 0.114307 -0.00144957
v -0.0590232 0.114307 -0.00193363
v -0.0584676 0.114307 -0.00228592
v -0.0578399 0.114307 -0.00248242
v -0.0571826 0.114307 -0.00250976
v -0.0565325 0.114345 -0.00238843
v -0.0559442 0.114345 -0.0020806
v -0.0554555 0.114345 -0.00163098
v -0.0550999 0.114345 -0.00107022
v -0.0549016 0.114345 -0.000436515
v -0.054874 0.114345 0.000226933
v -0.055019 0.114345 0.000874916
v -0.0553268 0.114345 0.00146328
v -0.0557765 0.114345 0.00195191
v -0.0563372 0.114345 0.00230753
v -0.0569709 0.114345 0.0025059
v -0.0576344 0.114345 0.00253349
v -0.0582824 0.114345 0.00238843
v -0.0588707 0.114345 0.0020806
v -0.0593594 0.114345 0.00163098
v -0.059715 0.114345 0.00107022
v -0.0599133 0.114345 0.000436515
v -0.0599409 0.114345 -0.000226933
v -0.0597959 0.114345 -0.000874916
v -0.0594881 0.114345 -0.00146328
v -0.0590384 0.114345 -0.00195191
v -0.0584777 0.114345 -0.00230753
v -0.057844 0.114345 -0.0025059
v -0.0571805 0.114345 -0.00253349
v -0.0565216 0.114377 -0.00241817
v -0.055926 0.114377 -0.0021065
v -0.0554312 0.114377 -0.00165129
v -0.0550712 0.114377 -0.00108354
v -0.0548704 0.114377 -0.000441949
v -0.0548424 0.114377 0.000229759
v -0.0549893 0.114377 0.000885809
v -0.0553009 0.114377 0.00148149
v -0.0557562 0.114377 0.00197622
v -0.0563239 0.114377 0.00233626
v -0.0569655 0.114377 0.0025371
v -0.0576372 0.114377 0.00256503
v -0.0582933 0.114377 0.00241817
v -0.0588889 0.114377 0.0021065
v -0.0593837 0.114377 0.00165129
v -0.0597437 0.114377 0.00108354
v -0.0599445 0.114377 0.000441949
v -0.0599725 0.114377 -0.000229759
v -0.0598256 0.114377 -0.000885809
v -0.059514 0.114377 -0.00148149
v -0.0590587 0.114377 -0.00197622
v -0.058491 0.114377 -0.00233626
v -0.0578494 0.114377 -0.0025371
v -0.0571777 0.114377 -0.00256503
v -0.0565086 0.114401 -0.00245377
v -0.0559041 0.114401 -0.00213752
v -0.0554021 0.114401 -0.0016756
v -0.0550368 0.114401 -0.00109949
v -0.054833 0.114401 -0.000448457
v -0.0548046 0.114401 0.000233142
v -0.0549537 0.114401 0.000898853
v -0.0552699 0.114401 0.00150331
v -0.0557318 0.114401 0.00200532
v -0.056308 0.114401 0.00237066
v -0.056959 0.114401 0.00257446
v -0.0576406 0.114401 0.0026028
v -0.0583063 0.114401 0.00245377
v -0.0589108 0.114401 0.00213752
v -0.0594128 0.114401 0.0016756
v -0.0597781 0.114401 0.00109949
v -0.0599819 0.114401 0.000448457
v -0.0600103 0.114401 -0.000233142
v -0.0598612 0.114401 -0.000898853
v -0.059545 0.114401 -0.00150331
v -0.0590831 0.114401 -0.00200532
v -0.0585069 0.114401 -0.00237066
v -0.0578559 0.114401 -0.00257446
v -0.0571743 0.114401 -0.0026028
v -0.0564941 0.114416 -0.00249347
v -0.0558798 0.114416 -0.0021721
v -0.0553697 0.114416 -0.00170271
v -0.0549984 0.114415 -0.00111728
v -0.0547913 0.114415 -0.000455712
v -0.0547625 0.114415 0.000236913
v -0.054914 0.114415 0.000913393
v -0.0552353 0.114416 0.00152763
v -0.0557047 0.114416 0.00203775
v -0.0562902 0.114416 0.00240901
v -0.0569517 0.114416 0.0026161
v -0.0576444 0.114416 0.00264491
v -0.0583208 0.114416 0.00249347
v -0.0589351 0.114416 0.0021721
v -0.0594452 0.114416 0.00170271
v -0.0598165 0.114416 0.00111728
v -0.0600235 0.114416 0.000455712
v -0.0600524 0.114416 -0.000236913
v -0.0599009 0.114416 -0.000913393
v -0.0595795 0.114416 -0.00152763
v -0.0591102 0.114416 -0.00203775
v -0.0585247 0.114416 -0.00240901
v -0.0578632 0.114416 -0.0026161
v -0.0571705 0.114416 -0.00264491
v -0.0531744 0.11442 0.000379169
v -0.0534168 0.11442 0.00146184
v -0.0539311 0.11442 0.0024449
v -0.0546823 0.11442 0.00326133
v -0.0588693 0.114421 0.00399068
v -0.0598523 0.114421 0.00347635
v -0.0556193 0.114421 0.00385552
v -0.0566781 0.114421 0.00418695
v -0.0577866 0.114421 0.00423305
v -0.0606688 0.114421 0.00272511
v -0.0591956 0.114421 -0.00385552
v -0.0581368 0.114421 -0.00418695
v -0.0613981 0.114421 -0.00146184
v -0.0608838 0.114421 -0.0024449
v -0.0601326 0.114421 -0.00326133
v -0.0570283 0.114421 -0.00423305
v -0.061263 0.114421 0.00178816
v -0.0615944 0.114421 0.000729346
v -0.0616405 0.114421 -0.000379169
v -0.0559456 0.114421 -0.00399068
v -0.0549625 0.114421 -0.00347635
v -0.0541461 0.11442 -0.00272511
v -0.0535519 0.11442 -0.00178816
v -0.0532205 0.11442 -0.000729346
v -0.0577864 0.119171 0.00423305
v -0.0566779 0.119171 0.00418695
v -0.0556191 0.119171 0.00385552
v -0.0546821 0.11917 0.00326133
v -0.0539309 0.11917 0.0024449
v -0.0534166 0.11917 0.00146184
v -0.0531742 0.11917 0.000379169
v -0.0532203 0.11917 -0.000729346
v -0.0535517 0.11917 -0.00178816
v -0.0541459 0.11917 -0.00272511
v -0.0549623 0.119171 -0.00347635
v -0.0559454 0.119171 -0.00399068
v -0.0570281 0.119171 -0.00423305
v -0.0581366 0.119171 -0.00418695
v -0.0591954 0.119171 -0.00385552
v -0.0601323 0.119171 -0.00326133
v -0.0608836 0.119171 -0.0024449
v -0.0613979 0.119171 -0.00146184
v -0.0616403 0.119171 -0.000379169
v -0.0615942 0.119171 0.000729346
v -0.0612627 0.119171 0.00178816
v -0.0606686 0.119171 0.00272511
v -0.0598521 0.119171 0.00347635
v -0.0588691 0.119171 0.00399068
v -0.0577641 0.119421 0.00398405
v -0.0567208 0.119421 0.00394066
v -0.0557243 0.119421 0.00362872
v -0.0548424 0.11942 0.00306949
v -0.0541354 0.11942 0.00230108
v -0.0536513 0.11942 0.00137585
v -0.0534232 0.11942 0.000356865
v -0.0534666 0.11942 -0.000686443
v -0.0537785 0.11942 -0.00168297
v -0.0543377 0.11942 -0.00256481
v -0.0551061 0.119421 -0.00327186
v -0.0560314 0.119421 -0.00375593
v -0.0570504 0.119421 -0.00398405
v -0.0580937 0.119421 -0.00394066
v -0.0590902 0.119421 -0.00362872
v -0.059972 0.119421 -0.00306949
v -0.0606791 0.119421 -0.00230108
v -0.0611632 0.119421 -0.00137585
v -0.0613913 0.119421 -0.000356865
v -0.0613479 0.119421 0.000686443
v -0.0610359 0.119421 0.00168297
v -0.0604767 0.119421 0.00256481
v -0.0597083 0.119421 0.00327186
v -0.0587831 0.119421 0.00375593
v -0.0567097 0.119412 0.0040044
v -0.055697 0.119412 0.00368742
v -0.0548009 0.119412 0.00311914
v -0.0540824 0.119412 0.0023383
v -0.0535905 0.119412 0.00139811
v -0.0533587 0.119412 0.000362638
v -0.0534028 0.119412 -0.000697547
v -0.0537198 0.119412 -0.00171019
v -0.0542881 0.119412 -0.0026063
v -0.0550689 0.119412 -0.00332478
v -0.0560091 0.119412 -0.00381669
v -0.0570446 0.119412 -0.0040485
v -0.0581048 0.119412 -0.0040044
v -0.0591174 0.119412 -0.00368742
v -0.0600135 0.119412 -0.00311914
v -0.060732 0.119412 -0.0023383
v -0.0612239 0.119412 -0.00139811
v -0.0614557 0.119412 -0.000362638
v -0.0614116 0.119412 0.000697547
v -0.0610946 0.119412 0.00171019
v -0.0605264 0.119412 0.0026063
v -0.0597455 0.119412 0.00332478
v -0.0588053 0.119412 0.00381669
v -0.0577699 0.119412 0.0040485
v -0.0566993 0.119387 0.00406381
v -0.0556717 0.119387 0.00374212
v -0.0547623 0.119387 0.00316541
v -0.0540331 0.119387 0.00237299
v -0.0535339 0.119387 0.00141885
v -0.0532987 0.119387 0.000368017
v -0.0533434 0.119387 -0.000707894
v -0.0536651 0.119387 -0.00173556
v -0.0542418 0.119387 -0.00264496
v -0.0550342 0.119387 -0.0033741
v -0.0559884 0.119387 -0.00387331
v -0.0570392 0.119387 -0.00410855
v -0.0581151 0.119387 -0.00406381
v -0.0591428 0.119387 -0.00374212
v -0.0600522 0.119387 -0.00316541
v -0.0607813 0.119387 -0.00237299
v -0.0612805 0.119387 -0.00141885
v -0.0615158 0.119387 -0.000368017
v -0.061471 0.119387 0.000707894
v -0.0611493 0.119387 0.00173556
v -0.0605726 0.119387 0.00264496
v -0.0597802 0.119387 0.0033741
v -0.0588261 0.119387 0.00387331
v -0.0577752 0.119387 0.00410855
v -0.0566904 0.119347 0.00411481
v -0.0556499 0.119347 0.00378909
v -0.0547291 0.119347 0.00320514
v -0.0539908 0.119347 0.00240277
v -0.0534853 0.119347 0.00143666
v -0.0532471 0.119347 0.000372636
v -0.0532924 0.119347 -0.00071678
v -0.0536181 0.119347 -0.00175735
v -0.0542021 0.119347 -0.00267816
v -0.0550045 0.119347 -0.00341645
v -0.0559706 0.119347 -0.00392192
v -0.0570346 0.119347 -0.00416012
v -0.058124 0.119347 -0.00411481
v -0.0591646 0.119347 -0.00378909
v -0.0600854 0.119348 -0.00320514
v -0.0608237 0.119348 -0.00240277
v -0.0613291 0.119348 -0.00143666
v -0.0615673 0.119348 -0.000372636
v -0.061522 0.119348 0.00071678
v -0.0611963 0.119348 0.00175735
v -0.0606124 0.119348 0.00267816
v -0.05981 0.119347 0.00341645
v -0.0588439 0.119347 0.00392192
v -0.0577799 0.119347 0.00416012
v -0.0566836 0.119296 0.00415395
v -0.0556332 0.119296 0.00382513
v -0.0547036 0.119295 0.00323563
v -0.0539583 0.119295 0.00242563
v -0.053448 0.119295 0.00145032
v -0.0532075 0.119295 0.000376181
v -0.0532533 0.119295 -0.000723598
v -0.0535821 0.119295 -0.00177406
v -0.0541716 0.119295 -0.00270363
v -0.0549816 0.119296 -0.00344895
v -0.0559569 0.119296 -0.00395923
v -0.057031 0.119296 -0.00419969
v -0.0581308 0.119296 -0.00415395
v -0.0591813 0.119296 -0.00382513
v -0.0601109 0.119296 -0.00323563
v -0.0608562 0.119296 -0.00242563
v -0.0613665 0.119296 -0.00145032
v -0.0616069 0.119296 -0.000376181
v -0.0615612 0.119296 0.000723598
v -0.0612324 0.119296 0.00177406
v -0.0606429 0.119296 0.00270363
v -0.0598329 0.119296 0.00344895
v -0.0588576 0.119296 0.00395923
v -0.0577834 0.119296 0.00419969
v -0.0566793 0.119235 0.00417856
v -0.0556227 0.119235 0.00384779
v -0.0546876 0.119235 0.0032548
v -0.0539379 0.119235 0.00244
v -0.0534246 0.119235 0.00145891
v -0.0531827 0.119235 0.000378409
v -0.0532287 0.119235 -0.000727884
v -0.0535594 0.119235 -0.00178457
v -0.0541524 0.119235 -0.00271964
v -0.0549672 0.119235 -0.00346938
v -0.0559483 0.119235 -0.00398268
v -0.0570288 0.119235 -0.00422457
v -0.0581351 0.119235 -0.00417856
v -0.0591918 0.119235 -0.00384779
v -0.0601269 0.119235 -0.0032548
v -0.0608766 0.119235 -0.00244
v -0.0613899 0.119236 -0.00145891
v -0.0616318 0.119236 -0.000378409
v -0.0615858 0.119236 0.000727884
v -0.061255 0.119235 0.00178457
v -0.060662 0.119235 0.00271964
v -0.0598472 0.119235 0.00346938
v -0.0588661 0.119235 0.00398268
v -0.0577856 0.119235 0.00422457
v -0.0457078 0.105712 0.0081
v -0.0457079 0.10392 0.0081
v -0.0458624 0.102662 0.0081
v -0.0450862 0.102469 0.0073
v -0.0463167 0.101479 0.0081
v -0.0456104 0.101103 0.0073
v -0.0470437 0.100441 0.0081
v -0.0464492 0.0999053 0.0073
v -0.0480003 0.0996092 0.0081
v -0.047553 0.0989459 0.0073
v -0.0491296 0.0990338 0.0081
v -0.048856 0.0982821 0.0073
v -0.0456874 0.102189 0.0081
v -0.0463133 0.100897 0.0081
v -0.0472523 0.099811 0.0081
v -0.0455213 0.105032 0.0081
v -0.0454173 0.1036 0.0081
v -0.0484404 0.0990049 0.0081
v -0.0497967 0.0985337 0.0081
v -0.0508133 0.0984211 0.0081
v -0.0558233 0.101453 0.0081
v -0.0562945 0.102809 0.0081
v -0.0638939 0.0998731 0.0081
v -0.0670784 0.102626 0.0081
v -0.0657862 0.102 0.0081
v -0.0634228 0.0985169 0.0081
v -0.0647001 0.101061 0.0081
v -0.0545635 0.10803 0.0081
v -0.0561284 0.105651 0.0081
v -0.0555025 0.106943 0.0081
v -0.0563986 0.104241 0.0081
v -0.068904 0.102905 0.0081
v -0.0684886 0.102896 0.0081
v -0.0633187 0.0970848 0.0081
v -0.0635888 0.0956747 0.0081
v -0.0550172 0.100265 0.0081
v -0.0533754 0.108836 0.0081
v -0.0642147 0.0943825 0.0081
v -0.0651537 0.0932963 0.0081
v -0.0520191 0.109307 0.0081
v -0.0505871 0.109411 0.0081
v -0.0653474 0.0931319 0.0081
v -0.0526389 0.0986998 0.0081
v -0.0539311 0.0993257 0.0081
v -0.0467986 0.107576 0.0081
v -0.0459925 0.106388 0.0081
v -0.049177 0.109141 0.0081
v -0.0478848 0.108515 0.0081
v -0.0512287 0.0984297 0.0081
v -0.0562945 0.102809 0.0091
v -0.0558233 0.101453 0.0091
v -0.0550172 0.100265 0.0091
v -0.0539311 0.0993257 0.0091
v -0.0526389 0.0986998 0.0091
v -0.0497967 0.0985337 0.0091
v -0.0509079 0.0984203 0.0091
v -0.0512287 0.0984297 0.0091
v -0.0484404 0.0990049 0.0091
v -0.0472523 0.099811 0.0091
v -0.0463133 0.100897 0.0091
v -0.0456874 0.102189 0.0091
v -0.0454173 0.1036 0.0091
v -0.0459925 0.106388 0.0091
v -0.0455213 0.105032 0.0091
v -0.0467986 0.107576 0.0091
v -0.0478848 0.108515 0.0091
v -0.049177 0.109141 0.0091
v -0.0505871 0.109411 0.0091
v -0.0520191 0.109307 0.0091
v -0.0533754 0.108836 0.0091
v -0.0545635 0.10803 0.0091
v -0.0555025 0.106943 0.0091
v -0.0561284 0.105651 0.0091
v -0.0563986 0.104241 0.0091
v -0.0485628 0.104787 0.0091
v -0.0488669 0.105364 0.0091
v -0.053253 0.103054 0.0091
v -0.0529489 0.102477 0.0091
v -0.0484438 0.103498 0.0091
v -0.0484185 0.10415 0.0091
v -0.0493102 0.105843 0.0091
v -0.053372 0.104343 0.0091
v -0.0533973 0.10369 0.0091
v -0.0525057 0.101998 0.0091
v -0.0506781 0.101431 0.0091
v -0.0500416 0.101575 0.0091
v -0.0494642 0.101879 0.0091
v -0.0489851 0.102323 0.0091
v -0.0486371 0.102875 0.0091
v -0.0498623 0.106191 0.0091
v -0.0504856 0.106384 0.0091
v -0.0511378 0.10641 0.0091
v -0.0517742 0.106265 0.0091
v -0.0523517 0.105961 0.0091
v -0.0528307 0.105518 0.0091
v -0.0531787 0.104966 0.0091
v -0.0519536 0.10165 0.0091
v -0.0513302 0.101456 0.0091
v -0.0509079 0.10142 0.0091
v -0.0488669 0.105364 0.0133
v -0.0493102 0.105843 0.0133
v -0.0498623 0.106191 0.0133
v -0.0504856 0.106384 0.0133
v -0.0511378 0.10641 0.0133
v -0.0517742 0.106265 0.0133
v -0.0523517 0.105961 0.0133
v -0.0528307 0.105518 0.0133
v -0.0531787 0.104966 0.0133
v -0.053372 0.104343 0.0133
v -0.0533973 0.10369 0.0133
v -0.053253 0.103054 0.0133
v -0.0529489 0.102477 0.0133
v -0.0525057 0.101998 0.0133
v -0.0519536 0.10165 0.0133
v -0.0506781 0.101431 0.0133
v -0.0513302 0.101456 0.0133
v -0.0500416 0.101575 0.0133
v -0.0494642 0.101879 0.0133
v -0.0489851 0.102323 0.0133
v -0.0486371 0.102875 0.0133
v -0.0484438 0.103498 0.0133
v -0.0484185 0.10415 0.0133
v -0.0485628 0.104787 0.0133
v -0.0527856 0.102592 0.0135
v -0.0530654 0.103123 0.0135
v -0.0531982 0.103709 0.0135
v -0.0531749 0.104309 0.0135
v -0.0529971 0.104882 0.0135
v -0.0526769 0.10539 0.0135
v -0.0522362 0.105798 0.0135
v -0.0517049 0.106078 0.0135
v -0.0511194 0.106211 0.0135
v -0.0505194 0.106187 0.0135
v -0.0499459 0.106009 0.0135
v -0.049438 0.105689 0.0135
v -0.0490302 0.105249 0.0135
v -0.0487504 0.104717 0.0135
v -0.0486177 0.104132 0.0135
v -0.048641 0.103532 0.0135
v -0.0488188 0.102958 0.0135
v -0.0491389 0.10245 0.0135
v -0.0495797 0.102043 0.0135
v -0.0501109 0.101763 0.0135
v -0.0506965 0.10163 0.0135
v -0.0509079 0.10162 0.0135
v -0.0512964 0.101653 0.0135
v -0.0518699 0.101831 0.0135
v -0.0523778 0.102151 0.0135
v -0.0509079 0.10392 0.0135
v -0.0457078 0.105712 -0.0081
v -0.0457079 0.10392 -0.0081
v -0.048856 0.0982821 -0.0073
v -0.047553 0.0989459 -0.0073
v -0.0464492 0.0999053 -0.0073
v -0.0456104 0.101103 -0.0073
v -0.0450862 0.102469 -0.0073
v -0.0491296 0.0990338 -0.0081
v -0.0480003 0.0996092 -0.0081
v -0.0470437 0.100441 -0.0081
v -0.0463167 0.101479 -0.0081
v -0.0458624 0.102662 -0.0081
v -0.0472523 0.099811 -0.0081
v -0.0463133 0.100897 -0.0081
v -0.0456874 0.102189 -0.0081
v -0.0454173 0.1036 -0.0081
v -0.0455213 0.105032 -0.0081
v -0.0508133 0.0984211 -0.0081
v -0.0497967 0.0985337 -0.0081
v -0.0484404 0.0990049 -0.0081
v -0.0634228 0.0985169 -0.0081
v -0.0638939 0.0998731 -0.0081
v -0.0562945 0.102809 -0.0081
v -0.0657862 0.102 -0.0081
v -0.0558233 0.101453 -0.0081
v -0.0550172 0.100265 -0.0081
v -0.0635888 0.0956747 -0.0081
v -0.0563986 0.104241 -0.0081
v -0.0670784 0.102626 -0.0081
v -0.0545635 0.10803 -0.0081
v -0.0642147 0.0943825 -0.0081
v -0.0653474 0.0931319 -0.0081
v -0.0651537 0.0932963 -0.0081
v -0.0633187 0.0970848 -0.0081
v -0.0684886 0.102896 -0.0081
v -0.0533754 0.108836 -0.0081
v -0.0647001 0.101061 -0.0081
v -0.0555025 0.106943 -0.0081
v -0.0561284 0.105651 -0.0081
v -0.0505871 0.109411 -0.0081
v -0.049177 0.109141 -0.0081
v -0.0520191 0.109307 -0.0081
v -0.0539311 0.0993257 -0.0081
v -0.0467986 0.107576 -0.0081
v -0.0478848 0.108515 -0.0081
v -0.0459925 0.106388 -0.0081
v -0.068904 0.102905 -0.0081
v -0.0526389 0.0986998 -0.0081
v -0.0512287 0.0984297 -0.0081
v -0.0562945 0.102809 -0.0091
v -0.0558233 0.101453 -0.0091
v -0.0550172 0.100265 -0.0091
v -0.0539311 0.0993257 -0.0091
v -0.0526389 0.0986998 -0.0091
v -0.0512287 0.0984297 -0.0091
v -0.0497967 0.0985337 -0.0091
v -0.0484404 0.0990049 -0.0091
v -0.0472523 0.099811 -0.0091
v -0.0463133 0.100897 -0.0091
v -0.0456874 0.102189 -0.0091
v -0.0454173 0.1036 -0.0091
v -0.0455213 0.105032 -0.0091
v -0.0459925 0.106388 -0.0091
v -0.0467986 0.107576 -0.0091
v -0.0478848 0.108515 -0.0091
v -0.049177 0.109141 -0.0091
v -0.0505871 0.109411 -0.0091
v -0.0509079 0.10942 -0.0091
v -0.0520191 0.109307 -0.0091
v -0.0533754 0.108836 -0.0091
v -0.0545635 0.10803 -0.0091
v -0.0555025 0.106943 -0.0091
v -0.0561284 0.105651 -0.0091
v -0.0563986 0.104241 -0.0091
v -0.0485628 0.104787 -0.0091
v -0.0484185 0.10415 -0.0091
v -0.053253 0.103054 -0.0091
v -0.0533973 0.10369 -0.0091
v -0.0488669 0.105364 -0.0091
v -0.0484438 0.103498 -0.0091
v -0.0486371 0.102875 -0.0091
v -0.0529489 0.102477 -0.0091
v -0.053372 0.104343 -0.0091
v -0.0531787 0.104966 -0.0091
v -0.0511378 0.10641 -0.0091
v -0.0509079 0.10642 -0.0091
v -0.0504856 0.106384 -0.0091
v -0.0498623 0.106191 -0.0091
v -0.0493102 0.105843 -0.0091
v -0.0489851 0.102323 -0.0091
v -0.0494642 0.101879 -0.0091
v -0.0500416 0.101575 -0.0091
v -0.0506781 0.101431 -0.0091
v -0.0513302 0.101456 -0.0091
v -0.0519536 0.10165 -0.0091
v -0.0525057 0.101998 -0.0091
v -0.0528307 0.105518 -0.0091
v -0.0523517 0.105961 -0.0091
v -0.0517742 0.106265 -0.0091
v -0.0488669 0.105364 -0.0133
v -0.0493102 0.105843 -0.0133
v -0.0498623 0.106191 -0.0133
v -0.0504856 0.106384 -0.0133
v -0.0511378 0.10641 -0.0133
v -0.0517742 0.106265 -0.0133
v -0.0523517 0.105961 -0.0133
v -0.0528307 0.105518 -0.0133
v -0.0531787 0.104966 -0.0133
v -0.053372 0.104343 -0.0133
v -0.0533973 0.10369 -0.0133
v -0.053253 0.103054 -0.0133
v -0.0529489 0.102477 -0.0133
v -0.0525057 0.101998 -0.0133
v -0.0519536 0.10165 -0.0133
v -0.0513302 0.101456 -0.0133
v -0.0506781 0.101431 -0.0133
v -0.0500416 0.101575 -0.0133
v -0.0494642 0.101879 -0.0133
v -0.0489851 0.102323 -0.0133
v -0.0486371 0.102875 -0.0133
v -0.0484438 0.103498 -0.0133
v -0.0484185 0.10415 -0.0133
v -0.0485628 0.104787 -0.0133
v -0.0490302 0.105249 -0.0135
v -0.049438 0.105689 -0.0135
v -0.0499459 0.106009 -0.0135
v -0.0505194 0.106187 -0.0135
v -0.0511194 0.106211 -0.0135
v -0.0517049 0.106078 -0.0135
v -0.0522362 0.105798 -0.0135
v -0.0526769 0.10539 -0.0135
v -0.0529971 0.104882 -0.0135
v -0.0531749 0.104309 -0.0135
v -0.0532079 0.10392 -0.0135
v -0.0531982 0.103709 -0.0135
v -0.0530654 0.103123 -0.0135
v -0.0527856 0.102592 -0.0135
v -0.0523778 0.102151 -0.0135
v -0.0518699 0.101831 -0.0135
v -0.0512964 0.101653 -0.0135
v -0.0506965 0.10163 -0.0135
v -0.0501109 0.101763 -0.0135
v -0.0495797 0.102043 -0.0135
v -0.0491389 0.10245 -0.0135
v -0.0488188 0.102958 -0.0135
v -0.048641 0.103532 -0.0135
v -0.0486177 0.104132 -0.0135
v -0.0487504 0.104717 -0.0135
v -0.0509079 0.10392 -0.0135
v -0.0667575 0.0917674 0.0073
v -0.0670311 0.0925192 0.0081
v -0.0663419 0.0924902 0.0081
v -0.0729187 0.09375 0.0081
v -0.0737248 0.0949381 0.0081
v -0.0734459 0.0950513 0.0081
v -0.0738746 0.0962293 0.0081
v -0.0676981 0.0920191 0.0081
v -0.0682522 0.0922356 0.0081
v -0.0695056 0.0922525 0.0081
v -0.0691302 0.091915 0.0081
v -0.0705403 0.0921851 0.0081
v -0.0707186 0.0925688 0.0081
v -0.0718207 0.0931663 0.0081
v -0.0741959 0.0962944 0.0081
v -0.0740089 0.0974757 0.0081
v -0.0718325 0.092811 0.0081
v -0.0727477 0.0940101 0.0081
v -0.0743 0.0977264 0.0081
v -0.0740299 0.0991366 0.0081
v -0.073841 0.098718 0.0081
v -0.0733808 0.099884 0.0081
v -0.073404 0.100429 0.0081
v -0.072465 0.101515 0.0081
v -0.0726548 0.100906 0.0081
v -0.0712769 0.102321 0.0081
v -0.0717054 0.101725 0.0081
v -0.0705876 0.102292 0.0081
v -0.0699206 0.102792 0.0081
v -0.0708612 0.103044 0.0073
v -0.0681664 0.0914402 0.0073
v -0.0696127 0.0914597 0.0073
v -0.0710124 0.0918247 0.0073
v -0.0722839 0.0925141 0.0073
v -0.0733536 0.0934878 0.0073
v -0.0741592 0.0946891 0.0073
v -0.0746538 0.0960483 0.0073
v -0.0748088 0.0974865 0.0073
v -0.0746151 0.0989199 0.0073
v -0.0740841 0.100265 0.0073
v -0.0732464 0.101445 0.0073
v -0.0721509 0.102389 0.0073
v -0.0708612 0.103044 -0.0073
v -0.0721509 0.102389 -0.0073
v -0.0732464 0.101445 -0.0073
v -0.0740841 0.100265 -0.0073
v -0.0746151 0.0989199 -0.0073
v -0.0748088 0.0974865 -0.0073
v -0.0746538 0.0960483 -0.0073
v -0.0741592 0.0946891 -0.0073
v -0.0733536 0.0934878 -0.0073
v -0.0722839 0.0925141 -0.0073
v -0.0710124 0.0918247 -0.0073
v -0.0696127 0.0914597 -0.0073
v -0.0681664 0.0914402 -0.0073
v -0.0667575 0.0917674 -0.0073
v -0.0670311 0.0925192 -0.0081
v -0.0705876 0.102292 -0.0081
v -0.0717054 0.101725 -0.0081
v -0.0726548 0.100906 -0.0081
v -0.0733808 0.099884 -0.0081
v -0.073841 0.098718 -0.0081
v -0.0740089 0.0974757 -0.0081
v -0.0738746 0.0962293 -0.0081
v -0.0734459 0.0950513 -0.0081
v -0.0727477 0.0940101 -0.0081
v -0.0718207 0.0931663 -0.0081
v -0.0707186 0.0925688 -0.0081
v -0.0695056 0.0922525 -0.0081
v -0.0682522 0.0922356 -0.0081
v -0.0740299 0.0991366 -0.0081
v -0.0743 0.0977264 -0.0081
v -0.0737248 0.0949381 -0.0081
v -0.0729187 0.09375 -0.0081
v -0.072465 0.101515 -0.0081
v -0.073404 0.100429 -0.0081
v -0.0741959 0.0962944 -0.0081
v -0.0718325 0.092811 -0.0081
v -0.0676981 0.0920191 -0.0081
v -0.0663419 0.0924902 -0.0081
v -0.0705403 0.0921851 -0.0081
v -0.0691302 0.091915 -0.0081
v -0.0699206 0.102792 -0.0081
v -0.0712769 0.102321 -0.0081
v -0.0741959 0.0962944 0.0091
v -0.0737248 0.0949381 0.0091
v -0.0729187 0.09375 0.0091
v -0.0718325 0.092811 0.0091
v -0.0705403 0.0921851 0.0091
v -0.0688094 0.0919056 0.0091
v -0.0676981 0.0920191 0.0091
v -0.0651537 0.0932963 0.0091
v -0.0663419 0.0924902 0.0091
v -0.0642147 0.0943825 0.0091
v -0.0635888 0.0956747 0.0091
v -0.0633187 0.0970848 0.0091
v -0.0634228 0.0985169 0.0091
v -0.0638939 0.0998731 0.0091
v -0.0647001 0.101061 0.0091
v -0.0657862 0.102 0.0091
v -0.0670784 0.102626 0.0091
v -0.0699206 0.102792 0.0091
v -0.0684886 0.102896 0.0091
v -0.0712769 0.102321 0.0091
v -0.072465 0.101515 0.0091
v -0.073404 0.100429 0.0091
v -0.0740299 0.0991366 0.0091
v -0.0743 0.0977264 0.0091
v -0.0691302 0.091915 0.0091
v -0.0741959 0.0962944 -0.0091
v -0.0737248 0.0949381 -0.0091
v -0.0729187 0.09375 -0.0091
v -0.0718325 0.092811 -0.0091
v -0.0705403 0.0921851 -0.0091
v -0.0691302 0.091915 -0.0091
v -0.0676981 0.0920191 -0.0091
v -0.0663419 0.0924902 -0.0091
v -0.0651537 0.0932963 -0.0091
v -0.0642147 0.0943825 -0.0091
v -0.0635888 0.0956747 -0.0091
v -0.0633187 0.0970848 -0.0091
v -0.0634228 0.0985169 -0.0091
v -0.0638939 0.0998731 -0.0091
v -0.0647001 0.101061 -0.0091
v -0.0657862 0.102 -0.0091
v -0.0670784 0.102626 -0.0091
v -0.0684886 0.102896 -0.0091
v -0.0699206 0.102792 -0.0091
v -0.0712769 0.102321 -0.0091
v -0.072465 0.101515 -0.0091
v -0.073404 0.100429 -0.0091
v -0.0740299 0.0991366 -0.0091
v -0.0743 0.0977264 -0.0091
v -0.0665028 0.09837 -0.0091
v -0.0663318 0.0977401 -0.0091
v -0.0664965 0.0964565 -0.0091
v -0.066821 0.0958903 -0.0091
v -0.0711159 0.0964413 -0.0091
v -0.0712869 0.0970712 -0.0091
v -0.0711222 0.0983547 -0.0091
v -0.0707977 0.098921 -0.0091
v -0.0678603 0.0997185 -0.0091
v -0.0684912 0.0998853 -0.0091
v -0.066831 0.0989341 -0.0091
v -0.0663297 0.0970875 -0.0091
v -0.0684749 0.0949281 -0.0091
v -0.0691275 0.094926 -0.0091
v -0.0697585 0.0950928 -0.0091
v -0.0703247 0.0954173 -0.0091
v -0.0707877 0.0958772 -0.0091
v -0.071289 0.0977238 -0.0091
v -0.067294 0.099394 -0.0091
v -0.0672809 0.0954273 -0.0091
v -0.067845 0.0950991 -0.0091
v -0.0703378 0.099384 -0.0091
v -0.0697737 0.0997122 -0.0091
v -0.0691438 0.0998832 -0.0091
v -0.0688094 0.0999056 -0.0091
v -0.066831 0.0989341 -0.0133
v -0.0665028 0.09837 -0.0133
v -0.0663318 0.0977401 -0.0133
v -0.0663297 0.0970875 -0.0133
v -0.0664965 0.0964565 -0.0133
v -0.066821 0.0958903 -0.0133
v -0.0672809 0.0954273 -0.0133
v -0.067845 0.0950991 -0.0133
v -0.0684749 0.0949281 -0.0133
v -0.0691275 0.094926 -0.0133
v -0.0697585 0.0950928 -0.0133
v -0.0703247 0.0954173 -0.0133
v -0.0707877 0.0958772 -0.0133
v -0.0711159 0.0964413 -0.0133
v -0.0712869 0.0970712 -0.0133
v -0.071289 0.0977238 -0.0133
v -0.0711222 0.0983547 -0.0133
v -0.0707977 0.098921 -0.0133
v -0.0703378 0.099384 -0.0133
v -0.0697737 0.0997122 -0.0133
v -0.0684912 0.0998853 -0.0133
v -0.0691438 0.0998832 -0.0133
v -0.0678603 0.0997185 -0.0133
v -0.067294 0.099394 -0.0133
v -0.0706294 0.0959995 -0.0135
v -0.0702035 0.0955763 -0.0135
v -0.0696825 0.0952778 -0.0135
v -0.069102 0.0951243 -0.0135
v -0.0685016 0.0951263 -0.0135
v -0.0679222 0.0952836 -0.0135
v -0.0674032 0.0955855 -0.0135
v -0.06698 0.0960115 -0.0135
v -0.0666815 0.0965325 -0.0135
v -0.0665281 0.0971129 -0.0135
v -0.06653 0.0977134 -0.0135
v -0.0666873 0.0982928 -0.0135
v -0.0669893 0.0988118 -0.0135
v -0.0674152 0.099235 -0.0135
v -0.0679362 0.0995335 -0.0135
v -0.0685167 0.0996869 -0.0135
v -0.0691171 0.099685 -0.0135
v -0.0696965 0.0995277 -0.0135
v -0.0702155 0.0992257 -0.0135
v -0.0706387 0.0987998 -0.0135
v -0.0709372 0.0982788 -0.0135
v -0.0710907 0.0976983 -0.0135
v -0.0710887 0.0970979 -0.0135
v -0.0709314 0.0965185 -0.0135
v -0.0688094 0.0974056 -0.0135
v -0.0663318 0.0977401 0.0091
v -0.0663094 0.0974056 0.0091
v -0.0663297 0.0970875 0.0091
v -0.0711222 0.0983547 0.0091
v -0.071289 0.0977238 0.0091
v -0.0711159 0.0964413 0.0091
v -0.0707877 0.0958772 0.0091
v -0.0665028 0.09837 0.0091
v -0.0678603 0.0997185 0.0091
v -0.0684912 0.0998853 0.0091
v -0.0691438 0.0998832 0.0091
v -0.0697737 0.0997122 0.0091
v -0.0712869 0.0970712 0.0091
v -0.0703247 0.0954173 0.0091
v -0.0672809 0.0954273 0.0091
v -0.066821 0.0958903 0.0091
v -0.0664965 0.0964565 0.0091
v -0.066831 0.0989341 0.0091
v -0.067294 0.099394 0.0091
v -0.0703378 0.099384 0.0091
v -0.0707977 0.098921 0.0091
v -0.0697585 0.0950928 0.0091
v -0.0691275 0.094926 0.0091
v -0.0684749 0.0949281 0.0091
v -0.067845 0.0950991 0.0091
v -0.066831 0.0989341 0.0133
v -0.0665028 0.09837 0.0133
v -0.0663318 0.0977401 0.0133
v -0.0663297 0.0970875 0.0133
v -0.0664965 0.0964565 0.0133
v -0.066821 0.0958903 0.0133
v -0.0672809 0.0954273 0.0133
v -0.067845 0.0950991 0.0133
v -0.0684749 0.0949281 0.0133
v -0.0691275 0.094926 0.0133
v -0.0697585 0.0950928 0.0133
v -0.0703247 0.0954173 0.0133
v -0.0707877 0.0958772 0.0133
v -0.0711159 0.0964413 0.0133
v -0.0712869 0.0970712 0.0133
v -0.071289 0.0977238 0.0133
v -0.0711222 0.0983547 0.0133
v -0.0707977 0.098921 0.0133
v -0.0703378 0.099384 0.0133
v -0.0697737 0.0997122 0.0133
v -0.0691438 0.0998832 0.0133
v -0.0684912 0.0998853 0.0133
v -0.0678603 0.0997185 0.0133
v -0.067294 0.099394 0.0133
v -0.0669893 0.0988118 0.0135
v -0.0666873 0.0982928 0.0135
v -0.06653 0.0977134 0.0135
v -0.0665281 0.0971129 0.0135
v -0.0666815 0.0965325 0.0135
v -0.06698 0.0960115 0.0135
v -0.0674032 0.0955855 0.0135
v -0.0679222 0.0952836 0.0135
v -0.0685016 0.0951263 0.0135
v -0.069102 0.0951243 0.0135
v -0.0696825 0.0952778 0.0135
v -0.0702035 0.0955763 0.0135
v -0.0706294 0.0959995 0.0135
v -0.0709314 0.0965185 0.0135
v -0.0710887 0.0970979 0.0135
v -0.0710907 0.0976983 0.0135
v -0.0709372 0.0982788 0.0135
v -0.0706387 0.0987998 0.0135
v -0.0702155 0.0992257 0.0135
v -0.0696965 0.0995277 0.0135
v -0.0691171 0.099685 0.0135
v -0.0685167 0.0996869 0.0135
v -0.0679362 0.0995335 0.0135
v -0.0674152 0.099235 0.0135
v -0.0688094 0.0974056 0.0135
v -0.0668517 0.104503 0.0036
v -0.0668517 0.104503 -0.0036
v -0.0655801 0.104966 -0.0036
v -0.0655801 0.104966 0.0036
v -0.065484 0.1052 -0.0036
v -0.0653061 0.105324 0.0036
v -0.0653061 0.105324 -0.0036
v -0.065484 0.1052 0.0036
v -0.0654123 0.104987 -0.0036
v -0.0653291 0.104969 -0.0036
v -0.0654973 0.104986 -0.0036
v -0.065252 0.104933 -0.0036
v -0.0651848 0.104881 -0.0036
v -0.0651309 0.104815 -0.0036
v -0.065093 0.104739 -0.0036
v -0.0654123 0.104987 0.0036
v -0.065252 0.104933 0.0036
v -0.0653291 0.104969 0.0036
v -0.065093 0.104739 0.0036
v -0.0651309 0.104815 0.0036
v -0.0651848 0.104881 0.0036
v -0.0654973 0.104986 0.0036
v -0.0614763 0.0936893 0.0036
v -0.0611192 0.0938193 0.0036
v -0.0614763 0.0936893 -0.0036
v -0.0611192 0.0938193 -0.0036
v -0.0612492 0.0941764 0.0036
v -0.0612492 0.0941764 -0.0036
v -0.0614001 0.0937272 -0.0036
v -0.0614001 0.0937272 0.0036
v -0.0613343 0.0937811 -0.0036
v -0.0613343 0.0937811 0.0036
v -0.061282 0.0938482 -0.0036
v -0.061282 0.0938482 0.0036
v -0.0612461 0.0939254 -0.0036
v -0.0612461 0.0939254 0.0036
v -0.0612282 0.0940086 -0.0036
v -0.0612282 0.0940086 0.0036
v -0.0612292 0.0940936 -0.0036
v -0.0612292 0.0940936 0.0036
v -0.0564152 0.119421 0.00213904
v -0.0587636 0.119421 0.00192868
v -0.0550587 0.119421 0.000210363
v -0.0560508 0.119421 -0.00192868
v -0.0583993 0.119421 -0.00213904
v -0.0597557 0.119421 -0.000210363
v -0.0557371 0.116921 0.0011747
v -0.0550588 0.116921 0.000210363
v -0.0564153 0.116921 0.00213904
v -0.0575895 0.116921 0.00203386
v -0.0587638 0.116921 0.00192868
v -0.0592598 0.116921 0.000859156
v -0.0597558 0.116921 -0.000210363
v -0.0590776 0.116921 -0.0011747
v -0.0583994 0.116921 -0.00213904
v -0.0572252 0.116921 -0.00203386
v -0.0560509 0.116921 -0.00192868
v -0.0555549 0.116921 -0.000859156
v -0.0582665 0.116921 -0.00185246
v -0.0577578 0.116921 -0.00201171
v -0.0587167 0.116921 -0.00156697
v -0.0581097 0.116921 0.0019174
v -0.058582 0.116921 0.00167028
v -0.0589743 0.116921 0.00130933
v -0.059419 0.116921 0.000350429
v -0.0594412 0.116921 -0.000182179
v -0.0593247 0.116921 -0.000702373
v -0.056705 0.116921 -0.0019174
v -0.0562326 0.116921 -0.00167028
v -0.0558404 0.116921 -0.00130933
v -0.0553956 0.116921 -0.000350429
v -0.0553735 0.116921 0.000182179
v -0.0554899 0.116921 0.000702373
v -0.056098 0.116921 0.00156697
v -0.0565482 0.116921 0.00185246
v -0.0570569 0.116921 0.00201171
v -0.0574074 0.115742 8.0856e-14
f 1 4 37
f 18 21 38
f 20 22 39
f 34 36 40
f 34 40 33
f 42 29 41
f 29 31 41
f 41 31 32
f 25 28 43
f 28 27 43
f 43 27 42
f 27 30 42
f 42 30 29
f 22 23 39
f 23 26 39
f 39 26 43
f 26 24 43
f 43 24 25
f 17 15 44
f 15 16 44
f 44 16 19
f 46 11 45
f 11 13 45
f 45 13 14
f 7 10 47
f 10 9 47
f 47 9 46
f 9 12 46
f 46 12 11
f 4 5 37
f 5 8 37
f 37 8 47
f 8 6 47
f 47 6 7
f 35 2 48
f 2 3 48
f 14 17 45
f 17 44 45
f 45 44 46
f 44 49 46
f 46 49 47
f 49 50 47
f 47 50 37
f 50 48 37
f 37 48 1
f 48 3 1
f 19 18 44
f 18 38 44
f 44 38 49
f 38 51 49
f 49 51 50
f 51 52 50
f 50 52 48
f 52 40 48
f 48 40 35
f 40 36 35
f 21 20 38
f 20 39 38
f 38 39 51
f 39 43 51
f 51 43 52
f 43 42 52
f 52 42 40
f 42 41 40
f 40 41 33
f 41 32 33
f 75 3 76
f 3 2 76
f 76 2 53
f 73 4 75
f 4 1 75
f 75 1 3
f 71 6 74
f 6 8 74
f 74 8 73
f 8 5 73
f 73 5 4
f 69 12 70
f 12 9 70
f 70 9 72
f 9 10 72
f 72 10 71
f 10 7 71
f 71 7 6
f 67 13 69
f 13 11 69
f 69 11 12
f 65 15 68
f 15 17 68
f 68 17 67
f 17 14 67
f 67 14 13
f 63 21 64
f 21 18 64
f 64 18 66
f 18 19 66
f 66 19 65
f 19 16 65
f 65 16 15
f 61 22 63
f 22 20 63
f 63 20 21
f 59 24 62
f 24 26 62
f 62 26 61
f 26 23 61
f 61 23 22
f 57 30 58
f 30 27 58
f 58 27 60
f 27 28 60
f 60 28 59
f 28 25 59
f 59 25 24
f 55 31 57
f 31 29 57
f 57 29 30
f 2 35 53
f 35 36 53
f 53 36 54
f 36 34 54
f 54 34 56
f 34 33 56
f 56 33 55
f 33 32 55
f 55 32 31
f 239 237 242
f 223 222 243
f 221 219 244
f 208 207 245
f 208 245 209
f 247 212 246
f 212 210 246
f 246 210 211
f 216 215 248
f 215 214 248
f 248 214 247
f 214 213 247
f 247 213 212
f 219 220 244
f 220 218 244
f 244 218 248
f 218 217 248
f 248 217 216
f 227 226 249
f 226 225 249
f 249 225 224
f 251 230 250
f 230 228 250
f 250 228 229
f 234 233 252
f 233 232 252
f 252 232 251
f 232 231 251
f 251 231 230
f 237 238 242
f 238 236 242
f 242 236 252
f 236 235 252
f 252 235 234
f 206 241 253
f 241 240 253
f 229 227 250
f 227 249 250
f 250 249 251
f 249 254 251
f 251 254 252
f 254 255 252
f 252 255 242
f 255 253 242
f 242 253 239
f 253 240 239
f 224 223 249
f 223 243 249
f 249 243 254
f 243 256 254
f 254 256 255
f 256 257 255
f 255 257 253
f 257 245 253
f 253 245 206
f 245 207 206
f 222 221 243
f 221 244 243
f 243 244 256
f 244 248 256
f 256 248 257
f 248 247 257
f 257 247 245
f 247 246 245
f 245 246 209
f 246 211 209
f 196 240 195
f 240 241 195
f 195 241 193
f 197 237 196
f 237 239 196
f 196 239 240
f 199 235 198
f 235 236 198
f 198 236 197
f 236 238 197
f 197 238 237
f 202 231 201
f 231 232 201
f 201 232 200
f 232 233 200
f 200 233 199
f 233 234 199
f 199 234 235
f 203 228 202
f 228 230 202
f 202 230 231
f 205 226 204
f 226 227 204
f 204 227 203
f 227 229 203
f 203 229 228
f 184 222 183
f 222 223 183
f 183 223 182
f 223 224 182
f 182 224 205
f 224 225 205
f 205 225 226
f 185 219 184
f 219 221 184
f 184 221 222
f 187 217 186
f 217 218 186
f 186 218 185
f 218 220 185
f 185 220 219
f 190 213 189
f 213 214 189
f 189 214 188
f 214 215 188
f 188 215 187
f 215 216 187
f 187 216 217
f 191 210 190
f 210 212 190
f 190 212 213
f 241 206 193
f 206 207 193
f 193 207 194
f 207 208 194
f 194 208 192
f 208 209 192
f 192 209 191
f 209 211 191
f 191 211 210
f 704 705 642
f 642 705 657
f 705 703 657
f 657 703 658
f 703 702 658
f 658 702 654
f 702 701 654
f 654 701 655
f 701 700 655
f 655 700 656
f 700 699 656
f 656 699 659
f 699 696 659
f 659 696 660
f 660 696 661
f 696 697 661
f 661 697 690
f 642 687 704
f 687 686 704
f 704 686 706
f 686 689 706
f 706 689 707
f 689 688 707
f 707 688 708
f 688 682 708
f 708 682 709
f 682 681 709
f 709 681 710
f 681 678 710
f 710 678 711
f 678 669 711
f 711 669 712
f 669 671 712
f 712 671 713
f 671 670 713
f 713 670 714
f 670 672 714
f 714 672 715
f 672 663 715
f 715 663 691
f 663 662 691
f 691 662 692
f 662 677 692
f 692 677 693
f 677 685 693
f 693 685 694
f 685 684 694
f 694 684 695
f 684 690 695
f 695 690 698
f 690 697 698
f 836 854 834
f 854 855 834
f 834 855 835
f 855 856 835
f 835 856 831
f 856 857 831
f 831 857 830
f 857 858 830
f 830 858 832
f 791 852 836
f 852 853 836
f 836 853 854
f 791 807 852
f 807 806 852
f 852 806 851
f 806 805 851
f 851 805 850
f 805 804 850
f 850 804 849
f 804 803 849
f 849 803 848
f 803 810 848
f 848 810 847
f 810 809 847
f 847 809 846
f 809 808 846
f 846 808 845
f 858 859 832
f 859 860 832
f 832 860 826
f 860 861 826
f 826 861 820
f 861 862 820
f 820 862 828
f 862 863 828
f 828 863 829
f 863 864 829
f 829 864 818
f 864 840 818
f 818 840 813
f 840 841 813
f 813 841 815
f 841 842 815
f 815 842 816
f 842 843 816
f 816 843 833
f 843 844 833
f 833 844 838
f 844 845 838
f 838 845 839
f 845 808 839
f 269 306 268
f 306 307 268
f 268 307 267
f 307 308 267
f 267 308 266
f 308 309 266
f 266 309 264
f 309 310 264
f 264 310 265
f 310 311 265
f 265 311 263
f 311 312 263
f 263 312 262
f 312 313 262
f 262 313 261
f 313 314 261
f 261 314 260
f 314 315 260
f 260 315 259
f 315 316 259
f 259 316 258
f 316 317 258
f 258 317 281
f 317 318 281
f 281 318 280
f 318 319 280
f 280 319 279
f 319 320 279
f 279 320 278
f 320 321 278
f 278 321 277
f 321 322 277
f 277 322 276
f 322 323 276
f 276 323 275
f 323 324 275
f 275 324 274
f 324 325 274
f 274 325 273
f 325 326 273
f 273 326 272
f 326 327 272
f 272 327 271
f 327 328 271
f 271 328 270
f 328 329 270
f 270 329 269
f 329 306 269
f 306 330 307
f 330 331 307
f 307 331 308
f 331 332 308
f 308 332 309
f 332 333 309
f 309 333 310
f 333 334 310
f 310 334 311
f 334 335 311
f 311 335 312
f 335 336 312
f 312 336 313
f 336 337 313
f 313 337 314
f 337 338 314
f 314 338 315
f 338 339 315
f 315 339 316
f 339 340 316
f 316 340 317
f 340 341 317
f 317 341 318
f 341 342 318
f 318 342 319
f 342 343 319
f 319 343 320
f 343 344 320
f 320 344 321
f 344 345 321
f 321 345 322
f 345 346 322
f 322 346 323
f 346 347 323
f 323 347 324
f 347 348 324
f 324 348 325
f 348 349 325
f 325 349 326
f 349 350 326
f 326 350 327
f 350 351 327
f 327 351 328
f 351 352 328
f 328 352 329
f 352 353 329
f 329 353 306
f 353 330 306
f 330 354 331
f 354 355 331
f 331 355 332
f 355 356 332
f 332 356 333
f 356 357 333
f 333 357 334
f 357 358 334
f 334 358 335
f 358 359 335
f 335 359 336
f 359 360 336
f 336 360 337
f 360 361 337
f 337 361 338
f 361 362 338
f 338 362 339
f 362 363 339
f 339 363 340
f 363 364 340
f 340 364 341
f 364 365 341
f 341 365 342
f 365 366 342
f 342 366 343
f 366 367 343
f 343 367 344
f 367 368 344
f 344 368 345
f 368 369 345
f 345 369 346
f 369 370 346
f 346 370 347
f 370 371 347
f 347 371 348
f 371 372 348
f 348 372 349
f 372 373 349
f 349 373 350
f 373 374 350
f 350 374 351
f 374 375 351
f 351 375 352
f 375 376 352
f 352 376 353
f 376 377 353
f 353 377 330
f 377 354 330
f 354 378 355
f 378 379 355
f 355 379 356
f 379 380 356
f 356 380 357
f 380 381 357
f 357 381 358
f 381 382 358
f 358 382 359
f 382 383 359
f 359 383 360
f 383 384 360
f 360 384 361
f 384 385 361
f 361 385 362
f 385 386 362
f 362 386 363
f 386 387 363
f 363 387 364
f 387 388 364
f 364 388 365
f 388 389 365
f 365 389 366
f 389 390 366
f 366 390 367
f 390 391 367
f 367 391 368
f 391 392 368
f 368 392 369
f 392 393 369
f 369 393 370
f 393 394 370
f 370 394 371
f 394 395 371
f 371 395 372
f 395 396 372
f 372 396 373
f 396 397 373
f 373 397 374
f 397 398 374
f 374 398 375
f 398 399 375
f 375 399 376
f 399 400 376
f 376 400 377
f 400 401 377
f 377 401 354
f 401 378 354
f 378 402 379
f 402 403 379
f 379 403 380
f 403 404 380
f 380 404 381
f 404 405 381
f 381 405 382
f 405 406 382
f 382 406 383
f 406 407 383
f 383 407 384
f 407 408 384
f 384 408 385
f 408 409 385
f 385 409 386
f 409 410 386
f 386 410 387
f 410 411 387
f 387 411 388
f 411 412 388
f 388 412 389
f 412 413 389
f 389 413 390
f 413 414 390
f 390 414 391
f 414 415 391
f 391 415 392
f 415 416 392
f 392 416 393
f 416 417 393
f 393 417 394
f 417 418 394
f 394 418 395
f 418 419 395
f 395 419 396
f 419 420 396
f 396 420 397
f 420 421 397
f 397 421 398
f 421 422 398
f 398 422 399
f 422 423 399
f 399 423 400
f 423 424 400
f 400 424 401
f 424 425 401
f 401 425 378
f 425 402 378
f 402 426 403
f 426 427 403
f 403 427 404
f 427 428 404
f 404 428 405
f 428 429 405
f 405 429 406
f 429 430 406
f 406 430 407
f 430 431 407
f 407 431 408
f 431 432 408
f 408 432 409
f 432 433 409
f 409 433 410
f 433 434 410
f 410 434 411
f 434 435 411
f 411 435 412
f 435 436 412
f 412 436 413
f 436 437 413
f 413 437 414
f 437 438 414
f 414 438 415
f 438 439 415
f 415 439 416
f 439 440 416
f 416 440 417
f 440 441 417
f 417 441 418
f 441 442 418
f 418 442 419
f 442 443 419
f 419 443 420
f 443 444 420
f 420 444 421
f 444 445 421
f 421 445 422
f 445 446 422
f 422 446 423
f 446 447 423
f 423 447 424
f 447 448 424
f 424 448 425
f 448 449 425
f 425 449 402
f 449 426 402
f 426 283 427
f 283 284 427
f 427 284 428
f 284 285 428
f 428 285 429
f 285 286 429
f 429 286 430
f 286 287 430
f 430 287 431
f 287 288 431
f 431 288 432
f 288 289 432
f 432 289 433
f 289 290 433
f 433 290 434
f 290 291 434
f 434 291 435
f 291 292 435
f 435 292 436
f 292 293 436
f 436 293 437
f 293 294 437
f 437 294 438
f 294 295 438
f 438 295 439
f 295 296 439
f 439 296 440
f 296 297 440
f 440 297 441
f 297 298 441
f 441 298 442
f 298 299 442
f 442 299 443
f 299 300 443
f 443 300 444
f 300 301 444
f 444 301 445
f 301 302 445
f 445 302 446
f 302 303 446
f 446 303 447
f 303 304 447
f 447 304 448
f 304 305 448
f 448 305 449
f 305 282 449
f 449 282 426
f 282 283 426
f 1041 1042 673
f 673 1042 674
f 1042 1040 674
f 674 1040 665
f 1040 1039 665
f 665 1039 666
f 1039 1038 666
f 666 1038 668
f 1038 1037 668
f 668 1037 664
f 1037 1036 664
f 664 1036 667
f 1036 1035 667
f 667 1035 675
f 1035 1034 675
f 675 1034 676
f 1034 1033 676
f 676 1033 679
f 1033 1031 679
f 679 1031 680
f 680 1031 683
f 1031 1032 683
f 683 1032 942
f 1032 1030 942
f 942 1030 947
f 1030 1029 947
f 947 1029 950
f 673 968 1041
f 968 965 1041
f 1041 965 1043
f 965 963 1043
f 1043 963 1044
f 963 962 1044
f 1044 962 1045
f 962 959 1045
f 1045 959 1046
f 959 958 1046
f 1046 958 1047
f 958 954 1047
f 1047 954 1024
f 954 944 1024
f 1024 944 1025
f 944 943 1025
f 1025 943 1026
f 943 956 1026
f 1026 956 1027
f 956 951 1027
f 1027 951 1028
f 951 950 1028
f 1028 950 1048
f 950 1029 1048
f 1066 819 1065
f 819 814 1065
f 1065 814 1064
f 814 827 1064
f 1064 827 1063
f 827 812 1063
f 1063 812 1062
f 812 811 1062
f 1062 811 1061
f 811 824 1061
f 1061 824 1060
f 824 817 1060
f 1060 817 1059
f 817 821 1059
f 1059 821 1058
f 821 823 1058
f 1058 823 1057
f 823 822 1057
f 1057 822 1056
f 822 1019 1056
f 1019 1018 1056
f 1056 1018 1055
f 1018 1021 1055
f 1055 1021 1054
f 1021 1020 1054
f 1054 1020 1053
f 1020 1017 1053
f 1053 1017 1052
f 1017 1013 1052
f 1052 1013 1051
f 1013 1012 1051
f 1051 1012 1050
f 1012 1016 1050
f 1050 1016 1049
f 1016 1011 1049
f 1049 1011 1072
f 1011 1010 1072
f 1072 1010 1071
f 1010 1015 1071
f 1071 1015 1070
f 1015 1014 1070
f 1070 1014 1069
f 1014 1023 1069
f 1069 1023 1068
f 1023 1022 1068
f 1068 1022 1067
f 1022 837 1067
f 1067 837 1066
f 837 825 1066
f 1066 825 819
f 996 995 994
f 996 994 1009
f 994 993 1009
f 1009 993 1008
f 993 992 1008
f 1008 992 1007
f 992 991 1007
f 1007 991 1006
f 991 990 1006
f 1006 990 1005
f 990 989 1005
f 1005 989 1004
f 989 988 1004
f 1004 988 1003
f 988 987 1003
f 1003 987 1002
f 987 986 1002
f 1002 986 1001
f 986 985 1001
f 1001 985 1000
f 985 984 1000
f 1000 984 999
f 984 983 999
f 999 983 998
f 983 982 998
f 998 982 997
f 995 940 970
f 995 970 994
f 970 971 994
f 994 971 993
f 971 972 993
f 993 972 992
f 972 973 992
f 992 973 991
f 973 974 991
f 991 974 990
f 974 975 990
f 990 975 989
f 975 976 989
f 989 976 988
f 976 977 988
f 988 977 987
f 977 978 987
f 987 978 986
f 978 979 986
f 986 979 985
f 979 980 985
f 985 980 984
f 980 981 984
f 984 981 983
f 981 969 983
f 983 969 982
f 808 822 839
f 822 838 839
f 791 836 140
f 836 834 140
f 140 834 835
f 835 831 140
f 831 830 140
f 140 830 141
f 828 827 820
f 827 814 820
f 837 180 825
f 180 819 825
f 823 816 822
f 816 833 822
f 822 833 838
f 830 832 141
f 832 826 141
f 141 826 172
f 826 820 172
f 172 820 174
f 820 814 174
f 174 814 176
f 823 821 816
f 821 817 816
f 816 817 815
f 819 180 814
f 180 178 814
f 814 178 176
f 817 824 815
f 824 811 815
f 815 811 813
f 811 812 813
f 813 812 818
f 812 827 818
f 818 827 829
f 827 828 829
f 1249 1245 1246
f 1249 1246 1251
f 1257 1246 1259
f 1246 1248 1259
f 1257 1255 1246
f 1255 1253 1246
f 1246 1253 1251
f 1260 1247 1244
f 1243 1250 1244
f 1250 1252 1244
f 1244 1252 1254
f 1254 1256 1244
f 1256 1258 1244
f 1244 1258 1260
f 1244 1247 1246
f 1247 1248 1246
f 969 171 982
f 171 1221 982
f 181 982 1222
f 982 1221 1222
f 1222 1221 1223
f 1221 1224 1223
f 1221 171 1228
f 171 164 1228
f 1228 164 1226
f 164 166 1226
f 1226 166 1227
f 181 1222 179
f 1222 1225 179
f 179 1225 177
f 1225 1227 177
f 1227 166 177
f 177 166 175
f 166 168 175
f 175 168 173
f 168 170 173
f 173 170 126
f 170 146 126
f 128 159 126
f 86 85 104
f 159 158 126
f 158 154 126
f 126 154 141
f 113 104 156
f 104 131 156
f 145 152 146
f 146 152 126
f 138 145 98
f 85 84 104
f 84 83 104
f 104 83 151
f 83 82 151
f 151 82 81
f 81 80 151
f 80 79 151
f 151 79 146
f 79 78 146
f 146 78 77
f 154 155 141
f 155 149 141
f 141 149 150
f 77 101 146
f 101 100 146
f 146 100 145
f 100 99 145
f 145 99 98
f 150 144 141
f 144 142 141
f 141 142 140
f 142 148 140
f 140 148 153
f 153 147 140
f 147 139 140
f 140 139 132
f 139 134 132
f 134 135 132
f 135 133 132
f 132 133 131
f 133 157 131
f 131 157 156
f 103 130 98
f 130 137 98
f 98 137 138
f 107 93 124
f 93 92 124
f 124 92 120
f 92 91 120
f 120 91 119
f 116 117 113
f 113 123 116
f 123 118 116
f 116 118 115
f 118 109 115
f 115 109 111
f 117 125 113
f 125 114 113
f 113 114 104
f 114 112 104
f 104 112 105
f 89 88 104
f 88 87 104
f 104 87 86
f 152 143 126
f 143 127 126
f 126 127 128
f 127 129 128
f 128 129 136
f 129 122 136
f 136 122 121
f 122 111 121
f 121 111 110
f 111 109 110
f 119 91 104
f 91 90 104
f 104 90 89
f 105 106 104
f 106 108 104
f 104 108 119
f 98 97 103
f 97 96 103
f 103 96 102
f 96 95 102
f 102 95 107
f 95 94 107
f 107 94 93
f 161 132 160
f 132 131 160
f 161 160 645
f 161 645 797
f 645 647 797
f 797 647 796
f 647 649 796
f 796 649 795
f 649 651 795
f 795 651 794
f 651 653 794
f 794 653 793
f 1244 653 940
f 653 1244 793
f 1244 1246 793
f 793 1246 995
f 1246 1245 995
f 995 1245 940
f 1245 1243 940
f 940 1243 1244
f 684 683 690
f 683 661 690
f 671 669 668
f 689 686 104
f 686 687 104
f 104 687 642
f 151 682 104
f 682 688 104
f 104 688 689
f 684 685 683
f 685 677 683
f 683 677 680
f 677 679 680
f 669 678 151
f 678 681 151
f 151 681 682
f 666 668 167
f 668 669 167
f 167 669 169
f 669 151 169
f 664 667 662
f 667 675 662
f 662 675 677
f 675 676 677
f 677 676 679
f 673 674 162
f 674 665 162
f 162 665 163
f 665 666 163
f 163 666 165
f 666 167 165
f 662 663 664
f 663 672 664
f 664 672 668
f 672 670 668
f 668 670 671
f 1230 1232 1227
f 1232 1233 1227
f 1233 1234 1227
f 1227 1234 1235
f 1222 1223 1225
f 1223 1231 1225
f 1225 1231 1227
f 1231 1229 1227
f 1227 1229 1230
f 1224 1221 1228
f 1239 1240 1226
f 1240 1241 1226
f 1226 1241 1237
f 1237 1238 1226
f 1238 1236 1226
f 1226 1236 1228
f 1236 1242 1228
f 1228 1242 1224
f 1239 1226 1235
f 1226 1227 1235
f 171 162 164
f 162 163 164
f 164 163 166
f 163 165 166
f 166 165 168
f 165 167 168
f 168 167 170
f 167 169 170
f 170 169 146
f 169 151 146
f 162 171 673
f 171 969 673
f 673 969 967
f 967 969 981
f 967 981 966
f 981 980 966
f 966 980 964
f 980 979 964
f 964 979 961
f 979 978 961
f 961 978 960
f 978 977 960
f 960 977 955
f 977 976 955
f 955 976 946
f 976 975 946
f 946 975 945
f 975 974 945
f 945 974 957
f 974 973 957
f 957 973 953
f 973 972 953
f 953 972 952
f 972 971 952
f 952 971 949
f 971 970 949
f 949 970 948
f 970 940 948
f 948 940 941
f 716 704 717
f 704 706 717
f 717 706 722
f 706 707 722
f 722 707 731
f 707 708 731
f 731 708 732
f 708 709 732
f 732 709 733
f 709 710 733
f 733 710 734
f 710 711 734
f 734 711 735
f 711 712 735
f 735 712 736
f 712 713 736
f 736 713 737
f 713 714 737
f 737 714 723
f 714 715 723
f 723 715 724
f 715 691 724
f 724 691 718
f 691 692 718
f 718 692 719
f 692 693 719
f 719 693 725
f 693 694 725
f 725 694 738
f 694 695 738
f 738 695 739
f 695 698 739
f 739 698 740
f 698 697 740
f 740 697 726
f 697 696 726
f 726 696 727
f 696 699 727
f 727 699 728
f 699 700 728
f 728 700 729
f 700 701 729
f 729 701 730
f 701 702 730
f 730 702 720
f 702 703 720
f 720 703 721
f 703 705 721
f 721 705 716
f 705 704 716
f 642 657 643
f 657 658 643
f 643 658 644
f 658 654 644
f 644 654 646
f 654 655 646
f 646 655 648
f 655 656 648
f 648 656 650
f 656 659 650
f 650 659 652
f 659 660 652
f 652 660 661
f 807 791 792
f 804 805 802
f 802 805 792
f 805 806 792
f 792 806 807
f 802 801 804
f 801 800 804
f 804 800 803
f 800 799 803
f 803 799 810
f 799 798 810
f 810 798 809
f 798 808 809
f 865 853 866
f 853 852 866
f 866 852 870
f 852 851 870
f 870 851 871
f 851 850 871
f 871 850 880
f 850 849 880
f 880 849 881
f 849 848 881
f 881 848 882
f 848 847 882
f 882 847 883
f 847 846 883
f 883 846 884
f 846 845 884
f 884 845 885
f 845 844 885
f 885 844 886
f 844 843 886
f 886 843 872
f 843 842 872
f 872 842 867
f 842 841 867
f 867 841 868
f 841 840 868
f 868 840 873
f 840 864 873
f 873 864 874
f 864 863 874
f 874 863 887
f 863 862 887
f 887 862 888
f 862 861 888
f 888 861 889
f 861 860 889
f 889 860 875
f 860 859 875
f 875 859 876
f 859 858 876
f 876 858 877
f 858 857 877
f 877 857 878
f 857 856 878
f 878 856 879
f 856 855 879
f 879 855 869
f 855 854 869
f 869 854 865
f 854 853 865
f 289 451 290
f 451 452 290
f 290 452 291
f 452 453 291
f 291 453 292
f 453 456 292
f 292 456 293
f 456 457 293
f 293 457 294
f 457 458 294
f 294 458 295
f 458 454 295
f 295 454 296
f 454 455 296
f 296 455 297
f 455 459 297
f 297 459 298
f 459 466 298
f 298 466 299
f 466 467 299
f 299 467 300
f 467 468 300
f 300 468 301
f 468 462 301
f 301 462 302
f 462 463 302
f 302 463 303
f 463 464 303
f 303 464 304
f 464 460 304
f 304 460 305
f 460 461 305
f 305 461 282
f 461 465 282
f 282 465 283
f 465 469 283
f 283 469 284
f 469 470 284
f 284 470 285
f 470 471 285
f 285 471 286
f 471 472 286
f 286 472 287
f 472 473 287
f 287 473 288
f 473 450 288
f 288 450 289
f 450 451 289
f 947 950 949
f 949 950 952
f 950 951 952
f 952 951 953
f 951 956 953
f 953 956 957
f 956 943 957
f 957 943 945
f 943 944 945
f 945 944 946
f 944 954 946
f 946 954 955
f 954 958 955
f 955 958 960
f 958 959 960
f 960 959 961
f 959 962 961
f 961 962 964
f 962 963 964
f 964 963 966
f 963 965 966
f 966 965 967
f 965 968 967
f 967 968 673
f 949 948 947
f 948 941 947
f 947 941 942
f 941 683 942
f 1035 1149 1034
f 1149 1163 1034
f 1034 1163 1033
f 1163 1162 1033
f 1033 1162 1031
f 1162 1161 1031
f 1031 1161 1032
f 1161 1171 1032
f 1032 1171 1030
f 1171 1170 1030
f 1030 1170 1029
f 1170 1169 1029
f 1029 1169 1048
f 1048 1169 1028
f 1169 1168 1028
f 1028 1168 1027
f 1168 1160 1027
f 1027 1160 1026
f 1160 1153 1026
f 1026 1153 1025
f 1153 1152 1025
f 1025 1152 1024
f 1152 1159 1024
f 1024 1159 1047
f 1159 1151 1047
f 1047 1151 1046
f 1151 1150 1046
f 1046 1150 1045
f 1150 1167 1045
f 1045 1167 1044
f 1167 1166 1044
f 1044 1166 1043
f 1166 1158 1043
f 1043 1158 1041
f 1158 1157 1041
f 1041 1157 1042
f 1157 1156 1042
f 1042 1156 1040
f 1156 1155 1040
f 1040 1155 1039
f 1155 1165 1039
f 1039 1165 1038
f 1165 1164 1038
f 1038 1164 1037
f 1164 1154 1037
f 1037 1154 1036
f 1154 1147 1036
f 1036 1147 1035
f 1147 1148 1035
f 1035 1148 1149
f 837 1022 997
f 1022 1023 997
f 997 1023 998
f 1023 1014 998
f 998 1014 999
f 999 1014 1000
f 1014 1015 1000
f 1000 1015 1001
f 1015 1010 1001
f 1001 1010 1002
f 1010 1011 1002
f 1002 1011 1003
f 1011 1016 1003
f 1003 1016 1004
f 1016 1012 1004
f 1004 1012 1005
f 1012 1013 1005
f 1005 1013 1006
f 1013 1017 1006
f 1006 1017 1007
f 1017 1020 1007
f 1007 1020 1008
f 1020 1021 1008
f 1008 1021 1009
f 1021 1018 1009
f 1009 1018 996
f 1018 1019 996
f 996 1019 822
f 1081 1082 1066
f 1082 1097 1066
f 1066 1097 1067
f 1097 1096 1067
f 1067 1096 1068
f 1096 1095 1068
f 1068 1095 1069
f 1095 1094 1069
f 1069 1094 1070
f 1094 1080 1070
f 1070 1080 1071
f 1080 1079 1071
f 1071 1079 1072
f 1079 1090 1072
f 1072 1090 1049
f 1090 1078 1049
f 1049 1078 1050
f 1078 1077 1050
f 1050 1077 1051
f 1077 1089 1051
f 1051 1089 1052
f 1089 1088 1052
f 1052 1088 1053
f 1088 1087 1053
f 1053 1087 1054
f 1087 1086 1054
f 1054 1086 1055
f 1086 1085 1055
f 1055 1085 1056
f 1085 1093 1056
f 1056 1093 1057
f 1093 1092 1057
f 1057 1092 1058
f 1092 1076 1058
f 1058 1076 1059
f 1076 1075 1059
f 1059 1075 1060
f 1075 1084 1060
f 1060 1084 1061
f 1084 1074 1061
f 1061 1074 1062
f 1074 1073 1062
f 1062 1073 1063
f 1073 1083 1063
f 1063 1083 1064
f 1083 1091 1064
f 1064 1091 1065
f 1091 1081 1065
f 1065 1081 1066
f 140 132 791
f 132 161 791
f 791 161 792
f 792 161 797
f 792 797 802
f 797 796 802
f 802 796 801
f 796 795 801
f 801 795 800
f 795 794 800
f 800 794 799
f 794 793 799
f 799 793 798
f 995 996 822
f 995 822 793
f 822 808 793
f 793 808 798
f 181 180 982
f 180 837 982
f 982 837 997
f 126 141 173
f 141 172 173
f 173 172 175
f 172 174 175
f 175 174 177
f 174 176 177
f 177 176 179
f 176 178 179
f 179 178 181
f 178 180 181
f 131 104 160
f 104 642 160
f 160 642 643
f 652 653 651
f 652 651 650
f 651 649 650
f 650 649 648
f 649 647 648
f 648 647 646
f 647 645 646
f 646 645 644
f 645 160 644
f 644 160 643
f 653 652 661
f 653 661 940
f 661 683 940
f 940 683 941
f 89 90 53
f 90 91 53
f 53 91 76
f 91 92 76
f 76 92 75
f 92 93 75
f 75 93 73
f 93 94 73
f 73 94 74
f 94 95 74
f 74 95 71
f 95 96 71
f 71 96 72
f 96 97 72
f 72 97 70
f 97 98 70
f 70 98 69
f 98 99 69
f 69 99 67
f 99 100 67
f 67 100 68
f 100 101 68
f 68 101 65
f 101 77 65
f 65 77 66
f 77 78 66
f 66 78 64
f 78 79 64
f 64 79 63
f 79 80 63
f 63 80 61
f 80 81 61
f 61 81 62
f 81 82 62
f 62 82 59
f 82 83 59
f 59 83 60
f 83 84 60
f 60 84 58
f 84 85 58
f 58 85 57
f 85 86 57
f 57 86 55
f 86 87 55
f 55 87 56
f 87 88 56
f 56 88 54
f 88 89 54
f 54 89 53
f 135 134 193
f 134 139 193
f 193 139 195
f 139 147 195
f 195 147 196
f 147 153 196
f 196 153 197
f 153 148 197
f 197 148 198
f 148 142 198
f 198 142 199
f 142 144 199
f 199 144 200
f 144 150 200
f 200 150 201
f 150 149 201
f 201 149 202
f 149 155 202
f 202 155 203
f 155 154 203
f 203 154 204
f 154 158 204
f 204 158 205
f 158 159 205
f 205 159 182
f 159 128 182
f 182 128 183
f 128 136 183
f 183 136 184
f 136 121 184
f 184 121 185
f 121 110 185
f 185 110 186
f 110 109 186
f 186 109 187
f 109 118 187
f 187 118 188
f 118 123 188
f 188 123 189
f 123 113 189
f 189 113 190
f 113 156 190
f 190 156 191
f 156 157 191
f 191 157 192
f 157 133 192
f 192 133 194
f 133 135 194
f 194 135 193
f 740 726 756
f 726 727 756
f 756 727 758
f 727 728 758
f 758 728 759
f 728 729 759
f 759 729 760
f 729 730 760
f 760 730 761
f 730 720 761
f 761 720 762
f 720 721 762
f 762 721 763
f 721 716 763
f 763 716 764
f 716 717 764
f 764 717 741
f 717 722 741
f 741 722 742
f 722 731 742
f 742 731 743
f 731 732 743
f 743 732 744
f 732 733 744
f 744 733 745
f 733 734 745
f 745 734 746
f 734 735 746
f 746 735 747
f 735 736 747
f 747 736 748
f 736 737 748
f 748 737 749
f 737 723 749
f 749 723 750
f 723 724 750
f 750 724 751
f 724 718 751
f 751 718 752
f 718 719 752
f 752 719 753
f 719 725 753
f 753 725 754
f 725 738 754
f 754 738 755
f 738 739 755
f 755 739 757
f 739 740 757
f 757 740 756
f 786 787 757
f 787 788 757
f 757 788 755
f 788 789 755
f 755 789 754
f 789 765 754
f 754 765 753
f 765 766 753
f 753 766 752
f 766 767 752
f 752 767 751
f 767 768 751
f 751 768 750
f 768 769 750
f 750 769 749
f 769 770 749
f 749 770 748
f 770 771 748
f 748 771 747
f 771 772 747
f 747 772 746
f 772 773 746
f 746 773 745
f 773 774 745
f 745 774 744
f 774 775 744
f 744 775 743
f 775 776 743
f 743 776 742
f 776 777 742
f 742 777 741
f 777 778 741
f 741 778 764
f 778 779 764
f 764 779 763
f 779 780 763
f 763 780 762
f 780 781 762
f 762 781 761
f 781 782 761
f 761 782 760
f 782 783 760
f 760 783 759
f 783 784 759
f 759 784 758
f 784 785 758
f 758 785 756
f 785 786 756
f 756 786 757
f 876 877 893
f 877 878 893
f 893 878 892
f 878 879 892
f 892 879 891
f 879 869 891
f 891 869 890
f 869 865 890
f 890 865 913
f 865 866 913
f 913 866 912
f 866 870 912
f 912 870 911
f 870 871 911
f 911 871 910
f 871 880 910
f 910 880 909
f 880 881 909
f 909 881 908
f 881 882 908
f 908 882 907
f 882 883 907
f 907 883 906
f 883 884 906
f 906 884 905
f 884 885 905
f 905 885 904
f 885 886 904
f 904 886 903
f 886 872 903
f 903 872 902
f 872 867 902
f 902 867 901
f 867 868 901
f 901 868 900
f 868 873 900
f 900 873 899
f 873 874 899
f 899 874 898
f 874 887 898
f 898 887 897
f 887 888 897
f 897 888 896
f 888 889 896
f 896 889 895
f 889 875 895
f 895 875 894
f 875 876 894
f 894 876 893
f 923 924 900
f 924 925 900
f 925 926 900
f 900 926 901
f 926 927 901
f 901 927 902
f 927 928 902
f 902 928 903
f 928 929 903
f 903 929 904
f 929 930 904
f 904 930 905
f 930 931 905
f 905 931 906
f 931 932 906
f 906 932 907
f 932 933 907
f 907 933 908
f 933 934 908
f 908 934 909
f 934 935 909
f 909 935 910
f 935 936 910
f 910 936 911
f 936 937 911
f 911 937 912
f 937 938 912
f 912 938 913
f 938 914 913
f 913 914 890
f 914 915 890
f 890 915 891
f 915 916 891
f 891 916 892
f 916 917 892
f 892 917 893
f 917 918 893
f 893 918 894
f 918 919 894
f 894 919 895
f 919 920 895
f 895 920 896
f 920 921 896
f 896 921 897
f 921 922 897
f 897 922 898
f 922 923 898
f 898 923 899
f 923 900 899
f 1297 1296 1295
f 1270 1296 1297
f 1297 1267 1293
f 1294 1267 1297
f 1295 1294 1297
f 1297 1291 1278
f 1292 1291 1297
f 1293 1292 1297
f 1297 1289 1288
f 1290 1289 1297
f 1278 1290 1297
f 1297 1280 1279
f 1276 1280 1297
f 1288 1276 1297
f 1297 1274 1287
f 1281 1274 1297
f 1279 1281 1297
f 1297 1285 1272
f 1286 1285 1297
f 1287 1286 1297
f 1297 1283 1282
f 1284 1283 1297
f 1272 1284 1297
f 1282 1270 1297
f 498 522 499
f 522 523 499
f 499 523 500
f 523 524 500
f 500 524 501
f 524 525 501
f 501 525 502
f 525 526 502
f 502 526 503
f 526 527 503
f 503 527 504
f 527 528 504
f 504 528 505
f 528 529 505
f 505 529 506
f 529 530 506
f 506 530 507
f 530 531 507
f 507 531 508
f 531 532 508
f 508 532 509
f 532 533 509
f 509 533 510
f 533 534 510
f 510 534 511
f 534 535 511
f 511 535 512
f 535 536 512
f 512 536 513
f 536 537 513
f 513 537 514
f 537 538 514
f 514 538 515
f 538 539 515
f 515 539 516
f 539 540 516
f 516 540 517
f 540 541 517
f 517 541 518
f 541 542 518
f 518 542 519
f 542 543 519
f 519 543 520
f 543 544 520
f 520 544 521
f 544 545 521
f 521 545 498
f 545 522 498
f 545 546 522
f 546 547 522
f 522 547 523
f 547 548 523
f 523 548 524
f 548 549 524
f 524 549 525
f 549 550 525
f 525 550 526
f 550 551 526
f 526 551 527
f 551 552 527
f 527 552 528
f 552 553 528
f 528 553 529
f 553 554 529
f 529 554 530
f 554 555 530
f 530 555 531
f 555 556 531
f 531 556 532
f 556 557 532
f 532 557 533
f 557 558 533
f 533 558 534
f 558 559 534
f 534 559 535
f 559 560 535
f 535 560 536
f 560 561 536
f 536 561 537
f 561 562 537
f 537 562 538
f 562 563 538
f 538 563 539
f 563 564 539
f 539 564 540
f 564 565 540
f 540 565 541
f 565 566 541
f 541 566 542
f 566 567 542
f 542 567 543
f 567 568 543
f 543 568 544
f 568 569 544
f 544 569 545
f 569 546 545
f 569 570 546
f 570 571 546
f 546 571 547
f 571 572 547
f 547 572 548
f 572 573 548
f 548 573 549
f 573 574 549
f 549 574 550
f 574 575 550
f 550 575 551
f 575 576 551
f 551 576 552
f 576 577 552
f 552 577 553
f 577 578 553
f 553 578 554
f 578 579 554
f 554 579 555
f 579 580 555
f 555 580 556
f 580 581 556
f 556 581 557
f 581 582 557
f 557 582 558
f 582 583 558
f 558 583 559
f 583 584 559
f 559 584 560
f 584 585 560
f 560 585 561
f 585 586 561
f 561 586 562
f 586 587 562
f 562 587 563
f 587 588 563
f 563 588 564
f 588 589 564
f 564 589 565
f 589 590 565
f 565 590 566
f 590 591 566
f 566 591 567
f 591 592 567
f 567 592 568
f 592 593 568
f 568 593 569
f 593 570 569
f 593 594 570
f 594 595 570
f 570 595 571
f 595 596 571
f 571 596 572
f 596 597 572
f 572 597 573
f 597 598 573
f 573 598 574
f 598 599 574
f 574 599 575
f 599 600 575
f 575 600 576
f 600 601 576
f 576 601 577
f 601 602 577
f 577 602 578
f 602 603 578
f 578 603 579
f 603 604 579
f 579 604 580
f 604 605 580
f 580 605 581
f 605 606 581
f 581 606 582
f 606 607 582
f 582 607 583
f 607 608 583
f 583 608 584
f 608 609 584
f 584 609 585
f 609 610 585
f 585 610 586
f 610 611 586
f 586 611 587
f 611 612 587
f 587 612 588
f 612 613 588
f 588 613 589
f 613 614 589
f 589 614 590
f 614 615 590
f 590 615 591
f 615 616 591
f 591 616 592
f 616 617 592
f 592 617 593
f 617 594 593
f 617 618 594
f 618 619 594
f 594 619 595
f 619 620 595
f 595 620 596
f 620 621 596
f 596 621 597
f 621 622 597
f 597 622 598
f 622 623 598
f 598 623 599
f 623 624 599
f 599 624 600
f 624 625 600
f 600 625 601
f 625 626 601
f 601 626 602
f 626 627 602
f 602 627 603
f 627 628 603
f 603 628 604
f 628 629 604
f 604 629 605
f 629 630 605
f 605 630 606
f 630 631 606
f 606 631 607
f 631 632 607
f 607 632 608
f 632 633 608
f 608 633 609
f 633 634 609
f 609 634 610
f 634 635 610
f 610 635 611
f 635 636 611
f 611 636 612
f 636 637 612
f 612 637 613
f 637 638 613
f 613 638 614
f 638 639 614
f 614 639 615
f 639 640 615
f 615 640 616
f 640 641 616
f 616 641 617
f 641 618 617
f 641 475 618
f 475 476 618
f 618 476 619
f 476 477 619
f 619 477 620
f 477 478 620
f 620 478 621
f 478 479 621
f 621 479 622
f 479 480 622
f 622 480 623
f 480 481 623
f 623 481 624
f 481 482 624
f 624 482 625
f 482 483 625
f 625 483 626
f 483 484 626
f 626 484 627
f 484 485 627
f 627 485 628
f 485 486 628
f 628 486 629
f 486 487 629
f 629 487 630
f 487 488 630
f 630 488 631
f 488 489 631
f 631 489 632
f 489 490 632
f 632 490 633
f 490 491 633
f 633 491 634
f 491 492 634
f 634 492 635
f 492 493 635
f 635 493 636
f 493 494 636
f 636 494 637
f 494 495 637
f 637 495 638
f 495 496 638
f 638 496 639
f 496 497 639
f 639 497 640
f 497 474 640
f 640 474 641
f 474 475 641
f 474 457 475
f 457 456 475
f 475 456 476
f 456 453 476
f 476 453 477
f 453 452 477
f 477 452 478
f 452 451 478
f 478 451 479
f 451 450 479
f 479 450 480
f 450 473 480
f 480 473 481
f 473 472 481
f 481 472 482
f 472 471 482
f 482 471 483
f 471 470 483
f 483 470 484
f 470 469 484
f 484 469 485
f 469 465 485
f 485 465 486
f 465 461 486
f 486 461 487
f 461 460 487
f 487 460 488
f 460 464 488
f 488 464 489
f 464 463 489
f 489 463 490
f 463 462 490
f 490 462 491
f 462 468 491
f 491 468 492
f 468 467 492
f 492 467 493
f 467 466 493
f 493 466 494
f 466 459 494
f 494 459 495
f 459 455 495
f 495 455 496
f 455 454 496
f 496 454 497
f 454 458 497
f 497 458 474
f 458 457 474
f 1148 1147 1174
f 1147 1154 1174
f 1174 1154 1173
f 1154 1164 1173
f 1173 1164 1172
f 1164 1165 1172
f 1172 1165 1195
f 1165 1155 1195
f 1195 1155 1194
f 1155 1156 1194
f 1194 1156 1193
f 1156 1157 1193
f 1193 1157 1192
f 1157 1158 1192
f 1192 1158 1191
f 1158 1166 1191
f 1191 1166 1190
f 1166 1167 1190
f 1190 1167 1189
f 1167 1150 1189
f 1189 1150 1188
f 1150 1151 1188
f 1188 1151 1187
f 1151 1159 1187
f 1187 1159 1186
f 1159 1152 1186
f 1186 1152 1185
f 1152 1153 1185
f 1185 1153 1184
f 1153 1160 1184
f 1184 1160 1183
f 1160 1168 1183
f 1183 1168 1182
f 1168 1169 1182
f 1182 1169 1181
f 1169 1170 1181
f 1181 1170 1180
f 1170 1171 1180
f 1180 1171 1179
f 1171 1161 1179
f 1179 1161 1178
f 1161 1162 1178
f 1178 1162 1177
f 1162 1163 1177
f 1177 1163 1176
f 1163 1149 1176
f 1176 1149 1175
f 1149 1148 1175
f 1175 1148 1174
f 1172 1197 1173
f 1197 1198 1173
f 1173 1198 1174
f 1198 1199 1174
f 1174 1199 1175
f 1199 1200 1175
f 1175 1200 1176
f 1200 1201 1176
f 1176 1201 1177
f 1201 1202 1177
f 1177 1202 1178
f 1202 1203 1178
f 1178 1203 1179
f 1203 1204 1179
f 1179 1204 1180
f 1204 1205 1180
f 1180 1205 1181
f 1205 1206 1181
f 1181 1206 1182
f 1206 1207 1182
f 1182 1207 1183
f 1207 1208 1183
f 1183 1208 1184
f 1208 1209 1184
f 1184 1209 1185
f 1209 1210 1185
f 1185 1210 1186
f 1210 1211 1186
f 1186 1211 1187
f 1211 1212 1187
f 1187 1212 1188
f 1212 1213 1188
f 1188 1213 1189
f 1213 1214 1189
f 1189 1214 1190
f 1214 1215 1190
f 1190 1215 1191
f 1215 1216 1191
f 1191 1216 1192
f 1216 1217 1192
f 1192 1217 1193
f 1217 1218 1193
f 1193 1218 1194
f 1218 1219 1194
f 1194 1219 1195
f 1219 1196 1195
f 1195 1196 1172
f 1196 1197 1172
f 1110 1123 1109
f 1123 1124 1109
f 1109 1124 1108
f 1124 1125 1108
f 1108 1125 1107
f 1125 1126 1107
f 1107 1126 1106
f 1126 1127 1106
f 1106 1127 1105
f 1127 1128 1105
f 1105 1128 1104
f 1128 1129 1104
f 1104 1129 1103
f 1129 1130 1103
f 1103 1130 1102
f 1130 1131 1102
f 1102 1131 1101
f 1131 1132 1101
f 1101 1132 1100
f 1132 1133 1100
f 1100 1133 1099
f 1133 1134 1099
f 1099 1134 1098
f 1134 1135 1098
f 1098 1135 1121
f 1135 1136 1121
f 1121 1136 1120
f 1136 1137 1120
f 1120 1137 1118
f 1137 1138 1118
f 1118 1138 1119
f 1138 1139 1119
f 1119 1139 1117
f 1139 1140 1117
f 1117 1140 1116
f 1140 1141 1116
f 1116 1141 1115
f 1141 1142 1115
f 1115 1142 1114
f 1142 1143 1114
f 1114 1143 1113
f 1143 1144 1113
f 1113 1144 1112
f 1144 1145 1112
f 1112 1145 1111
f 1145 1122 1111
f 1111 1122 1110
f 1122 1123 1110
f 1097 1082 1118
f 1082 1081 1118
f 1118 1081 1120
f 1081 1091 1120
f 1120 1091 1121
f 1091 1083 1121
f 1121 1083 1098
f 1083 1073 1098
f 1098 1073 1099
f 1073 1074 1099
f 1099 1074 1100
f 1074 1084 1100
f 1100 1084 1101
f 1084 1075 1101
f 1101 1075 1102
f 1075 1076 1102
f 1102 1076 1103
f 1076 1092 1103
f 1103 1092 1104
f 1092 1093 1104
f 1104 1093 1105
f 1093 1085 1105
f 1105 1085 1106
f 1085 1086 1106
f 1106 1086 1107
f 1086 1087 1107
f 1107 1087 1108
f 1087 1088 1108
f 1108 1088 1109
f 1088 1089 1109
f 1109 1089 1110
f 1089 1077 1110
f 1110 1077 1111
f 1077 1078 1111
f 1111 1078 1112
f 1078 1090 1112
f 1112 1090 1113
f 1090 1079 1113
f 1113 1079 1114
f 1079 1080 1114
f 1114 1080 1115
f 1080 1094 1115
f 1115 1094 1116
f 1094 1095 1116
f 1116 1095 1117
f 1095 1096 1117
f 1117 1096 1119
f 1096 1097 1119
f 1119 1097 1118
f 1273 1266 1272
f 1266 1262 1272
f 1272 1262 1271
f 1275 1265 1274
f 1265 1266 1274
f 1274 1266 1273
f 1277 1264 1276
f 1264 1265 1276
f 1276 1265 1275
f 1268 1263 1278
f 1263 1264 1278
f 1278 1264 1277
f 1275 1274 1281
f 1281 1279 1275
f 1279 1280 1275
f 1275 1280 1276
f 1273 1272 1285
f 1285 1286 1273
f 1286 1287 1273
f 1273 1287 1274
f 1284 1272 1271
f 1270 1282 1271
f 1282 1283 1271
f 1271 1283 1284
f 1269 1267 1294
f 1294 1295 1269
f 1295 1296 1269
f 1269 1296 1270
f 1268 1278 1291
f 1291 1292 1268
f 1292 1293 1268
f 1268 1293 1267
f 1290 1278 1277
f 1276 1288 1277
f 1288 1289 1277
f 1277 1289 1290
f 787 786 790
f 765 789 790
f 789 788 790
f 790 788 787
f 768 767 790
f 767 766 790
f 790 766 765
f 771 770 790
f 770 769 790
f 790 769 768
f 774 773 790
f 773 772 790
f 790 772 771
f 777 776 790
f 776 775 790
f 790 775 774
f 780 779 790
f 779 778 790
f 790 778 777
f 783 782 790
f 782 781 790
f 790 781 780
f 786 785 790
f 785 784 790
f 790 784 783
f 925 924 939
f 928 927 939
f 927 926 939
f 939 926 925
f 931 930 939
f 930 929 939
f 939 929 928
f 934 933 939
f 933 932 939
f 939 932 931
f 937 936 939
f 936 935 939
f 939 935 934
f 915 914 939
f 914 938 939
f 939 938 937
f 918 917 939
f 917 916 939
f 939 916 915
f 921 920 939
f 920 919 939
f 939 919 918
f 924 923 939
f 923 922 939
f 939 922 921
f 1271 1262 1270
f 1262 1261 1270
f 1270 1261 1269
f 1269 1261 1267
f 1261 1263 1267
f 1267 1263 1268
f 499 500 1261
f 515 516 1266
f 516 517 1266
f 1264 508 509
f 515 1266 514
f 1266 1265 514
f 514 1265 513
f 517 518 1266
f 518 519 1266
f 1266 519 1262
f 509 510 1264
f 510 511 1264
f 1264 511 1265
f 511 512 1265
f 1265 512 513
f 504 505 1263
f 505 506 1263
f 1263 506 1264
f 506 507 1264
f 1264 507 508
f 500 501 1261
f 501 502 1261
f 1261 502 1263
f 502 503 1263
f 1263 503 504
f 519 520 1262
f 520 521 1262
f 1262 521 1261
f 521 498 1261
f 1261 498 499
f 1211 1210 1220
f 1210 1209 1220
f 1220 1209 1208
f 1214 1213 1220
f 1213 1212 1220
f 1220 1212 1211
f 1217 1216 1220
f 1216 1215 1220
f 1220 1215 1214
f 1196 1219 1220
f 1219 1218 1220
f 1220 1218 1217
f 1199 1198 1220
f 1198 1197 1220
f 1220 1197 1196
f 1202 1201 1220
f 1201 1200 1220
f 1220 1200 1199
f 1205 1204 1220
f 1204 1203 1220
f 1220 1203 1202
f 1208 1207 1220
f 1207 1206 1220
f 1220 1206 1205
f 1137 1136 1146
f 1136 1135 1146
f 1146 1135 1134
f 1140 1139 1146
f 1139 1138 1146
f 1146 1138 1137
f 1143 1142 1146
f 1142 1141 1146
f 1146 1141 1140
f 1122 1145 1146
f 1145 1144 1146
f 1146 1144 1143
f 1125 1124 1146
f 1124 1123 1146
f 1146 1123 1122
f 1128 1127 1146
f 1127 1126 1146
f 1146 1126 1125
f 1131 1130 1146
f 1130 1129 1146
f 1146 1129 1128
f 1134 1133 1146
f 1133 1132 1146
f 1146 1132 1131
f 106 105 264
f 105 112 264
f 264 112 266
f 112 114 266
f 266 114 267
f 114 125 267
f 267 125 268
f 125 117 268
f 268 117 269
f 117 116 269
f 269 116 270
f 116 115 270
f 270 115 271
f 115 111 271
f 271 111 272
f 111 122 272
f 272 122 273
f 122 129 273
f 273 129 274
f 129 127 274
f 274 127 275
f 127 143 275
f 275 143 276
f 143 152 276
f 276 152 277
f 152 145 277
f 277 145 278
f 145 138 278
f 278 138 279
f 138 137 279
f 279 137 280
f 137 130 280
f 280 130 281
f 130 103 281
f 281 103 258
f 103 102 258
f 258 102 259
f 102 107 259
f 259 107 260
f 107 124 260
f 260 124 261
f 124 120 261
f 261 120 262
f 120 119 262
f 262 119 263
f 119 108 263
f 263 108 265
f 108 106 265
f 265 106 264
f 1223 1224 1242
f 1223 1242 1231
f 1242 1236 1231
f 1231 1236 1229
f 1236 1238 1229
f 1229 1238 1230
f 1238 1237 1230
f 1230 1237 1232
f 1237 1241 1232
f 1232 1241 1233
f 1241 1240 1233
f 1233 1240 1234
f 1240 1239 1234
f 1234 1239 1235
f 1248 1247 1260
f 1248 1260 1259
f 1260 1258 1259
f 1259 1258 1257
f 1258 1256 1257
f 1257 1256 1255
f 1256 1254 1255
f 1255 1254 1253
f 1254 1252 1253
f 1253 1252 1251
f 1252 1250 1251
f 1251 1250 1249
f 1250 1243 1249
f 1249 1243 1245
