v -0.0343503 0.0548255 0.00825
v -0.0342021 0.0538579 0.00825
v -0.0338085 0.0529615 0.00825
v -0.0331964 0.0521976 0.00825
v -0.0324073 0.0516182 0.00825
v -0.0314952 0.0512627 0.00825
v -0.0305222 0.0511553 0.00825
v -0.0295545 0.0513035 0.00825
v -0.0286582 0.0516971 0.00825
v -0.0278942 0.0523093 0.00825
v -0.0273148 0.0530983 0.00825
v -0.0269593 0.0540105 0.00825
v -0.026852 0.0549835 0.00825
v -0.0270002 0.0559512 0.00825
v -0.0273938 0.0568475 0.00825
v -0.0280059 0.0576114 0.00825
v -0.028795 0.0581909 0.00825
v -0.0297071 0.0585464 0.00825
v -0.0306801 0.0586537 0.00825
v -0.0316478 0.0585055 0.00825
v -0.0325441 0.0581119 0.00825
v -0.0333081 0.0574997 0.00825
v -0.0338875 0.0567107 0.00825
v -0.034243 0.0557986 0.00825
v -0.0306011 0.0549045 0.00825
v -0.0346003 0.0548203 0.008
v -0.0344858 0.0558582 0.008
v -0.0341066 0.0568311 0.008
v -0.0334885 0.0576727 0.008
v -0.0326737 0.0583257 0.008
v -0.0317176 0.0587456 0.008
v -0.0306854 0.0589036 0.008
v -0.0296475 0.0587892 0.008
v -0.0286745 0.05841 0.008
v -0.0278329 0.0577919 0.008
v -0.0271799 0.056977 0.008
v -0.0267601 0.0560209 0.008
v -0.026602 0.0549888 0.008
v -0.0267165 0.0539508 0.008
v -0.0270957 0.0529779 0.008
v -0.0277138 0.0521363 0.008
v -0.0285286 0.0514833 0.008
v -0.0294847 0.0510635 0.008
v -0.0305169 0.0509054 0.008
v -0.0315548 0.0510199 0.008
v -0.0325277 0.0513991 0.008
v -0.0333694 0.0520171 0.008
v -0.0340224 0.052832 0.008
v -0.0344422 0.0537881 0.008
v -0.026602 0.0549888 0.0048
v -0.0267601 0.0560209 0.0048
v -0.0271799 0.056977 0.0048
v -0.0278329 0.0577919 0.0048
v -0.0286745 0.05841 0.0048
v -0.0296475 0.0587892 0.0048
v -0.0306854 0.0589036 0.0048
v -0.0317176 0.0587456 0.0048
v -0.0326737 0.0583257 0.0048
v -0.0334885 0.0576727 0.0048
v -0.0341066 0.0568311 0.0048
v -0.0344858 0.0558582 0.0048
v -0.0346003 0.0548203 0.0048
v -0.0344422 0.0537881 0.0048
v -0.0340224 0.052832 0.0048
v -0.0333694 0.0520171 0.0048
v -0.0325277 0.0513991 0.0048
v -0.0315548 0.0510199 0.0048
v -0.0305169 0.0509054 0.0048
v -0.0294847 0.0510635 0.0048
v -0.0285286 0.0514833 0.0048
v -0.0277138 0.0521363 0.0048
v -0.0270957 0.0529779 0.0048
v -0.0267165 0.0539508 0.0048
v -0.0263021 0.0549951 0.0045
v -0.026472 0.0561047 0.0045
v -0.0269233 0.0571325 0.0045
v -0.0276253 0.0580084 0.0045
v -0.0285301 0.0586729 0.0045
v -0.0295759 0.0590805 0.0045
v -0.0306917 0.0592036 0.0045
v -0.0318013 0.0590336 0.0045
v -0.0328291 0.0585823 0.0045
v -0.0337051 0.0578804 0.0045
v -0.0343695 0.0569756 0.0045
v -0.0347771 0.0559297 0.0045
v -0.0349002 0.054814 0.0045
v -0.0347303 0.0537044 0.0045
v -0.0342789 0.0526766 0.0045
v -0.033577 0.0518006 0.0045
v -0.0326722 0.0511362 0.0045
v -0.0316263 0.0507285 0.0045
v -0.0305106 0.0506055 0.0045
v -0.029401 0.0507754 0.0045
v -0.0283732 0.0512267 0.0045
v -0.0274972 0.0519287 0.0045
v -0.0268328 0.0528334 0.0045
v -0.0264251 0.0538793 0.0045
v -0.0267503 0.0560238 0.00472235
v -0.0271712 0.0569823 0.00472235
v -0.0278258 0.0577993 0.00472235
v -0.0286696 0.0584189 0.00472235
v -0.029645 0.0587991 0.00472235
v -0.0306856 0.0589138 0.00472235
v -0.0317204 0.0587554 0.00472235
v -0.032679 0.0583345 0.00472235
v -0.0334959 0.0576798 0.00472235
v -0.0341156 0.056836 0.00472235
v -0.0344957 0.0558606 0.00472235
v -0.0346105 0.0548201 0.00472235
v -0.034452 0.0537852 0.00472235
v -0.0340311 0.0528267 0.00472235
v -0.0333764 0.0520098 0.00472235
v -0.0325327 0.0513901 0.00472235
v -0.0315573 0.0510099 0.00472235
v -0.0305167 0.0508952 0.00472235
v -0.0294819 0.0510537 0.00472235
v -0.0285233 0.0514746 0.00472235
v -0.0277064 0.0521292 0.00472235
v -0.0270867 0.052973 0.00472235
v -0.0267066 0.0539484 0.00472235
v -0.0265918 0.054989 0.00472235
v -0.0267215 0.0560322 0.00465
v -0.0271456 0.0569979 0.00465
v -0.0278051 0.0578209 0.00465
v -0.0286552 0.0584452 0.00465
v -0.0296379 0.0588282 0.00465
v -0.0306862 0.0589438 0.00465
v -0.0317288 0.0587842 0.00465
v -0.0326945 0.0583601 0.00465
v -0.0335175 0.0577006 0.00465
v -0.0341418 0.0568505 0.00465
v -0.0345248 0.0558678 0.00465
v -0.0346404 0.0548194 0.00465
v -0.0344808 0.0537769 0.00465
v -0.0340567 0.0528112 0.00465
v -0.0333972 0.0519881 0.00465
v -0.0325471 0.0513638 0.00465
v -0.0315644 0.0509808 0.00465
v -0.030516 0.0508652 0.00465
v -0.0294735 0.0510249 0.00465
v -0.0285078 0.0514489 0.00465
v -0.0276848 0.0521085 0.00465
v -0.0270605 0.0529586 0.00465
v -0.0266775 0.0539413 0.00465
v -0.0265618 0.0549896 0.00465
v -0.0266757 0.0560455 0.00458787
v -0.0271048 0.0570226 0.00458787
v -0.0277721 0.0578553 0.00458787
v -0.0286322 0.058487 0.00458787
v -0.0296265 0.0588745 0.00458787
v -0.0306872 0.0589915 0.00458787
v -0.0317421 0.0588299 0.00458787
v -0.0327192 0.0584009 0.00458787
v -0.0335519 0.0577336 0.00458787
v -0.0341836 0.0568734 0.00458787
v -0.0345711 0.0558791 0.00458787
v -0.0346881 0.0548184 0.00458787
v -0.0345266 0.0537636 0.00458787
v -0.0340975 0.0527865 0.00458787
v -0.0334302 0.0519537 0.00458787
v -0.0325701 0.0513221 0.00458787
v -0.0315758 0.0509345 0.00458787
v -0.030515 0.0508176 0.00458787
v -0.0294602 0.0509791 0.00458787
v -0.0284831 0.0514082 0.00458787
v -0.0276503 0.0520755 0.00458787
v -0.0270187 0.0529356 0.00458787
v -0.0266312 0.0539299 0.00458787
v -0.0265142 0.0549906 0.00458787
v -0.0266161 0.0560628 0.00454019
v -0.0270516 0.0570548 0.00454019
v -0.0277291 0.0579002 0.00454019
v -0.0286023 0.0585414 0.00454019
v -0.0296117 0.0589348 0.00454019
v -0.0306886 0.0590536 0.00454019
v -0.0317594 0.0588896 0.00454019
v -0.0327514 0.058454 0.00454019
v -0.0335968 0.0577766 0.00454019
v -0.0342381 0.0569034 0.00454019
v -0.0346315 0.0558939 0.00454019
v -0.0347502 0.0548171 0.00454019
v -0.0345862 0.0537462 0.00454019
v -0.0341506 0.0527543 0.00454019
v -0.0334732 0.0519089 0.00454019
v -0.0326 0.0512676 0.00454019
v -0.0315906 0.0508742 0.00454019
v -0.0305137 0.0507554 0.00454019
v -0.0294429 0.0509194 0.00454019
v -0.0284509 0.051355 0.00454019
v -0.0276055 0.0520325 0.00454019
v -0.0269642 0.0529057 0.00454019
v -0.0265708 0.0539151 0.00454019
v -0.0264521 0.0549919 0.00454019
v -0.0265466 0.056083 0.00451022
v -0.0269898 0.0570922 0.00451022
v -0.027679 0.0579524 0.00451022
v -0.0285675 0.0586048 0.00451022
v -0.0295945 0.0590051 0.00451022
v -0.0306901 0.0591259 0.00451022
v -0.0317796 0.0589591 0.00451022
v -0.0327889 0.0585159 0.00451022
v -0.033649 0.0578266 0.00451022
v -0.0343015 0.0569382 0.00451022
v -0.0347017 0.0559112 0.00451022
v -0.0348226 0.0548156 0.00451022
v -0.0346557 0.053726 0.00451022
v -0.0342125 0.0527168 0.00451022
v -0.0335233 0.0518566 0.00451022
v -0.0326348 0.0512042 0.00451022
v -0.0316078 0.0508039 0.00451022
v -0.0305122 0.0506831 0.00451022
v -0.0294227 0.05085 0.00451022
v -0.0284134 0.0512931 0.00451022
v -0.0275533 0.0519824 0.00451022
v -0.0269008 0.0528708 0.00451022
v -0.0265006 0.0538978 0.00451022
v -0.0263797 0.0549934 0.00451022
v -0.0272288 0.0617153 0.0045
v -0.0290563 0.0623458 0.0045
v -0.0366802 0.0596514 0.0045
v -0.0373152 0.0593214 0.0045
v -0.0361345 0.0601143 0.0045
v -0.0230325 0.0555939 0.0045
v -0.0234513 0.0574811 0.0045
v -0.0309837 0.0624949 0.0045
v -0.0380076 0.0591406 0.0045
v -0.0243326 0.0592017 0.0045
v -0.0256196 0.0606442 0.0045
v -0.0328863 0.0621528 0.0045
v -0.0346411 0.0613418 0.0045
v -0.0446213 0.0581868 0.0045
v -0.0315392 0.0473626 0.0045
v -0.0351022 0.0487808 0.0045
v -0.0334116 0.0478433 0.0045
v -0.0260538 0.048815 0.0045
v -0.0246646 0.0501593 0.0045
v -0.0506597 0.0559121 0.0045
v -0.045364 0.0581668 0.0045
v -0.0510931 0.0574033 0.0045
v -0.0507782 0.0566862 0.0045
v -0.0460913 0.0583187 0.0045
v -0.0510299 0.054404 0.0045
v -0.0366277 0.0493809 0.0045
v -0.0277373 0.0478648 0.0045
v -0.0236594 0.0518106 0.0045
v -0.055104 0.0532198 0.0045
v -0.0581413 0.0494186 0.0045
v -0.0585205 0.0484457 0.0045
v -0.0514935 0.0537728 0.0045
v -0.0374542 0.0493696 0.0045
v -0.0358259 0.0491802 0.0045
v -0.0507455 0.0551337 0.0045
v -0.029606 0.0473699 0.0045
v -0.0231034 0.053662 0.0045
v -0.046764 0.0586342 0.0045
v -0.0552134 0.0584148 0.0045
v -0.0577433 0.0637559 0.0045
v -0.0578135 0.0634624 0.0045
v -0.0573988 0.0642455 0.0045
v -0.0576021 0.0640225 0.0045
v -0.0575966 0.0586897 0.0045
v -0.0580054 0.0579612 0.0045
v -0.0562881 0.0572939 0.0045
v -0.0580269 0.0504565 0.0045
v -0.0586048 0.0524448 0.0045
v -0.058185 0.0514887 0.0045
v -0.0557352 0.0536834 0.0045
v -0.0562249 0.0542945 0.0045
v -0.0565398 0.0550116 0.0045
v -0.0592578 0.0532597 0.0045
v -0.0559884 0.064352 0.0045
v -0.0529438 0.0587624 0.0045
v -0.0568607 0.0645078 0.0045
v -0.0571464 0.0644107 0.0045
v -0.0566583 0.0557857 0.0045
v -0.0601112 0.0567105 0.0045
v -0.0628825 0.0563108 0.0045
v -0.0565725 0.0565642 0.0045
v -0.0606801 0.0445252 0.0045
v -0.0592858 0.0450346 0.0045
v -0.0599535 0.0469511 0.0045
v -0.0591386 0.0476041 0.0045
v -0.0521046 0.053283 0.0045
v -0.0528217 0.0529681 0.0045
v -0.0564003 0.0466371 0.0045
v -0.0522141 0.058478 0.0045
v -0.0515828 0.0580144 0.0045
v -0.0537222 0.0588483 0.0045
v -0.0565598 0.0645305 0.0045
v -0.0544963 0.0587297 0.0045
v -0.0562628 0.0644775 0.0045
v -0.059307 0.0569367 0.0045
v -0.0558245 0.0579251 0.0045
v -0.0621568 0.0443737 0.0045
v -0.0609096 0.0465312 0.0045
v -0.0600994 0.0538777 0.0045
v -0.0621102 0.0543714 0.0045
v -0.0610723 0.0542569 0.0045
v -0.0640985 0.0537935 0.0045
v -0.0631424 0.0542133 0.0045
v -0.0643142 0.0559188 0.0045
v -0.0574007 0.0603346 0.0045
v -0.0585887 0.0573633 0.0045
v -0.0656059 0.0551873 0.0045
v -0.0578083 0.0631608 0.0045
v -0.0580592 0.0458707 0.0045
v -0.0573904 0.0594993 0.0045
v -0.0543743 0.0529354 0.0045
v -0.0569994 0.0464906 0.0045
v -0.0575593 0.046232 0.0045
v -0.0674663 0.0529028 0.0045
v -0.067921 0.0514897 0.0045
v -0.0659107 0.051326 0.0045
v -0.0660251 0.050288 0.0045
v -0.0680149 0.0500082 0.0045
v -0.0677423 0.048549 0.0045
v -0.065867 0.0492559 0.0045
v -0.0654472 0.0482998 0.0045
v -0.0619418 0.0463732 0.0045
v -0.0666785 0.054161 0.0045
v -0.0649134 0.0531405 0.0045
v -0.0655315 0.0522989 0.0045
v -0.0671197 0.0472014 0.0045
v -0.0661853 0.0460479 0.0045
v -0.0649963 0.0451591 0.0045
v -0.0639526 0.0468668 0.0045
v -0.0629797 0.0464876 0.0045
v -0.0535958 0.0528496 0.0045
v -0.0647942 0.0474849 0.0045
v -0.0636255 0.0445894 0.0045
v -0.0351022 0.0487808 -0.0045
v -0.0334116 0.0478433 -0.0045
v -0.0315392 0.0473626 -0.0045
v -0.029606 0.0473699 -0.0045
v -0.0277373 0.0478648 -0.0045
v -0.0260538 0.048815 -0.0045
v -0.0246646 0.0501593 -0.0045
v -0.0236594 0.0518106 -0.0045
v -0.0231034 0.053662 -0.0045
v -0.0230325 0.0555939 -0.0045
v -0.0234513 0.0574811 -0.0045
v -0.0243326 0.0592017 -0.0045
v -0.0256196 0.0606442 -0.0045
v -0.0272288 0.0617153 -0.0045
v -0.0290563 0.0623458 -0.0045
v -0.0309837 0.0624949 -0.0045
v -0.0328863 0.0621528 -0.0045
v -0.0346411 0.0613418 -0.0045
v -0.0361345 0.0601143 -0.0045
v -0.0574007 0.0603346 -0.0045
v -0.0573904 0.0594993 -0.0045
v -0.0575966 0.0586897 -0.0045
v -0.0580054 0.0579612 -0.0045
v -0.0585887 0.0573633 -0.0045
v -0.059307 0.0569367 -0.0045
v -0.0601112 0.0567105 -0.0045
v -0.0374542 0.0493696 -0.0045
v -0.0366277 0.0493809 -0.0045
v -0.0358259 0.0491802 -0.0045
v -0.0564003 0.0466371 -0.0045
v -0.0580592 0.0458707 -0.0045
v -0.0575593 0.046232 -0.0045
v -0.0569994 0.0464906 -0.0045
v -0.0628825 0.0563108 -0.0045
v -0.0643142 0.0559188 -0.0045
v -0.0656059 0.0551873 -0.0045
v -0.0666785 0.054161 -0.0045
v -0.0674663 0.0529028 -0.0045
v -0.067921 0.0514897 -0.0045
v -0.0680149 0.0500082 -0.0045
v -0.0677423 0.048549 -0.0045
v -0.0671197 0.0472014 -0.0045
v -0.0661853 0.0460479 -0.0045
v -0.0649963 0.0451591 -0.0045
v -0.0636255 0.0445894 -0.0045
v -0.0621568 0.0443737 -0.0045
v -0.0606801 0.0445252 -0.0045
v -0.0592858 0.0450346 -0.0045
v -0.0578083 0.0631608 -0.0045
v -0.0559884 0.064352 -0.0045
v -0.0562628 0.0644775 -0.0045
v -0.0565598 0.0645305 -0.0045
v -0.0568607 0.0645078 -0.0045
v -0.0571464 0.0644107 -0.0045
v -0.0573988 0.0642455 -0.0045
v -0.0576021 0.0640225 -0.0045
v -0.0577433 0.0637559 -0.0045
v -0.0578135 0.0634624 -0.0045
v -0.046764 0.0586342 -0.0045
v -0.0446213 0.0581868 -0.0045
v -0.045364 0.0581668 -0.0045
v -0.0460913 0.0583187 -0.0045
v -0.0380076 0.0591406 -0.0045
v -0.0366802 0.0596514 -0.0045
v -0.0373152 0.0593214 -0.0045
v -0.0512584 0.0565467 0.004
v -0.0515208 0.0571442 0.004
v -0.0519289 0.0576535 0.004
v -0.0524549 0.0580398 0.004
v -0.053063 0.0582768 0.004
v -0.0537117 0.0583484 0.004
v -0.0543568 0.0582496 0.004
v -0.0549543 0.0579872 0.004
v -0.0554636 0.0575791 0.004
v -0.0558499 0.057053 0.004
v -0.0560869 0.056445 0.004
v -0.0561585 0.0557963 0.004
v -0.0560597 0.0551512 0.004
v -0.0557973 0.0545536 0.004
v -0.0553892 0.0540443 0.004
v -0.0548631 0.053658 0.004
v -0.0542551 0.053421 0.004
v -0.0536064 0.0533495 0.004
v -0.0529612 0.0534483 0.004
v -0.0523637 0.0537107 0.004
v -0.0518544 0.0541188 0.004
v -0.0514681 0.0546448 0.004
v -0.0512311 0.0552529 0.004
v -0.0511596 0.0559016 0.004
v -0.0560597 0.0551512 -0.004
v -0.0561585 0.0557963 -0.004
v -0.0557973 0.0545536 -0.004
v -0.0553892 0.0540443 -0.004
v -0.0548631 0.053658 -0.004
v -0.0542551 0.053421 -0.004
v -0.0536064 0.0533495 -0.004
v -0.0529612 0.0534483 -0.004
v -0.0523637 0.0537107 -0.004
v -0.0518544 0.0541188 -0.004
v -0.0514681 0.0546448 -0.004
v -0.0512311 0.0552529 -0.004
v -0.0511596 0.0559016 -0.004
v -0.0512584 0.0565467 -0.004
v -0.0515208 0.0571442 -0.004
v -0.0519289 0.0576535 -0.004
v -0.0524549 0.0580398 -0.004
v -0.053063 0.0582768 -0.004
v -0.0537117 0.0583484 -0.004
v -0.0543568 0.0582496 -0.004
v -0.0549543 0.0579872 -0.004
v -0.0554636 0.0575791 -0.004
v -0.0558499 0.057053 -0.004
v -0.0560869 0.056445 -0.004
v -0.0566583 0.0557857 -0.0045
v -0.0565725 0.0565642 -0.0045
v -0.0562881 0.0572939 -0.0045
v -0.0558245 0.0579251 -0.0045
v -0.0552134 0.0584148 -0.0045
v -0.0544963 0.0587297 -0.0045
v -0.0537222 0.0588483 -0.0045
v -0.0529438 0.0587624 -0.0045
v -0.0522141 0.058478 -0.0045
v -0.0515828 0.0580144 -0.0045
v -0.0510931 0.0574033 -0.0045
v -0.0507782 0.0566862 -0.0045
v -0.0506597 0.0559121 -0.0045
v -0.0507455 0.0551337 -0.0045
v -0.0510299 0.054404 -0.0045
v -0.0514935 0.0537728 -0.0045
v -0.0521046 0.053283 -0.0045
v -0.0528217 0.0529681 -0.0045
v -0.0535958 0.0528496 -0.0045
v -0.0543743 0.0529354 -0.0045
v -0.055104 0.0532198 -0.0045
v -0.0557352 0.0536834 -0.0045
v -0.0562249 0.0542945 -0.0045
v -0.0565398 0.0550116 -0.0045
v -0.0586651 0.0513492 0.004
v -0.0590324 0.0521857 0.004
v -0.0596038 0.0528987 0.004
v -0.0603402 0.0534396 0.004
v -0.0611915 0.0537714 0.004
v -0.0620997 0.0538715 0.004
v -0.0630029 0.0537332 0.004
v -0.0638395 0.0533658 0.004
v -0.0645524 0.0527945 0.004
v -0.0650933 0.0520581 0.004
v -0.0654251 0.0512067 0.004
v -0.0655252 0.0502986 0.004
v -0.0653869 0.0493954 0.004
v -0.0650196 0.0485588 0.004
v -0.0644482 0.0478458 0.004
v -0.0637118 0.047305 0.004
v -0.0628605 0.0469732 0.004
v -0.0619523 0.0468731 0.004
v -0.0610491 0.0470114 0.004
v -0.0602125 0.0473787 0.004
v -0.0594995 0.0479501 0.004
v -0.0589587 0.0486865 0.004
v -0.0586269 0.0495378 0.004
v -0.0585268 0.050446 0.004
v -0.0653869 0.0493954 -0.004
v -0.0655252 0.0502986 -0.004
v -0.0650196 0.0485588 -0.004
v -0.0644482 0.0478458 -0.004
v -0.0637118 0.047305 -0.004
v -0.0628605 0.0469732 -0.004
v -0.0619523 0.0468731 -0.004
v -0.0610491 0.0470114 -0.004
v -0.0602125 0.0473787 -0.004
v -0.0594995 0.0479501 -0.004
v -0.0589587 0.0486865 -0.004
v -0.0586269 0.0495378 -0.004
v -0.0585268 0.050446 -0.004
v -0.0586651 0.0513492 -0.004
v -0.0590324 0.0521857 -0.004
v -0.0596038 0.0528987 -0.004
v -0.0603402 0.0534396 -0.004
v -0.0611915 0.0537714 -0.004
v -0.0620997 0.0538715 -0.004
v -0.0630029 0.0537332 -0.004
v -0.0638395 0.0533658 -0.004
v -0.0645524 0.0527945 -0.004
v -0.0650933 0.0520581 -0.004
v -0.0654251 0.0512067 -0.004
v -0.0660251 0.050288 -0.0045
v -0.0659107 0.051326 -0.0045
v -0.0655315 0.0522989 -0.0045
v -0.0649134 0.0531405 -0.0045
v -0.0640985 0.0537935 -0.0045
v -0.0631424 0.0542133 -0.0045
v -0.0621102 0.0543714 -0.0045
v -0.0610723 0.0542569 -0.0045
v -0.0600994 0.0538777 -0.0045
v -0.0592578 0.0532597 -0.0045
v -0.0586048 0.0524448 -0.0045
v -0.058185 0.0514887 -0.0045
v -0.0580269 0.0504565 -0.0045
v -0.0581413 0.0494186 -0.0045
v -0.0585205 0.0484457 -0.0045
v -0.0591386 0.0476041 -0.0045
v -0.0599535 0.0469511 -0.0045
v -0.0609096 0.0465312 -0.0045
v -0.0619418 0.0463732 -0.0045
v -0.0629797 0.0464876 -0.0045
v -0.0639526 0.0468668 -0.0045
v -0.0647942 0.0474849 -0.0045
v -0.0654472 0.0482998 -0.0045
v -0.065867 0.0492559 -0.0045
v -0.0316263 0.0507285 -0.0045
v -0.0326722 0.0511362 -0.0045
v -0.033577 0.0518006 -0.0045
v -0.0274972 0.0519287 -0.0045
v -0.0283732 0.0512267 -0.0045
v -0.0305106 0.0506055 -0.0045
v -0.0342789 0.0526766 -0.0045
v -0.0264251 0.0538793 -0.0045
v -0.0268328 0.0528334 -0.0045
v -0.029401 0.0507754 -0.0045
v -0.0349002 0.054814 -0.0045
v -0.0347303 0.0537044 -0.0045
v -0.0337051 0.0578804 -0.0045
v -0.0343695 0.0569756 -0.0045
v -0.0347771 0.0559297 -0.0045
v -0.0328291 0.0585823 -0.0045
v -0.0295759 0.0590805 -0.0045
v -0.0285301 0.0586729 -0.0045
v -0.026472 0.0561047 -0.0045
v -0.0263021 0.0549951 -0.0045
v -0.0318013 0.0590336 -0.0045
v -0.0276253 0.0580084 -0.0045
v -0.0269233 0.0571325 -0.0045
v -0.0306917 0.0592036 -0.0045
v -0.026602 0.0549888 -0.0048
v -0.0267601 0.0560209 -0.0048
v -0.0271799 0.056977 -0.0048
v -0.0278329 0.0577919 -0.0048
v -0.0286745 0.05841 -0.0048
v -0.0296475 0.0587892 -0.0048
v -0.0306854 0.0589036 -0.0048
v -0.0317176 0.0587456 -0.0048
v -0.0326737 0.0583257 -0.0048
v -0.0334885 0.0576727 -0.0048
v -0.0341066 0.0568311 -0.0048
v -0.0344858 0.0558582 -0.0048
v -0.0346003 0.0548203 -0.0048
v -0.0344422 0.0537881 -0.0048
v -0.0340224 0.052832 -0.0048
v -0.0333694 0.0520171 -0.0048
v -0.0325277 0.0513991 -0.0048
v -0.0315548 0.0510199 -0.0048
v -0.0305169 0.0509054 -0.0048
v -0.0294847 0.0510635 -0.0048
v -0.0285286 0.0514833 -0.0048
v -0.0277138 0.0521363 -0.0048
v -0.0270957 0.0529779 -0.0048
v -0.0267165 0.0539508 -0.0048
v -0.0265466 0.056083 -0.00451022
v -0.0269898 0.0570922 -0.00451022
v -0.027679 0.0579524 -0.00451022
v -0.0285675 0.0586048 -0.00451022
v -0.0295945 0.0590051 -0.00451022
v -0.0306901 0.0591259 -0.00451022
v -0.0317796 0.0589591 -0.00451022
v -0.0327889 0.0585159 -0.00451022
v -0.033649 0.0578266 -0.00451022
v -0.0343015 0.0569382 -0.00451022
v -0.0347017 0.0559112 -0.00451022
v -0.0348226 0.0548156 -0.00451022
v -0.0346557 0.053726 -0.00451022
v -0.0342125 0.0527168 -0.00451022
v -0.0335233 0.0518566 -0.00451022
v -0.0326348 0.0512042 -0.00451022
v -0.0316078 0.0508039 -0.00451022
v -0.0305122 0.0506831 -0.00451022
v -0.0294227 0.05085 -0.00451022
v -0.0284134 0.0512931 -0.00451022
v -0.0275533 0.0519824 -0.00451022
v -0.0269008 0.0528708 -0.00451022
v -0.0265006 0.0538978 -0.00451022
v -0.0263797 0.0549934 -0.00451022
v -0.0266161 0.0560628 -0.00454019
v -0.0270516 0.0570548 -0.00454019
v -0.0277291 0.0579002 -0.00454019
v -0.0286023 0.0585414 -0.00454019
v -0.0296117 0.0589348 -0.00454019
v -0.0306886 0.0590536 -0.00454019
v -0.0317594 0.0588896 -0.00454019
v -0.0327514 0.058454 -0.00454019
v -0.0335968 0.0577766 -0.00454019
v -0.0342381 0.0569034 -0.00454019
v -0.0346315 0.0558939 -0.00454019
v -0.0347502 0.0548171 -0.00454019
v -0.0345862 0.0537462 -0.00454019
v -0.0341506 0.0527543 -0.00454019
v -0.0334732 0.0519089 -0.00454019
v -0.0326 0.0512676 -0.00454019
v -0.0315906 0.0508742 -0.00454019
v -0.0305137 0.0507554 -0.00454019
v -0.0294429 0.0509194 -0.00454019
v -0.0284509 0.051355 -0.00454019
v -0.0276055 0.0520325 -0.00454019
v -0.0269642 0.0529057 -0.00454019
v -0.0265708 0.0539151 -0.00454019
v -0.0264521 0.0549919 -0.00454019
v -0.0266757 0.0560455 -0.00458787
v -0.0271048 0.0570226 -0.00458787
v -0.0277721 0.0578553 -0.00458787
v -0.0286322 0.058487 -0.00458787
v -0.0296265 0.0588745 -0.00458787
v -0.0306872 0.0589915 -0.00458787
v -0.0317421 0.0588299 -0.00458787
v -0.0327192 0.0584009 -0.00458787
v -0.0335519 0.0577336 -0.00458787
v -0.0341836 0.0568734 -0.00458787
v -0.0345711 0.0558791 -0.00458787
v -0.0346881 0.0548184 -0.00458787
v -0.0345266 0.0537636 -0.00458787
v -0.0340975 0.0527865 -0.00458787
v -0.0334302 0.0519537 -0.00458787
v -0.0325701 0.0513221 -0.00458787
v -0.0315758 0.0509345 -0.00458787
v -0.030515 0.0508176 -0.00458787
v -0.0294602 0.0509791 -0.00458787
v -0.0284831 0.0514082 -0.00458787
v -0.0276503 0.0520755 -0.00458787
v -0.0270187 0.0529356 -0.00458787
v -0.0266312 0.0539299 -0.00458787
v -0.0265142 0.0549906 -0.00458787
v -0.0267215 0.0560322 -0.00465
v -0.0271456 0.0569979 -0.00465
v -0.0278051 0.0578209 -0.00465
v -0.0286552 0.0584452 -0.00465
v -0.0296379 0.0588282 -0.00465
v -0.0306862 0.0589438 -0.00465
v -0.0317288 0.0587842 -0.00465
v -0.0326945 0.0583601 -0.00465
v -0.0335175 0.0577006 -0.00465
v -0.0341418 0.0568505 -0.00465
v -0.0345248 0.0558678 -0.00465
v -0.0346404 0.0548194 -0.00465
v -0.0344808 0.0537769 -0.00465
v -0.0340567 0.0528112 -0.00465
v -0.0333972 0.0519881 -0.00465
v -0.0325471 0.0513638 -0.00465
v -0.0315644 0.0509808 -0.00465
v -0.030516 0.0508652 -0.00465
v -0.0294735 0.0510249 -0.00465
v -0.0285078 0.0514489 -0.00465
v -0.0276848 0.0521085 -0.00465
v -0.0270605 0.0529586 -0.00465
v -0.0266775 0.0539413 -0.00465
v -0.0265618 0.0549896 -0.00465
v -0.0267503 0.0560238 -0.00472235
v -0.0271712 0.0569823 -0.00472235
v -0.0278258 0.0577993 -0.00472235
v -0.0286696 0.0584189 -0.00472235
v -0.029645 0.0587991 -0.00472235
v -0.0306856 0.0589138 -0.00472235
v -0.0317204 0.0587554 -0.00472235
v -0.032679 0.0583345 -0.00472235
v -0.0334959 0.0576798 -0.00472235
v -0.0341156 0.056836 -0.00472235
v -0.0344957 0.0558606 -0.00472235
v -0.0346105 0.0548201 -0.00472235
v -0.034452 0.0537852 -0.00472235
v -0.0340311 0.0528267 -0.00472235
v -0.0333764 0.0520098 -0.00472235
v -0.0325327 0.0513901 -0.00472235
v -0.0315573 0.0510099 -0.00472235
v -0.0305167 0.0508952 -0.00472235
v -0.0294819 0.0510537 -0.00472235
v -0.0285233 0.0514746 -0.00472235
v -0.0277064 0.0521292 -0.00472235
v -0.0270867 0.052973 -0.00472235
v -0.0267066 0.0539484 -0.00472235
v -0.0265918 0.054989 -0.00472235
v -0.026602 0.0549888 -0.008
v -0.0267601 0.0560209 -0.008
v -0.0271799 0.056977 -0.008
v -0.0278329 0.0577919 -0.008
v -0.0286745 0.05841 -0.008
v -0.0296475 0.0587892 -0.008
v -0.0306854 0.0589036 -0.008
v -0.0317176 0.0587456 -0.008
v -0.0326737 0.0583257 -0.008
v -0.0334885 0.0576727 -0.008
v -0.0341066 0.0568311 -0.008
v -0.0344858 0.0558582 -0.008
v -0.0346003 0.0548203 -0.008
v -0.0344422 0.0537881 -0.008
v -0.0340224 0.052832 -0.008
v -0.0333694 0.0520171 -0.008
v -0.0325277 0.0513991 -0.008
v -0.0315548 0.0510199 -0.008
v -0.0305169 0.0509054 -0.008
v -0.0294847 0.0510635 -0.008
v -0.0285286 0.0514833 -0.008
v -0.0277138 0.0521363 -0.008
v -0.0270957 0.0529779 -0.008
v -0.0267165 0.0539508 -0.008
v -0.026852 0.0549835 -0.00825
v -0.0270002 0.0559512 -0.00825
v -0.0273938 0.0568475 -0.00825
v -0.0280059 0.0576114 -0.00825
v -0.028795 0.0581909 -0.00825
v -0.0297071 0.0585464 -0.00825
v -0.0306801 0.0586537 -0.00825
v -0.0316478 0.0585055 -0.00825
v -0.0325441 0.0581119 -0.00825
v -0.0333081 0.0574997 -0.00825
v -0.0338875 0.0567107 -0.00825
v -0.034243 0.0557986 -0.00825
v -0.0343503 0.0548255 -0.00825
v -0.0342021 0.0538579 -0.00825
v -0.0338085 0.0529615 -0.00825
v -0.0331964 0.0521976 -0.00825
v -0.0324073 0.0516182 -0.00825
v -0.0314952 0.0512627 -0.00825
v -0.0305222 0.0511553 -0.00825
v -0.0295545 0.0513035 -0.00825
v -0.0286582 0.0516971 -0.00825
v -0.0278942 0.0523093 -0.00825
v -0.0273148 0.0530983 -0.00825
v -0.0269593 0.0540105 -0.00825
v -0.0306011 0.0549045 -0.00825
f 558 588 562
f 588 589 562
f 562 589 561
f 589 590 561
f 561 590 557
f 590 591 557
f 557 591 556
f 591 592 556
f 556 592 563
f 592 593 563
f 563 593 560
f 593 594 560
f 560 594 555
f 594 595 555
f 555 595 552
f 595 596 552
f 552 596 553
f 596 597 553
f 553 597 554
f 597 598 554
f 554 598 550
f 598 599 550
f 550 599 551
f 599 600 551
f 551 600 546
f 600 601 546
f 546 601 542
f 601 602 542
f 542 602 541
f 602 603 541
f 541 603 540
f 603 604 540
f 540 604 545
f 604 605 545
f 545 605 549
f 605 606 549
f 549 606 544
f 606 607 544
f 544 607 543
f 607 608 543
f 543 608 548
f 608 609 548
f 548 609 547
f 609 610 547
f 547 610 559
f 610 611 559
f 559 611 558
f 611 588 558
f 588 612 589
f 612 613 589
f 589 613 590
f 613 614 590
f 590 614 591
f 614 615 591
f 591 615 592
f 615 616 592
f 592 616 593
f 616 617 593
f 593 617 594
f 617 618 594
f 594 618 595
f 618 619 595
f 595 619 596
f 619 620 596
f 596 620 597
f 620 621 597
f 597 621 598
f 621 622 598
f 598 622 599
f 622 623 599
f 599 623 600
f 623 624 600
f 600 624 601
f 624 625 601
f 601 625 602
f 625 626 602
f 602 626 603
f 626 627 603
f 603 627 604
f 627 628 604
f 604 628 605
f 628 629 605
f 605 629 606
f 629 630 606
f 606 630 607
f 630 631 607
f 607 631 608
f 631 632 608
f 608 632 609
f 632 633 609
f 609 633 610
f 633 634 610
f 610 634 611
f 634 635 611
f 611 635 588
f 635 612 588
f 612 636 613
f 636 637 613
f 613 637 614
f 637 638 614
f 614 638 615
f 638 639 615
f 615 639 616
f 639 640 616
f 616 640 617
f 640 641 617
f 617 641 618
f 641 642 618
f 618 642 619
f 642 643 619
f 619 643 620
f 643 644 620
f 620 644 621
f 644 645 621
f 621 645 622
f 645 646 622
f 622 646 623
f 646 647 623
f 623 647 624
f 647 648 624
f 624 648 625
f 648 649 625
f 625 649 626
f 649 650 626
f 626 650 627
f 650 651 627
f 627 651 628
f 651 652 628
f 628 652 629
f 652 653 629
f 629 653 630
f 653 654 630
f 630 654 631
f 654 655 631
f 631 655 632
f 655 656 632
f 632 656 633
f 656 657 633
f 633 657 634
f 657 658 634
f 634 658 635
f 658 659 635
f 635 659 612
f 659 636 612
f 636 660 637
f 660 661 637
f 637 661 638
f 661 662 638
f 638 662 639
f 662 663 639
f 639 663 640
f 663 664 640
f 640 664 641
f 664 665 641
f 641 665 642
f 665 666 642
f 642 666 643
f 666 667 643
f 643 667 644
f 667 668 644
f 644 668 645
f 668 669 645
f 645 669 646
f 669 670 646
f 646 670 647
f 670 671 647
f 647 671 648
f 671 672 648
f 648 672 649
f 672 673 649
f 649 673 650
f 673 674 650
f 650 674 651
f 674 675 651
f 651 675 652
f 675 676 652
f 652 676 653
f 676 677 653
f 653 677 654
f 677 678 654
f 654 678 655
f 678 679 655
f 655 679 656
f 679 680 656
f 656 680 657
f 680 681 657
f 657 681 658
f 681 682 658
f 658 682 659
f 682 683 659
f 659 683 636
f 683 660 636
f 660 684 661
f 684 685 661
f 661 685 662
f 685 686 662
f 662 686 663
f 686 687 663
f 663 687 664
f 687 688 664
f 664 688 665
f 688 689 665
f 665 689 666
f 689 690 666
f 666 690 667
f 690 691 667
f 667 691 668
f 691 692 668
f 668 692 669
f 692 693 669
f 669 693 670
f 693 694 670
f 670 694 671
f 694 695 671
f 671 695 672
f 695 696 672
f 672 696 673
f 696 697 673
f 673 697 674
f 697 698 674
f 674 698 675
f 698 699 675
f 675 699 676
f 699 700 676
f 676 700 677
f 700 701 677
f 677 701 678
f 701 702 678
f 678 702 679
f 702 703 679
f 679 703 680
f 703 704 680
f 680 704 681
f 704 705 681
f 681 705 682
f 705 706 682
f 682 706 683
f 706 707 683
f 683 707 660
f 707 684 660
f 684 565 685
f 565 566 685
f 685 566 686
f 566 567 686
f 686 567 687
f 567 568 687
f 687 568 688
f 568 569 688
f 688 569 689
f 569 570 689
f 689 570 690
f 570 571 690
f 690 571 691
f 571 572 691
f 691 572 692
f 572 573 692
f 692 573 693
f 573 574 693
f 693 574 694
f 574 575 694
f 694 575 695
f 575 576 695
f 695 576 696
f 576 577 696
f 696 577 697
f 577 578 697
f 697 578 698
f 578 579 698
f 698 579 699
f 579 580 699
f 699 580 700
f 580 581 700
f 700 581 701
f 581 582 701
f 701 582 702
f 582 583 702
f 702 583 703
f 583 584 703
f 703 584 704
f 584 585 704
f 704 585 705
f 585 586 705
f 705 586 706
f 586 587 706
f 706 587 707
f 587 564 707
f 707 564 684
f 564 565 684
f 51 98 52
f 98 99 52
f 52 99 53
f 99 100 53
f 53 100 54
f 100 101 54
f 54 101 55
f 101 102 55
f 55 102 56
f 102 103 56
f 56 103 57
f 103 104 57
f 57 104 58
f 104 105 58
f 58 105 59
f 105 106 59
f 59 106 60
f 106 107 60
f 60 107 61
f 107 108 61
f 61 108 62
f 108 109 62
f 62 109 63
f 109 110 63
f 63 110 64
f 110 111 64
f 64 111 65
f 111 112 65
f 65 112 66
f 112 113 66
f 66 113 67
f 113 114 67
f 67 114 68
f 114 115 68
f 68 115 69
f 115 116 69
f 69 116 70
f 116 117 70
f 70 117 71
f 117 118 71
f 71 118 72
f 118 119 72
f 72 119 73
f 119 120 73
f 73 120 50
f 120 121 50
f 50 121 51
f 121 98 51
f 98 122 99
f 122 123 99
f 99 123 100
f 123 124 100
f 100 124 101
f 124 125 101
f 101 125 102
f 125 126 102
f 102 126 103
f 126 127 103
f 103 127 104
f 127 128 104
f 104 128 105
f 128 129 105
f 105 129 106
f 129 130 106
f 106 130 107
f 130 131 107
f 107 131 108
f 131 132 108
f 108 132 109
f 132 133 109
f 109 133 110
f 133 134 110
f 110 134 111
f 134 135 111
f 111 135 112
f 135 136 112
f 112 136 113
f 136 137 113
f 113 137 114
f 137 138 114
f 114 138 115
f 138 139 115
f 115 139 116
f 139 140 116
f 116 140 117
f 140 141 117
f 117 141 118
f 141 142 118
f 118 142 119
f 142 143 119
f 119 143 120
f 143 144 120
f 120 144 121
f 144 145 121
f 121 145 98
f 145 122 98
f 122 146 123
f 146 147 123
f 123 147 124
f 147 148 124
f 124 148 125
f 148 149 125
f 125 149 126
f 149 150 126
f 126 150 127
f 150 151 127
f 127 151 128
f 151 152 128
f 128 152 129
f 152 153 129
f 129 153 130
f 153 154 130
f 130 154 131
f 154 155 131
f 131 155 132
f 155 156 132
f 132 156 133
f 156 157 133
f 133 157 134
f 157 158 134
f 134 158 135
f 158 159 135
f 135 159 136
f 159 160 136
f 136 160 137
f 160 161 137
f 137 161 138
f 161 162 138
f 138 162 139
f 162 163 139
f 139 163 140
f 163 164 140
f 140 164 141
f 164 165 141
f 141 165 142
f 165 166 142
f 142 166 143
f 166 167 143
f 143 167 144
f 167 168 144
f 144 168 145
f 168 169 145
f 145 169 122
f 169 146 122
f 146 170 147
f 170 171 147
f 147 171 148
f 171 172 148
f 148 172 149
f 172 173 149
f 149 173 150
f 173 174 150
f 150 174 151
f 174 175 151
f 151 175 152
f 175 176 152
f 152 176 153
f 176 177 153
f 153 177 154
f 177 178 154
f 154 178 155
f 178 179 155
f 155 179 156
f 179 180 156
f 156 180 157
f 180 181 157
f 157 181 158
f 181 182 158
f 158 182 159
f 182 183 159
f 159 183 160
f 183 184 160
f 160 184 161
f 184 185 161
f 161 185 162
f 185 186 162
f 162 186 163
f 186 187 163
f 163 187 164
f 187 188 164
f 164 188 165
f 188 189 165
f 165 189 166
f 189 190 166
f 166 190 167
f 190 191 167
f 167 191 168
f 191 192 168
f 168 192 169
f 192 193 169
f 169 193 146
f 193 170 146
f 170 194 171
f 194 195 171
f 171 195 172
f 195 196 172
f 172 196 173
f 196 197 173
f 173 197 174
f 197 198 174
f 174 198 175
f 198 199 175
f 175 199 176
f 199 200 176
f 176 200 177
f 200 201 177
f 177 201 178
f 201 202 178
f 178 202 179
f 202 203 179
f 179 203 180
f 203 204 180
f 180 204 181
f 204 205 181
f 181 205 182
f 205 206 182
f 182 206 183
f 206 207 183
f 183 207 184
f 207 208 184
f 184 208 185
f 208 209 185
f 185 209 186
f 209 210 186
f 186 210 187
f 210 211 187
f 187 211 188
f 211 212 188
f 188 212 189
f 212 213 189
f 189 213 190
f 213 214 190
f 190 214 191
f 214 215 191
f 191 215 192
f 215 216 192
f 192 216 193
f 216 217 193
f 193 217 170
f 217 194 170
f 194 75 195
f 75 76 195
f 195 76 196
f 76 77 196
f 196 77 197
f 77 78 197
f 197 78 198
f 78 79 198
f 198 79 199
f 79 80 199
f 199 80 200
f 80 81 200
f 200 81 201
f 81 82 201
f 201 82 202
f 82 83 202
f 202 83 203
f 83 84 203
f 203 84 204
f 84 85 204
f 204 85 205
f 85 86 205
f 205 86 206
f 86 87 206
f 206 87 207
f 87 88 207
f 207 88 208
f 88 89 208
f 208 89 209
f 89 90 209
f 209 90 210
f 90 91 210
f 210 91 211
f 91 92 211
f 211 92 212
f 92 93 212
f 212 93 213
f 93 94 213
f 213 94 214
f 94 95 214
f 214 95 215
f 95 96 215
f 215 96 216
f 96 97 216
f 216 97 217
f 97 74 217
f 217 74 194
f 74 75 194
f 708 733 709
f 733 734 709
f 709 734 710
f 734 735 710
f 710 735 711
f 735 736 711
f 711 736 712
f 736 737 712
f 712 737 713
f 737 738 713
f 713 738 714
f 738 739 714
f 714 739 715
f 739 740 715
f 715 740 716
f 740 741 716
f 716 741 717
f 741 742 717
f 717 742 718
f 742 743 718
f 718 743 719
f 743 744 719
f 719 744 720
f 744 745 720
f 720 745 721
f 745 746 721
f 721 746 722
f 746 747 722
f 722 747 723
f 747 748 723
f 723 748 724
f 748 749 724
f 724 749 725
f 749 750 725
f 725 750 726
f 750 751 726
f 726 751 727
f 751 752 727
f 727 752 728
f 752 753 728
f 728 753 729
f 753 754 729
f 729 754 730
f 754 755 730
f 730 755 731
f 755 732 731
f 731 732 708
f 732 733 708
f 26 24 27
f 24 23 27
f 27 23 28
f 23 22 28
f 28 22 29
f 22 21 29
f 29 21 30
f 21 20 30
f 30 20 31
f 20 19 31
f 31 19 32
f 19 18 32
f 32 18 33
f 18 17 33
f 33 17 34
f 17 16 34
f 34 16 35
f 16 15 35
f 35 15 36
f 15 14 36
f 36 14 37
f 14 13 37
f 37 13 38
f 13 12 38
f 38 12 39
f 12 11 39
f 39 11 40
f 11 10 40
f 40 10 41
f 10 9 41
f 41 9 42
f 9 8 42
f 42 8 43
f 8 7 43
f 43 7 44
f 7 6 44
f 44 6 45
f 6 5 45
f 45 5 46
f 5 4 46
f 46 4 47
f 4 3 47
f 47 3 48
f 3 2 48
f 48 2 49
f 2 1 49
f 49 1 26
f 1 24 26
f 564 709 565
f 709 710 565
f 565 710 566
f 710 711 566
f 566 711 567
f 711 712 567
f 567 712 568
f 712 713 568
f 568 713 569
f 713 714 569
f 569 714 570
f 714 715 570
f 570 715 571
f 715 716 571
f 571 716 572
f 716 717 572
f 572 717 573
f 717 718 573
f 573 718 574
f 718 719 574
f 574 719 575
f 719 720 575
f 575 720 576
f 720 721 576
f 576 721 577
f 721 722 577
f 577 722 578
f 722 723 578
f 578 723 579
f 723 724 579
f 579 724 580
f 724 725 580
f 580 725 581
f 725 726 581
f 581 726 582
f 726 727 582
f 582 727 583
f 727 728 583
f 583 728 584
f 728 729 584
f 584 729 585
f 729 730 585
f 585 730 586
f 730 731 586
f 586 731 587
f 731 708 587
f 587 708 564
f 708 709 564
f 38 51 37
f 51 52 37
f 37 52 36
f 52 53 36
f 36 53 35
f 53 54 35
f 35 54 34
f 54 55 34
f 34 55 33
f 55 56 33
f 33 56 32
f 56 57 32
f 32 57 31
f 57 58 31
f 31 58 30
f 58 59 30
f 30 59 29
f 59 60 29
f 29 60 28
f 60 61 28
f 28 61 27
f 61 62 27
f 27 62 26
f 62 63 26
f 26 63 49
f 63 64 49
f 49 64 48
f 64 65 48
f 48 65 47
f 65 66 47
f 47 66 46
f 66 67 46
f 46 67 45
f 67 68 45
f 45 68 44
f 68 69 44
f 44 69 43
f 69 70 43
f 43 70 42
f 70 71 42
f 42 71 41
f 71 72 41
f 41 72 40
f 72 73 40
f 40 73 39
f 73 50 39
f 39 50 38
f 50 51 38
f 443 445 442
f 445 446 442
f 442 446 441
f 446 447 441
f 441 447 440
f 447 448 440
f 440 448 439
f 448 449 439
f 439 449 438
f 449 450 438
f 438 450 437
f 450 451 437
f 437 451 436
f 451 452 436
f 436 452 435
f 452 453 435
f 435 453 434
f 453 454 434
f 434 454 433
f 454 455 433
f 433 455 432
f 455 456 432
f 432 456 431
f 456 457 431
f 431 457 430
f 457 458 430
f 430 458 429
f 458 459 429
f 429 459 428
f 459 460 428
f 428 460 427
f 460 461 427
f 427 461 426
f 461 462 426
f 426 462 425
f 462 463 425
f 425 463 424
f 463 464 424
f 424 464 423
f 464 465 423
f 423 465 422
f 465 466 422
f 422 466 420
f 466 467 420
f 420 467 421
f 467 444 421
f 421 444 443
f 444 445 443
f 407 421 406
f 421 443 406
f 406 443 405
f 443 442 405
f 405 442 404
f 442 441 404
f 404 441 403
f 441 440 403
f 403 440 402
f 440 439 402
f 402 439 401
f 439 438 401
f 401 438 400
f 438 437 400
f 400 437 399
f 437 436 399
f 399 436 398
f 436 435 398
f 398 435 397
f 435 434 397
f 397 434 396
f 434 433 396
f 396 433 419
f 433 432 419
f 419 432 418
f 432 431 418
f 418 431 417
f 431 430 417
f 417 430 416
f 430 429 416
f 416 429 415
f 429 428 415
f 415 428 414
f 428 427 414
f 414 427 413
f 427 426 413
f 413 426 412
f 426 425 412
f 412 425 411
f 425 424 411
f 411 424 410
f 424 423 410
f 410 423 409
f 423 422 409
f 409 422 408
f 422 420 408
f 408 420 407
f 420 421 407
f 396 240 397
f 240 239 397
f 397 239 398
f 239 287 398
f 398 287 399
f 287 286 399
f 399 286 400
f 286 272 400
f 400 272 401
f 272 288 401
f 401 288 402
f 288 290 402
f 402 290 403
f 290 256 403
f 403 256 404
f 256 293 404
f 404 293 405
f 293 263 405
f 405 263 406
f 263 278 406
f 406 278 407
f 278 275 407
f 407 275 408
f 275 269 408
f 408 269 409
f 269 268 409
f 409 268 410
f 268 267 410
f 410 267 411
f 267 246 411
f 411 246 412
f 246 308 412
f 412 308 413
f 308 328 413
f 413 328 414
f 328 284 414
f 414 284 415
f 284 283 415
f 415 283 416
f 283 249 416
f 416 249 417
f 249 242 417
f 417 242 418
f 242 252 418
f 418 252 419
f 252 237 419
f 419 237 396
f 237 240 396
f 515 517 514
f 517 518 514
f 514 518 513
f 518 519 513
f 513 519 512
f 519 520 512
f 512 520 511
f 520 521 511
f 511 521 510
f 521 522 510
f 510 522 509
f 522 523 509
f 509 523 508
f 523 524 508
f 508 524 507
f 524 525 507
f 507 525 506
f 525 526 506
f 506 526 505
f 526 527 505
f 505 527 504
f 527 528 504
f 504 528 503
f 528 529 503
f 503 529 502
f 529 530 502
f 502 530 501
f 530 531 501
f 501 531 500
f 531 532 500
f 500 532 499
f 532 533 499
f 499 533 498
f 533 534 498
f 498 534 497
f 534 535 497
f 497 535 496
f 535 536 496
f 496 536 495
f 536 537 495
f 495 537 494
f 537 538 494
f 494 538 492
f 538 539 492
f 492 539 493
f 539 516 493
f 493 516 515
f 516 517 515
f 479 493 478
f 493 515 478
f 478 515 477
f 515 514 477
f 477 514 476
f 514 513 476
f 476 513 475
f 513 512 475
f 475 512 474
f 512 511 474
f 474 511 473
f 511 510 473
f 473 510 472
f 510 509 472
f 472 509 471
f 509 508 471
f 471 508 470
f 508 507 470
f 470 507 469
f 507 506 469
f 469 506 468
f 506 505 468
f 468 505 491
f 505 504 491
f 491 504 490
f 504 503 490
f 490 503 489
f 503 502 489
f 489 502 488
f 502 501 488
f 488 501 487
f 501 500 487
f 487 500 486
f 500 499 486
f 486 499 485
f 499 498 485
f 485 498 484
f 498 497 484
f 484 497 483
f 497 496 483
f 483 496 482
f 496 495 482
f 482 495 481
f 495 494 481
f 481 494 480
f 494 492 480
f 480 492 479
f 492 493 479
f 468 266 469
f 266 265 469
f 469 265 470
f 265 270 470
f 470 270 471
f 270 296 471
f 471 296 472
f 296 298 472
f 472 298 473
f 298 297 473
f 473 297 474
f 297 300 474
f 474 300 475
f 300 299 475
f 475 299 476
f 299 321 476
f 476 321 477
f 321 322 477
f 477 322 478
f 322 313 478
f 478 313 479
f 313 314 479
f 479 314 480
f 314 317 480
f 480 317 481
f 317 318 481
f 481 318 482
f 318 329 482
f 482 329 483
f 329 326 483
f 483 326 484
f 326 327 484
f 484 327 485
f 327 319 485
f 485 319 486
f 319 295 486
f 486 295 487
f 295 281 487
f 487 281 488
f 281 282 488
f 488 282 489
f 282 248 489
f 489 248 490
f 248 247 490
f 490 247 491
f 247 264 491
f 491 264 468
f 264 266 468
f 349 222 230
f 349 230 348
f 230 229 348
f 348 229 347
f 229 225 347
f 347 225 346
f 225 219 346
f 346 219 345
f 219 218 345
f 345 218 344
f 218 228 344
f 344 228 343
f 228 227 343
f 343 227 342
f 227 224 342
f 342 224 341
f 224 223 341
f 341 223 340
f 223 254 340
f 340 254 339
f 254 245 339
f 339 245 338
f 245 236 338
f 338 236 337
f 236 235 337
f 337 235 336
f 235 244 336
f 336 244 335
f 244 253 335
f 335 253 334
f 253 232 334
f 334 232 333
f 232 234 333
f 333 234 332
f 234 233 332
f 332 233 331
f 255 389 271
f 389 380 271
f 389 255 392
f 255 241 392
f 392 241 391
f 241 238 391
f 391 238 390
f 238 231 390
f 231 226 390
f 226 393 390
f 393 226 395
f 226 221 395
f 395 221 394
f 221 220 394
f 394 220 349
f 220 222 349
f 747 746 756
f 746 745 756
f 756 745 744
f 750 749 756
f 749 748 756
f 756 748 747
f 753 752 756
f 752 751 756
f 756 751 750
f 732 755 756
f 755 754 756
f 756 754 753
f 735 734 756
f 734 733 756
f 756 733 732
f 738 737 756
f 737 736 756
f 756 736 735
f 741 740 756
f 740 739 756
f 756 739 738
f 744 743 756
f 743 742 756
f 756 742 741
f 22 23 25
f 23 24 25
f 25 24 1
f 19 20 25
f 20 21 25
f 25 21 22
f 16 17 25
f 17 18 25
f 25 18 19
f 13 14 25
f 14 15 25
f 25 15 16
f 10 11 25
f 11 12 25
f 25 12 13
f 7 8 25
f 8 9 25
f 25 9 10
f 4 5 25
f 5 6 25
f 25 6 7
f 1 2 25
f 2 3 25
f 25 3 4
f 379 305 258
f 379 258 388
f 258 257 388
f 388 257 387
f 257 260 387
f 387 260 386
f 260 259 386
f 386 259 385
f 259 274 385
f 385 274 384
f 274 273 384
f 384 273 383
f 273 289 383
f 383 289 382
f 289 291 382
f 382 291 381
f 291 271 381
f 381 271 380
f 302 305 350
f 305 379 350
f 277 276 364
f 276 356 364
f 361 306 280
f 361 280 378
f 280 279 378
f 378 279 377
f 279 294 377
f 377 294 376
f 294 330 376
f 376 330 375
f 330 325 375
f 375 325 374
f 325 324 374
f 374 324 373
f 324 323 373
f 373 323 372
f 323 316 372
f 372 316 371
f 316 315 371
f 371 315 370
f 315 312 370
f 370 312 369
f 312 311 369
f 369 311 368
f 311 320 368
f 368 320 367
f 320 304 367
f 367 304 366
f 304 301 366
f 366 301 365
f 301 277 365
f 365 277 364
f 360 285 363
f 285 309 363
f 363 309 362
f 309 310 362
f 362 310 361
f 310 306 361
f 360 357 285
f 357 250 285
f 331 233 359
f 233 251 359
f 359 251 358
f 251 243 358
f 358 243 357
f 243 250 357
f 246 309 308
f 309 285 308
f 308 285 328
f 280 306 246
f 306 310 246
f 246 310 309
f 293 256 302
f 297 298 275
f 298 296 275
f 275 296 270
f 250 283 285
f 283 284 285
f 285 284 328
f 300 301 299
f 301 304 299
f 299 304 321
f 304 320 321
f 321 320 322
f 320 311 322
f 322 311 313
f 311 312 313
f 313 312 314
f 312 315 314
f 314 315 317
f 315 316 317
f 317 316 318
f 316 323 318
f 318 323 329
f 323 324 329
f 329 324 326
f 324 325 326
f 326 325 327
f 325 330 327
f 327 330 319
f 330 294 319
f 319 294 295
f 294 279 295
f 295 279 281
f 279 280 281
f 300 297 301
f 297 275 301
f 301 275 277
f 275 276 277
f 271 291 290
f 291 289 290
f 290 289 256
f 289 273 256
f 256 273 274
f 286 255 272
f 255 271 272
f 272 271 288
f 271 290 288
f 264 246 266
f 246 267 266
f 266 267 265
f 267 268 265
f 265 268 270
f 268 269 270
f 270 269 275
f 302 307 293
f 307 261 293
f 293 261 263
f 261 262 263
f 263 262 278
f 262 303 278
f 278 303 275
f 303 292 275
f 275 292 276
f 274 259 256
f 259 260 256
f 256 260 257
f 257 258 256
f 258 305 256
f 256 305 302
f 89 88 237
f 88 87 237
f 237 87 86
f 91 252 242
f 91 251 233
f 264 247 246
f 247 248 246
f 246 248 280
f 248 282 280
f 280 282 281
f 252 91 237
f 91 90 237
f 237 90 89
f 251 91 243
f 91 242 243
f 243 242 250
f 242 249 250
f 250 249 283
f 286 287 255
f 287 239 255
f 255 239 241
f 239 240 241
f 241 240 238
f 240 237 238
f 237 86 238
f 238 86 231
f 86 85 231
f 231 85 226
f 85 84 226
f 226 84 221
f 233 234 91
f 234 232 91
f 91 232 92
f 232 253 92
f 92 253 93
f 253 244 93
f 93 244 94
f 244 235 94
f 94 235 95
f 235 236 95
f 95 236 96
f 236 245 96
f 96 245 97
f 245 254 97
f 97 254 74
f 254 223 74
f 74 223 75
f 223 224 75
f 75 224 76
f 224 227 76
f 76 227 77
f 227 228 77
f 77 228 78
f 228 218 78
f 78 218 79
f 218 219 79
f 79 219 80
f 219 225 80
f 80 225 81
f 225 229 81
f 81 229 82
f 229 230 82
f 82 230 83
f 230 222 83
f 83 222 84
f 222 220 84
f 84 220 221
f 455 454 389
f 454 453 389
f 453 452 389
f 389 452 380
f 389 392 455
f 392 391 455
f 455 391 456
f 391 390 456
f 456 390 393
f 448 351 350
f 452 451 380
f 451 450 380
f 380 450 381
f 450 449 381
f 381 449 382
f 449 448 382
f 382 448 383
f 448 384 383
f 466 529 528
f 393 553 456
f 553 554 456
f 456 554 457
f 554 550 457
f 457 550 458
f 350 379 448
f 379 388 448
f 448 388 387
f 387 386 448
f 386 385 448
f 448 385 384
f 364 356 444
f 356 355 444
f 444 355 354
f 351 448 352
f 448 447 352
f 352 447 353
f 447 446 353
f 353 446 354
f 446 445 354
f 354 445 444
f 466 465 529
f 465 464 529
f 529 464 530
f 458 550 459
f 550 551 459
f 459 551 546
f 528 527 466
f 527 526 466
f 466 526 467
f 526 525 467
f 467 525 444
f 525 524 444
f 444 524 364
f 464 463 360
f 464 360 530
f 360 363 530
f 530 363 531
f 463 462 360
f 462 461 360
f 360 461 357
f 461 460 357
f 357 460 358
f 460 459 358
f 358 459 359
f 459 546 359
f 359 546 542
f 393 395 553
f 395 394 553
f 553 394 552
f 394 349 552
f 552 349 555
f 349 348 555
f 555 348 560
f 348 347 560
f 560 347 563
f 347 346 563
f 563 346 556
f 346 345 556
f 556 345 557
f 345 344 557
f 557 344 561
f 344 343 561
f 561 343 562
f 343 342 562
f 562 342 558
f 342 341 558
f 558 341 559
f 341 340 559
f 559 340 547
f 340 339 547
f 547 339 548
f 339 338 548
f 548 338 543
f 338 337 543
f 543 337 544
f 337 336 544
f 544 336 549
f 336 335 549
f 549 335 545
f 335 334 545
f 545 334 540
f 334 333 540
f 540 333 541
f 333 332 541
f 541 332 542
f 332 331 542
f 542 331 359
f 363 362 531
f 362 361 531
f 531 361 532
f 361 378 532
f 532 378 533
f 378 377 533
f 533 377 534
f 377 376 534
f 534 376 535
f 376 375 535
f 535 375 536
f 375 374 536
f 536 374 537
f 374 373 537
f 537 373 538
f 373 372 538
f 538 372 539
f 372 371 539
f 539 371 516
f 371 370 516
f 516 370 517
f 370 369 517
f 517 369 518
f 369 368 518
f 518 368 519
f 368 367 519
f 519 367 520
f 367 366 520
f 520 366 521
f 366 365 521
f 521 365 522
f 365 364 522
f 522 364 523
f 364 524 523
f 356 276 355
f 276 292 355
f 355 292 354
f 292 303 354
f 354 303 353
f 303 262 353
f 353 262 352
f 262 261 352
f 352 261 351
f 261 307 351
f 351 307 350
f 307 302 350
