v -0.0457076 0.11042 0.0081
v -0.0449076 0.11042 0.0073
v -0.0449076 0.11042 -0.0073
v -0.0449079 0.10392 0.0073
v -0.0577641 0.119421 0.00398405
v -0.0536513 0.11942 0.00137585
v -0.0580937 0.119421 -0.00394066
v -0.0611632 0.119421 -0.00137585
v -0.0613913 0.119421 -0.000356865
v -0.0540331 0.119387 0.00237299
v -0.0535339 0.119387 0.00141885
v -0.0532987 0.119387 0.000368017
v -0.0570392 0.119387 -0.00410855
v -0.0566904 0.119347 0.00411481
v -0.0532471 0.119347 0.000372636
v -0.0536181 0.119347 -0.00175735
v -0.0542021 0.119347 -0.00267816
v -0.0559706 0.119347 -0.00392192
v -0.0613291 0.119348 -0.00143666
v -0.0606124 0.119348 0.00267816
v -0.0532533 0.119295 -0.000723598
v -0.0581308 0.119296 -0.00415395
v -0.0591813 0.119296 -0.00382513
v -0.0601109 0.119296 -0.00323563
v -0.0608562 0.119296 -0.00242563
v -0.0616069 0.119296 -0.000376181
v -0.0615612 0.119296 0.000723598
v -0.0598329 0.119296 0.00344895
v -0.0577834 0.119296 0.00419969
v -0.048856 0.0982821 0.0073
v -0.0651537 0.0932963 0.0081
v -0.0456874 0.102189 0.0091
v -0.0455213 0.105032 0.0091
v -0.0500416 0.101575 0.0133
v -0.0517049 0.106078 0.0135
v -0.0511194 0.106211 0.0135
v -0.0505194 0.106187 0.0135
v -0.047553 0.0989459 -0.0073
v -0.0455213 0.105032 -0.0091
v -0.0485628 0.104787 -0.0133
v -0.0490302 0.105249 -0.0135
v -0.049438 0.105689 -0.0135
v -0.0517049 0.106078 -0.0135
v -0.0748088 0.0974865 0.0073
v -0.0746151 0.0989199 0.0073
v -0.0740841 0.100265 0.0073
v -0.0732464 0.101445 -0.0073
v -0.0740841 0.100265 -0.0073
v -0.0746151 0.0989199 -0.0073
v -0.0746538 0.0960483 -0.0073
v -0.072465 0.101515 0.0091
v -0.073404 0.100429 0.0091
v -0.0740299 0.0991366 0.0091
v -0.0718325 0.092811 -0.0091
v -0.0676981 0.0920191 -0.0091
v -0.072465 0.101515 -0.0091
v -0.073404 0.100429 -0.0091
v -0.0743 0.0977264 -0.0091
v -0.067845 0.0950991 -0.0133
v -0.0696965 0.0995277 -0.0135
v -0.0710907 0.0976983 -0.0135
v -0.0712869 0.0970712 0.0133
v -0.0679222 0.0952836 0.0135
v -0.0696965 0.0995277 0.0135
f 60 22 43
f 60 56 24
f 53 52 46
f 1 2 10
f 35 29 64
f 15 2 3
f 27 20 9
f 27 46 52
f 27 52 20
f 5 10 6
f 5 9 20
f 5 7 9
f 5 6 7
f 51 52 64
f 51 20 52
f 28 64 29
f 28 51 64
f 28 20 51
f 28 29 5
f 28 5 20
f 59 61 41
f 54 58 61
f 54 50 58
f 54 61 59
f 54 59 55
f 54 44 50
f 54 63 44
f 40 41 3
f 40 3 39
f 40 59 41
f 38 30 55
f 38 32 30
f 38 40 39
f 38 55 59
f 38 59 40
f 17 16 3
f 17 3 18
f 17 7 6
f 13 22 7
f 13 43 22
f 13 7 17
f 13 17 18
f 42 3 41
f 42 18 3
f 42 43 13
f 42 13 18
f 49 58 50
f 49 50 44
f 57 48 47
f 57 49 48
f 57 58 49
f 57 61 58
f 57 47 19
f 57 60 61
f 57 56 60
f 8 9 7
f 8 19 9
f 8 7 24
f 26 9 19
f 26 27 9
f 26 47 48
f 26 19 47
f 26 48 46
f 26 46 27
f 25 24 56
f 25 56 57
f 25 57 19
f 25 19 8
f 25 8 24
f 23 22 60
f 23 60 24
f 23 7 22
f 23 24 7
f 45 44 53
f 45 53 46
f 45 49 44
f 14 29 37
f 14 37 1
f 14 1 10
f 14 5 29
f 14 10 5
f 36 37 29
f 36 29 35
f 33 2 1
f 33 1 37
f 4 3 2
f 4 2 33
f 4 33 32
f 4 39 3
f 4 38 39
f 4 32 38
f 31 55 30
f 31 30 63
f 31 54 55
f 31 63 54
f 34 30 32
f 34 63 30
f 34 37 63
f 34 33 37
f 34 32 33
f 62 63 64
f 62 64 52
f 62 52 53
f 62 53 44
f 62 44 63
f 21 3 16
f 21 15 3
f 12 21 16
f 12 15 21
f 12 16 17
f 12 17 6
f 11 10 2
f 11 6 10
f 11 2 15
f 11 15 12
f 11 12 6
f 42 61 60
f 42 41 61
f 42 60 43
f 45 48 49
f 45 46 48
f 36 64 63
f 36 35 64
f 36 63 37
