v -0.0627074 0.115921 -0.0073
v -0.0627074 0.115921 0.0073
v -0.0622633 0.117981 0.0073
v -0.0622633 0.117981 -0.0073
v -0.0627076 0.110421 -0.0073
v -0.0627076 0.110421 0.0073
v -0.0619074 0.115921 -0.0081
v -0.0619076 0.110421 -0.0081
v -0.0503082 0.11042 -0.00811704
v -0.0619074 0.115921 0.0081
v -0.0619076 0.110421 0.0081
v -0.0615343 0.117651 0.0081
v -0.0499376 0.11042 0.0086
v -0.0501259 0.11042 0.00820908
v -0.0435501 0.11042 0.009
v -0.0435501 0.11042 -0.009
v -0.0499376 0.11042 -0.009
v -0.04355 0.11242 0.011
v -0.0479375 0.11242 0.011
v -0.0483826 0.111975 0.0109499
v -0.0435501 0.111975 0.0109499
v -0.0488053 0.111552 0.0108019
v -0.0491846 0.111173 0.0105637
v -0.0495013 0.110857 0.010247
v -0.0497396 0.110618 0.00986777
v -0.0435501 0.110618 0.00986777
v -0.0499251 0.110433 0.00922393
v -0.0498875 0.11047 0.00944504
v -0.0435486 0.14442 0.011
v -0.0479361 0.14442 0.011
v -0.0489361 0.14442 0.0107321
v -0.0435486 0.145455 0.0108637
v -0.0435485 0.14642 0.0104641
v -0.0435485 0.147248 0.00982843
v -0.047936 0.147548 0.00949396
v -0.0479359 0.148024 0.00873553
v -0.0435484 0.148284 0.00803528
v -0.0435484 0.14842 0.007
v -0.0484536 0.148352 0.007
v -0.0489359 0.148059 0.00783046
v -0.0496681 0.145088 0.00992478
v -0.0498679 0.145513 0.00926831
v -0.0435484 0.14842 -0.007
v -0.0435486 0.14442 -0.011
v -0.0435485 0.14642 -0.0104641
v -0.0435501 0.110856 -0.010247
v -0.0435501 0.111173 -0.0105637
v -0.0435484 0.148284 -0.00803528
v -0.0435501 0.111552 -0.0108019
v -0.04355 0.11242 -0.011
v -0.0435501 0.111975 -0.0109499
v -0.0435501 0.11047 -0.00944504
v -0.0499251 0.110433 -0.00922393
v -0.0497396 0.110618 -0.00986777
v -0.0495013 0.110857 -0.010247
v -0.0491846 0.111173 -0.0105637
v -0.0483826 0.111975 -0.0109499
v -0.0479375 0.11242 -0.011
v -0.0479359 0.148024 -0.00873553
v -0.047936 0.146914 -0.0101273
v -0.0484537 0.14442 -0.0109319
v -0.049668 0.14742 -0.007
v -0.0493502 0.147749 -0.00775973
v -0.0496681 0.146291 -0.00934549
f 52 49 44
f 52 15 16
f 6 11 10
f 20 10 11
f 20 30 10
f 53 52 16
f 9 16 15
f 9 11 8
f 58 44 50
f 58 50 57
f 51 49 57
f 51 57 50
f 51 44 49
f 51 50 44
f 34 52 44
f 34 29 52
f 34 33 29
f 14 9 15
f 14 11 9
f 17 16 9
f 17 9 8
f 17 53 16
f 17 8 53
f 32 30 29
f 32 33 30
f 32 29 33
f 43 38 34
f 7 8 5
f 7 57 8
f 2 6 10
f 62 40 63
f 23 11 24
f 21 29 18
f 21 15 52
f 21 52 29
f 21 18 20
f 19 30 20
f 19 20 18
f 54 52 53
f 54 46 52
f 54 55 46
f 54 53 8
f 54 8 55
f 56 57 49
f 56 46 55
f 56 8 57
f 56 55 8
f 13 15 11
f 13 14 15
f 13 11 14
f 39 38 43
f 39 40 36
f 39 63 40
f 45 48 43
f 45 34 44
f 45 43 34
f 59 43 48
f 59 48 45
f 59 45 60
f 59 63 39
f 59 39 43
f 64 62 63
f 64 4 62
f 64 63 59
f 64 59 60
f 37 34 38
f 37 36 34
f 37 38 39
f 37 39 36
f 35 33 34
f 35 34 36
f 35 30 33
f 35 36 40
f 35 40 41
f 31 10 30
f 31 30 35
f 31 35 41
f 1 7 5
f 1 4 7
f 61 57 7
f 61 64 60
f 61 44 58
f 61 58 57
f 61 45 44
f 61 60 45
f 61 7 4
f 61 4 64
f 12 10 31
f 12 31 41
f 42 41 40
f 3 62 4
f 3 40 62
f 3 42 40
f 3 41 42
f 3 12 41
f 3 2 10
f 3 10 12
f 27 11 15
f 27 15 28
f 27 28 11
f 26 28 15
f 26 15 21
f 26 23 24
f 26 21 23
f 25 24 11
f 25 11 28
f 25 26 24
f 25 28 26
f 22 20 11
f 22 11 23
f 22 21 20
f 22 23 21
f 47 49 52
f 47 52 46
f 47 56 49
f 47 46 56
f 6 8 11
f 6 5 8
f 19 18 29
f 19 29 30
f 1 5 6
f 1 6 2
f 3 1 2
f 3 4 1
