v -0.0705412 0.0996058 -0.0136
v -0.0752428 0.0964778 -0.0136
v -0.067606 0.10122 -0.0136
v -0.0606117 0.0466307 -0.0136
v -0.0501761 0.057816 -0.0136
v -0.0648116 0.0514861 -0.0136
v -0.0683229 0.103386 -0.0116
v -0.0632103 0.0995621 -0.0116
v -0.0696276 0.103079 -0.0126
v -0.0662819 0.10172 -0.0133321
v -0.0771549 0.096202 -0.0121176
v -0.0772223 0.0961923 -0.0116
v -0.0772416 0.0977585 -0.0116
v -0.0760886 0.100642 -0.0116
v -0.0766425 0.0962759 -0.0130142
v -0.0757551 0.0964039 -0.0135319
v -0.0736212 0.102501 -0.0121176
v -0.0754785 0.098726 -0.0135319
v -0.0757697 0.0975831 -0.0135319
v -0.0476595 0.0559229 -0.0116
v -0.050373 0.0508287 -0.0116
v -0.0507854 0.0514588 -0.0131637
v -0.0497358 0.0537591 -0.0135499
v -0.0484077 0.0530517 -0.012045
v -0.0492296 0.0518017 -0.0056
v -0.0483634 0.0530281 -0.0056
v -0.0478289 0.0544311 -0.0056
v -0.0636439 0.0440769 -0.0116
v -0.0611695 0.0444337 -0.0055
v -0.0652101 0.0440575 -0.0116
v -0.0667279 0.0444442 -0.0116
v -0.068094 0.0452106 -0.0116
v -0.0700149 0.0476511 -0.0116
v -0.070439 0.0491589 -0.0116
v -0.0689718 0.0493705 -0.0135319
v -0.0643809 0.0859437 0.0131637
v -0.0656151 0.0857657 0.0136
v -0.0652558 0.0870301 0.0135499
v -0.0737578 0.100192 0.0136
v -0.0736481 0.102563 0.0116
v -0.0760484 0.100612 0.012045
v -0.0703715 0.0491687 0.0121176
v -0.0637867 0.0450666 0.0133321
v -0.0636536 0.0441443 0.0121176
v -0.0680531 0.0452652 0.0121176
v -0.0672061 0.0463977 0.0135319
v -0.0483634 0.0530281 0.0116
v -0.0476595 0.0559229 0.0056
v -0.0478657 0.0574101 0.0116
v -0.0501761 0.057816 0.0136
v -0.0496593 0.0558983 0.0136
v -0.0509207 0.0516654 0.0133321
v -0.0477276 0.0559221 0.0121176
v -0.0479315 0.0573924 0.0121176
v -0.048494 0.058766 0.0121176
v -0.0485999 0.0531541 0.0126
v -0.0484313 0.0572577 0.0130142
v -0.0489447 0.0585115 0.0130142
v -0.0493054 0.0583078 0.0133321
v -0.049297 0.0570244 0.0135319
v -0.0592877 0.0461888 0.0133321
v -0.0606117 0.0466307 0.0136
v -0.0599045 0.0447599 0.0116
v -0.065026 0.0503723 0.0136
f 36 40 38
f 58 55 36
f 58 36 38
f 39 40 41
f 39 38 40
f 39 37 38
f 39 46 64
f 39 41 42
f 39 42 46
f 12 41 13
f 12 13 11
f 12 42 41
f 12 34 42
f 12 11 34
f 15 34 11
f 15 11 13
f 15 13 18
f 33 42 34
f 31 30 44
f 31 4 30
f 28 44 30
f 28 29 44
f 28 30 4
f 28 4 21
f 28 21 29
f 63 44 29
f 63 61 44
f 63 29 21
f 63 47 52
f 63 52 61
f 45 46 42
f 45 42 33
f 45 33 32
f 45 31 44
f 45 32 31
f 43 44 61
f 43 45 44
f 43 46 45
f 25 26 47
f 25 63 21
f 25 47 63
f 27 47 26
f 27 20 48
f 27 53 47
f 27 48 53
f 8 36 55
f 8 40 36
f 14 13 41
f 14 18 13
f 14 17 18
f 14 41 40
f 14 40 17
f 7 17 40
f 7 40 8
f 7 8 10
f 9 10 3
f 9 3 18
f 9 18 17
f 9 7 10
f 9 17 7
f 19 2 16
f 19 18 2
f 19 16 15
f 19 15 18
f 1 18 3
f 1 2 18
f 35 15 16
f 35 34 15
f 35 2 6
f 35 16 2
f 35 33 34
f 35 32 33
f 35 6 4
f 35 4 31
f 35 31 32
f 24 23 20
f 24 20 27
f 24 27 26
f 24 25 21
f 24 26 25
f 22 21 4
f 22 4 23
f 22 24 21
f 22 23 24
f 5 23 4
f 5 3 10
f 5 20 23
f 5 8 20
f 5 10 8
f 50 38 37
f 50 60 38
f 50 51 60
f 62 64 46
f 62 43 61
f 62 46 43
f 62 61 52
f 62 52 51
f 49 53 48
f 49 48 20
f 49 20 8
f 49 8 55
f 56 60 51
f 56 51 52
f 56 52 47
f 56 47 53
f 59 38 60
f 59 58 38
f 54 55 58
f 54 49 55
f 54 53 49
f 57 60 56
f 57 56 53
f 57 59 60
f 57 58 59
f 57 53 54
f 57 54 58
f 5 1 3
f 5 4 6
f 5 6 2
f 5 2 1
f 62 50 37
f 62 37 39
f 62 39 64
f 62 51 50
