v -0.0600574 0.114421 -2.02224e-14
v -0.0599671 0.114421 0.00068587
v -0.0597024 0.114421 0.001325
v -0.0592813 0.114421 0.00187383
v -0.0587324 0.114421 0.00229497
v -0.0580933 0.114421 0.0025597
v -0.0574074 0.114421 0.00265
v -0.0567216 0.114421 0.0025597
v -0.0560824 0.114421 0.00229497
v -0.0555336 0.114421 0.00187383
v -0.0551125 0.114421 0.001325
v -0.0548477 0.114421 0.00068587
v -0.0547574 0.11442 -2.02234e-14
v -0.0548477 0.114421 -0.00068587
v -0.0551125 0.114421 -0.001325
v -0.0555336 0.114421 -0.00187383
v -0.0560824 0.114421 -0.00229497
v -0.0567216 0.114421 -0.0025597
v -0.0574074 0.114421 -0.00265
v -0.0580933 0.114421 -0.0025597
v -0.0587324 0.114421 -0.00229497
v -0.0592813 0.114421 -0.00187383
v -0.0597024 0.114421 -0.001325
v -0.0599671 0.114421 -0.00068587
v -0.0599671 0.114422 0.00068587
v -0.0600574 0.114422 -2.02164e-14
v -0.0597024 0.114422 0.001325
v -0.0592813 0.114422 0.00187383
v -0.0587324 0.114422 0.00229497
v -0.0580933 0.114422 0.0025597
v -0.0574074 0.114422 0.00265
v -0.0567216 0.114422 0.0025597
v -0.0560824 0.114422 0.00229497
v -0.0555336 0.114422 0.00187383
v -0.0551125 0.114422 0.001325
v -0.0548477 0.114422 0.00068587
v -0.0547574 0.114421 -2.02234e-14
v -0.0548477 0.114422 -0.00068587
v -0.0551125 0.114422 -0.001325
v -0.0555336 0.114422 -0.00187383
v -0.0560824 0.114422 -0.00229497
v -0.0567216 0.114422 -0.0025597
v -0.0574074 0.114422 -0.00265
v -0.0580933 0.114422 -0.0025597
v -0.0587324 0.114422 -0.00229497
v -0.0592813 0.114422 -0.00187383
v -0.0597024 0.114422 -0.001325
v -0.0599671 0.114422 -0.00068587
v -0.0585721 0.114421 0.00434667
v -0.0574074 0.114421 0.0045
v -0.0562428 0.114421 0.00434667
v -0.0605894 0.114421 0.00318198
v -0.0596574 0.114421 0.00389711
v -0.0551574 0.114421 0.00389711
v -0.0535103 0.11442 0.00225
v -0.0530608 0.11442 0.00116469
v -0.0529074 0.11442 -2.02254e-14
v -0.0530608 0.11442 -0.00116469
v -0.0574074 0.114421 -0.0045
v -0.0585721 0.114421 -0.00434667
v -0.0617541 0.114421 0.00116469
v -0.0613046 0.114421 0.00225
v -0.0542255 0.11442 0.00318198
v -0.0535103 0.11442 -0.00225
v -0.0542255 0.11442 -0.00318198
v -0.0551574 0.114421 -0.00389711
v -0.0562428 0.114421 -0.00434667
v -0.0596574 0.114421 -0.00389711
v -0.0613046 0.114421 -0.00225
v -0.0617541 0.114421 -0.00116469
v -0.0605894 0.114421 -0.00318198
v -0.0619074 0.114421 -2.02134e-14
v -0.06101 0.119675 -0.00269629
v -0.0605592 0.119993 -0.00315231
v -0.0617269 0.118894 -0.00126126
v -0.0613043 0.119394 -0.00225
v -0.0618673 0.118695 -0.000598261
v -0.0617539 0.118858 -0.00116469
v -0.0619073 0.118634 -2.07941e-14
v -0.0618676 0.118694 0.000595885
v -0.0617476 0.118865 0.00116334
v -0.0617269 0.118894 0.00126126
v -0.0609958 0.119658 0.00265213
v -0.0613043 0.119394 0.00225
v -0.0601448 0.120286 0.00357148
v -0.0605892 0.120007 0.00318198
v -0.0596572 0.120559 0.00389711
v -0.0585718 0.121165 0.00434667
v -0.0574071 0.121815 0.0045
v -0.0562424 0.122465 0.00434667
v -0.0551571 0.123071 0.00389711
v -0.0542251 0.123591 0.00318198
v -0.0538369 0.123808 0.00273943
v -0.0532496 0.124136 0.00172208
v -0.0535099 0.123991 0.00225
v -0.0529455 0.124306 0.000587368
v -0.0530603 0.124242 0.00116469
v -0.0529455 0.124306 -0.000587368
v -0.052907 0.124327 -2.02235e-14
v -0.0532496 0.124136 -0.00172208
v -0.0530603 0.124242 -0.00116469
v -0.0538369 0.123808 -0.00273943
v -0.0535099 0.123991 -0.00225
v -0.0542251 0.123591 -0.00318198
v -0.0551571 0.123071 -0.00389711
v -0.0562424 0.122465 -0.00434667
v -0.0574071 0.121815 -0.0045
v -0.0585718 0.121165 -0.00434667
v -0.0596572 0.120559 -0.00389711
v -0.0601448 0.120286 -0.00357148
v -0.0627074 0.115921 -0.0073
v -0.0627074 0.115921 0.0073
v -0.0625951 0.116974 0.0073
v -0.0625951 0.116974 -0.0073
v -0.0622633 0.117981 0.0073
v -0.06101 0.119675 0.0073
v -0.0601448 0.120286 0.0073
v -0.0617269 0.118894 0.0073
v -0.0617269 0.118894 -0.0073
v -0.0622633 0.117981 -0.0073
v -0.06101 0.119675 -0.0073
v -0.0601448 0.120286 -0.0073
v -0.0627076 0.110421 -0.0073
v -0.0627076 0.110421 0.0073
v -0.0619074 0.115921 -0.0081
v -0.0619076 0.110421 -0.0081
v -0.0597548 0.119588 -0.0081
v -0.0604816 0.119074 -0.0081
v -0.0610838 0.118419 -0.0081
v -0.0615343 0.117651 -0.0081
v -0.061813 0.116806 -0.0081
v -0.0526969 0.123528 -0.0081
v -0.0530869 0.124227 -0.0073
v -0.0504376 0.11042 -0.0081
v -0.0509655 0.125177 -0.0081
v -0.0504606 0.126271 -0.0081
v -0.0517269 0.124243 -0.0081
v -0.0504369 0.126348 -0.0081
v -0.0504136 0.126875 -0.00803538
v -0.0501665 0.127423 -0.00817943
v -0.0501891 0.127333 -0.00817279
v -0.0506581 0.126333 -0.00789282
v -0.050313 0.12684 -0.00813639
v -0.0509426 0.125966 -0.00778761
v -0.0513621 0.125425 -0.0076324
v -0.0516511 0.125187 -0.00755801
v -0.0521977 0.124738 -0.00741728
v -0.0524994 0.124555 -0.00735621
v -0.050101 0.127735 -0.00826156
v -0.0500723 0.127872 -0.00829754
v -0.0500046 0.11042 -0.00835
v -0.0500841 0.11042 -0.00824645
v -0.0499547 0.11042 -0.00847059
v -0.0500207 0.128118 -0.00836228
v -0.0499665 0.128377 -0.00843037
v -0.0499376 0.11042 -0.0086
v -0.0499591 0.128509 -0.00847166
v -0.0499368 0.128907 -0.00859574
v -0.0503082 0.11042 -0.00811704
v -0.0501876 0.11042 -0.00816699
v -0.0499368 0.12892 -0.0086
v -0.0619074 0.115921 0.0081
v -0.0619076 0.110421 0.0081
v -0.061813 0.116806 0.0081
v -0.0615343 0.117651 0.0081
v -0.0610838 0.118419 0.0081
v -0.0604816 0.119074 0.0081
v -0.0597548 0.119588 0.0081
v -0.0524994 0.124555 0.00735621
v -0.0530869 0.124227 0.0073
v -0.0526969 0.123528 0.0081
v -0.0504376 0.11042 0.0081
v -0.0504369 0.126348 0.0081
v -0.0504606 0.126271 0.0081
v -0.0517269 0.124243 0.0081
v -0.0509655 0.125177 0.0081
v -0.0499665 0.128377 0.00843037
v -0.0499558 0.128568 0.00848999
v -0.0499368 0.128907 0.00859574
v -0.0500666 0.127899 0.00830473
v -0.0500723 0.127872 0.00829754
v -0.0499978 0.128227 0.00839101
v -0.0499368 0.12892 0.0086
v -0.0501665 0.127423 0.00817943
v -0.0501354 0.127571 0.00821845
v -0.0503809 0.12686 0.0080345
v -0.0506815 0.126348 0.00789455
v -0.0509173 0.125947 0.00778476
v -0.0513803 0.125443 0.00763563
v -0.0516342 0.125166 0.00755385
v -0.0522113 0.124759 0.00742202
v -0.0503307 0.12677 0.00813119
v -0.0502244 0.127192 0.0081624
v -0.0499376 0.11042 0.0086
v -0.0499502 0.11042 0.00848874
v -0.0499871 0.11042 0.00838306
v -0.0501259 0.11042 0.00820908
v -0.0500467 0.11042 0.00828825
v -0.0502207 0.11042 0.00814952
v -0.0503264 0.11042 0.00811254
v -0.0435501 0.11042 0.009
v -0.0499376 0.11042 0.009
v -0.0435501 0.11042 -0.009
v -0.0499376 0.11042 -0.009
v -0.04355 0.11242 0.011
v -0.0479375 0.11242 0.011
v -0.0483826 0.111975 0.0109499
v -0.0435501 0.111975 0.0109499
v -0.0488053 0.111552 0.0108019
v -0.0435501 0.111552 0.0108019
v -0.0491846 0.111173 0.0105637
v -0.0435501 0.111173 0.0105637
v -0.0495013 0.110857 0.010247
v -0.0435501 0.110856 0.010247
v -0.0497396 0.110618 0.00986777
v -0.0498254 0.110533 0.00966056
v -0.0435501 0.11047 0.00944504
v -0.0435501 0.110618 0.00986777
v -0.0499251 0.110433 0.00922393
v -0.0498875 0.11047 0.00944504
v -0.0435486 0.14442 0.011
v -0.0479361 0.14442 0.011
v -0.0498777 0.14442 0.00944395
v -0.0499361 0.14442 0.009
v -0.0497251 0.14442 0.00986242
v -0.049868 0.14442 0.00951764
v -0.0496682 0.14442 0.01
v -0.0494865 0.14442 0.0102368
v -0.0491729 0.14442 0.0105504
v -0.0493503 0.14442 0.0104142
v -0.0487985 0.14442 0.010789
v -0.0489361 0.14442 0.0107321
v -0.0483801 0.14442 0.0109416
v -0.0484537 0.14442 0.0109319
v -0.0435486 0.145455 0.0108637
v -0.0479361 0.14531 0.0108997
v -0.0479361 0.145451 0.0108505
v -0.0435485 0.14642 0.0104641
v -0.047936 0.146156 0.0106039
v -0.047936 0.146408 0.0104452
v -0.0435485 0.147248 0.00982843
v -0.047936 0.146914 0.0101273
v -0.047936 0.147231 0.00981064
v -0.047936 0.147548 0.00949396
v -0.0435484 0.147884 0.009
v -0.047936 0.147865 0.00898811
v -0.0479359 0.148024 0.00873553
v -0.0435484 0.148284 0.00803528
v -0.0479359 0.148271 0.00803066
v -0.0479359 0.14832 0.00789008
v -0.0435484 0.14842 0.007
v -0.0479359 0.14842 0.007
v -0.0498678 0.146938 0.007
v -0.049936 0.14642 0.007
v -0.049936 0.14637 0.00744504
v -0.049936 0.146222 0.00786777
v -0.049936 0.145984 0.00824698
v -0.049936 0.145667 0.00856366
v -0.0499361 0.145288 0.00880194
v -0.0499361 0.144865 0.00894986
v -0.049668 0.14742 0.007
v -0.0493502 0.147834 0.007
v -0.0489359 0.148152 0.007
v -0.0484536 0.148352 0.007
v -0.0484537 0.145295 0.0108333
v -0.0484537 0.146126 0.0105425
v -0.0484536 0.146872 0.010074
v -0.0484536 0.147494 0.00945147
v -0.0484536 0.147963 0.00870597
v -0.0484536 0.148253 0.00787492
v -0.0489361 0.145251 0.0106385
v -0.048936 0.14604 0.0103625
v -0.048936 0.146747 0.00991783
v -0.048936 0.147338 0.0093269
v -0.048936 0.147783 0.00861928
v -0.0489359 0.148059 0.00783046
v -0.0493503 0.14518 0.0103286
v -0.0493503 0.145902 0.0100761
v -0.0493502 0.146549 0.00966934
v -0.0493502 0.14709 0.00912873
v -0.0493502 0.147496 0.00848137
v -0.0493502 0.147749 0.00775973
v -0.0496681 0.145088 0.00992478
v -0.0496681 0.145722 0.00970291
v -0.0496681 0.146291 0.00934549
v -0.0496681 0.146766 0.00887047
v -0.049668 0.147123 0.00830165
v -0.049668 0.147345 0.00766756
v -0.0498679 0.144981 0.00945452
v -0.0498679 0.145513 0.00926831
v -0.0498679 0.14599 0.00896837
v -0.0498679 0.146389 0.00856972
v -0.0498679 0.146689 0.00809236
v -0.0498678 0.146875 0.00756023
v -0.0435484 0.14842 -0.007
v -0.0479359 0.14842 -0.007
v -0.0435486 0.14442 -0.011
v -0.0435486 0.145455 -0.0108637
v -0.0435485 0.14642 -0.0104641
v -0.0435501 0.110618 -0.00986777
v -0.0435501 0.110856 -0.010247
v -0.0435501 0.111173 -0.0105637
v -0.0435484 0.147884 -0.009
v -0.0435484 0.148284 -0.00803528
v -0.0435485 0.147248 -0.00982843
v -0.0435501 0.111552 -0.0108019
v -0.04355 0.11242 -0.011
v -0.0435501 0.111975 -0.0109499
v -0.0435501 0.11047 -0.00944504
v -0.0499251 0.110433 -0.00922393
v -0.0498254 0.110533 -0.00966056
v -0.0498875 0.11047 -0.00944504
v -0.0497396 0.110618 -0.00986777
v -0.0495013 0.110857 -0.010247
v -0.0491846 0.111173 -0.0105637
v -0.0488053 0.111552 -0.0108019
v -0.0483826 0.111975 -0.0109499
v -0.0479375 0.11242 -0.011
v -0.0479361 0.14442 -0.011
v -0.0499361 0.14442 -0.009
v -0.049936 0.145667 -0.00856366
v -0.0499361 0.145288 -0.00880194
v -0.049936 0.146222 -0.00786777
v -0.049936 0.145984 -0.00824698
v -0.049936 0.14637 -0.00744504
v -0.049936 0.14642 -0.007
v -0.0499361 0.144865 -0.00894986
v -0.0479359 0.14832 -0.00789008
v -0.0479359 0.148271 -0.00803066
v -0.0479359 0.148024 -0.00873553
v -0.047936 0.147865 -0.00898811
v -0.047936 0.147548 -0.00949396
v -0.047936 0.147231 -0.00981064
v -0.047936 0.146914 -0.0101273
v -0.047936 0.146408 -0.0104452
v -0.047936 0.146156 -0.0106039
v -0.0479361 0.145451 -0.0108505
v -0.0479361 0.14531 -0.0108997
v -0.0487985 0.14442 -0.010789
v -0.0484537 0.14442 -0.0109319
v -0.0491729 0.14442 -0.0105504
v -0.0489361 0.14442 -0.0107321
v -0.0493503 0.14442 -0.0104142
v -0.0494865 0.14442 -0.0102368
v -0.0497251 0.14442 -0.00986242
v -0.0496682 0.14442 -0.01
v -0.0498777 0.14442 -0.00944395
v -0.049868 0.14442 -0.00951764
v -0.0483801 0.14442 -0.0109416
v -0.0498678 0.146938 -0.007
v -0.049668 0.14742 -0.007
v -0.0493502 0.147834 -0.007
v -0.0489359 0.148152 -0.007
v -0.0484536 0.148352 -0.007
v -0.0498678 0.146875 -0.00756023
v -0.049668 0.147345 -0.00766756
v -0.0489359 0.148059 -0.00783046
v -0.0484536 0.148253 -0.00787492
v -0.0484536 0.147963 -0.00870597
v -0.0484536 0.147494 -0.00945147
v -0.0484536 0.146872 -0.010074
v -0.0484537 0.146126 -0.0105425
v -0.0484537 0.145295 -0.0108333
v -0.0489361 0.145251 -0.0106385
v -0.048936 0.14604 -0.0103625
v -0.048936 0.146747 -0.00991783
v -0.048936 0.147338 -0.0093269
v -0.048936 0.147783 -0.00861928
v -0.0493502 0.147749 -0.00775973
v -0.0493502 0.147496 -0.00848137
v -0.0493502 0.14709 -0.00912873
v -0.0493502 0.146549 -0.00966934
v -0.0493503 0.145902 -0.0100761
v -0.0493503 0.14518 -0.0103286
v -0.0496681 0.145088 -0.00992478
v -0.0496681 0.145722 -0.00970291
v -0.0496681 0.146291 -0.00934549
v -0.0496681 0.146766 -0.00887047
v -0.049668 0.147123 -0.00830165
v -0.0498679 0.146689 -0.00809236
v -0.0498679 0.146389 -0.00856972
v -0.0498679 0.14599 -0.00896837
v -0.0498679 0.145513 -0.00926831
v -0.0498679 0.144981 -0.00945452
f 252 250 251
f 250 248 251
f 250 249 248
f 249 247 248
f 248 247 245
f 247 246 245
f 246 244 245
f 245 244 241
f 244 243 241
f 243 242 241
f 241 242 238
f 242 240 238
f 240 239 238
f 238 239 235
f 222 221 236
f 221 235 236
f 236 235 237
f 235 239 237
f 222 206 221
f 206 205 221
f 202 201 219
f 201 217 219
f 219 217 220
f 220 217 216
f 217 218 216
f 216 218 215
f 218 214 215
f 215 214 213
f 214 212 213
f 213 212 211
f 212 210 211
f 211 210 209
f 210 208 209
f 209 208 207
f 208 205 207
f 207 205 206
f 134 159 200
f 204 203 156
f 203 153 156
f 159 160 201
f 160 152 201
f 201 152 203
f 152 151 203
f 203 151 153
f 195 201 194
f 201 202 194
f 200 159 199
f 195 196 201
f 196 198 201
f 201 198 159
f 198 197 159
f 159 197 199
f 163 124 123
f 200 172 134
f 172 163 134
f 134 163 126
f 163 123 126
f 318 307 308
f 318 308 317
f 308 306 317
f 317 306 316
f 306 302 316
f 316 302 315
f 302 301 315
f 315 301 314
f 301 300 314
f 314 300 313
f 313 300 311
f 300 309 311
f 311 309 312
f 312 309 310
f 309 203 310
f 310 203 204
f 318 319 307
f 319 297 307
f 319 338 297
f 338 298 297
f 338 337 298
f 337 336 298
f 298 336 299
f 336 335 299
f 335 334 299
f 299 334 305
f 334 333 305
f 333 332 305
f 305 332 303
f 332 331 303
f 331 330 303
f 303 330 304
f 296 295 328
f 295 304 328
f 328 304 329
f 304 330 329
f 251 295 252
f 295 296 252
f 71 68 110
f 110 68 109
f 68 60 109
f 109 60 108
f 60 59 108
f 108 59 107
f 59 67 107
f 107 67 106
f 67 66 106
f 106 66 105
f 66 65 105
f 105 65 104
f 104 65 102
f 65 64 102
f 102 64 103
f 103 64 100
f 64 58 100
f 100 58 101
f 101 58 98
f 58 57 98
f 98 57 99
f 99 57 96
f 57 56 96
f 96 56 97
f 97 56 94
f 56 55 94
f 94 55 95
f 95 55 93
f 55 63 93
f 93 63 92
f 63 54 92
f 92 54 91
f 54 51 91
f 91 51 90
f 51 50 90
f 90 50 89
f 50 49 89
f 89 49 88
f 49 53 88
f 88 53 87
f 87 53 85
f 53 52 85
f 85 52 86
f 86 52 83
f 52 62 83
f 83 62 84
f 61 81 62
f 81 82 62
f 62 82 84
f 70 77 72
f 77 79 72
f 72 79 61
f 79 80 61
f 61 80 81
f 69 75 70
f 75 78 70
f 70 78 77
f 110 74 71
f 74 73 71
f 71 73 69
f 73 76 69
f 69 76 75
f 124 112 123
f 112 111 123
f 183 194 202
f 320 204 161
f 204 156 161
f 255 254 224
f 202 224 183
f 224 254 183
f 183 254 161
f 254 326 161
f 161 326 320
f 259 258 257
f 259 257 260
f 260 257 224
f 257 256 224
f 224 256 255
f 326 325 320
f 325 323 320
f 320 323 324
f 324 321 320
f 321 322 320
f 320 322 327
f 176 172 174
f 172 173 174
f 176 175 172
f 175 171 172
f 172 171 168
f 165 164 172
f 164 162 172
f 172 162 163
f 168 167 172
f 167 166 172
f 172 166 165
f 132 137 134
f 137 135 134
f 135 136 134
f 134 136 138
f 134 126 125
f 125 131 134
f 131 130 134
f 134 130 129
f 129 128 134
f 128 127 134
f 134 127 132
f 110 122 74
f 122 121 74
f 119 76 121
f 76 73 121
f 121 73 74
f 115 118 82
f 82 81 115
f 81 80 115
f 115 80 79
f 79 77 120
f 77 78 120
f 120 78 119
f 78 75 119
f 119 75 76
f 116 117 85
f 85 86 116
f 86 83 116
f 116 83 118
f 83 84 118
f 118 84 82
f 79 120 115
f 120 114 115
f 115 114 113
f 114 111 113
f 113 111 112
f 85 117 87
f 117 88 87
f 122 110 109
f 170 90 117
f 90 89 117
f 117 89 88
f 109 108 122
f 108 107 122
f 122 107 133
f 101 98 148
f 98 99 148
f 148 99 169
f 99 96 169
f 102 103 148
f 103 100 148
f 148 100 101
f 96 97 169
f 97 94 169
f 169 94 95
f 107 106 133
f 106 105 133
f 133 105 148
f 105 104 148
f 148 104 102
f 95 93 169
f 93 92 169
f 169 92 170
f 92 91 170
f 170 91 90
f 179 183 155
f 186 142 187
f 142 144 187
f 187 144 188
f 144 145 188
f 188 145 189
f 145 146 189
f 189 146 190
f 146 147 190
f 190 147 191
f 147 148 191
f 191 148 169
f 184 140 186
f 140 139 186
f 186 139 142
f 185 150 184
f 150 149 184
f 184 149 140
f 161 158 183
f 158 157 183
f 183 157 155
f 185 181 150
f 181 180 150
f 150 180 154
f 180 182 154
f 182 177 154
f 154 177 155
f 177 178 155
f 155 178 179
f 111 125 123
f 125 126 123
f 326 350 355
f 350 351 356
f 352 353 357
f 354 296 328
f 354 328 358
f 328 329 358
f 358 329 359
f 329 330 359
f 330 331 359
f 359 331 360
f 331 332 360
f 332 333 360
f 360 333 361
f 333 334 361
f 334 335 361
f 361 335 362
f 338 363 337
f 363 362 337
f 337 362 336
f 362 335 336
f 338 319 349
f 338 349 363
f 349 340 363
f 363 340 339
f 339 364 363
f 364 365 363
f 363 365 362
f 365 366 362
f 362 366 361
f 366 367 361
f 361 367 360
f 367 368 360
f 360 368 359
f 368 357 359
f 359 357 358
f 357 353 358
f 358 353 354
f 352 357 369
f 357 368 369
f 369 368 370
f 368 367 370
f 370 367 371
f 367 366 371
f 371 366 372
f 366 365 372
f 372 365 373
f 365 364 373
f 373 364 374
f 339 342 364
f 342 341 364
f 364 341 374
f 341 343 374
f 374 343 344
f 344 375 374
f 375 376 374
f 374 376 373
f 376 377 373
f 373 377 372
f 377 378 372
f 372 378 371
f 378 379 371
f 371 379 370
f 379 356 370
f 370 356 369
f 356 351 369
f 369 351 352
f 350 356 355
f 356 379 355
f 355 379 380
f 379 378 380
f 380 378 381
f 378 377 381
f 381 377 382
f 377 376 382
f 382 376 383
f 376 375 383
f 383 375 384
f 344 346 375
f 346 345 375
f 375 345 384
f 345 348 384
f 384 348 347
f 326 355 325
f 355 380 325
f 325 380 323
f 380 381 323
f 323 381 324
f 381 382 324
f 324 382 321
f 382 383 321
f 321 383 322
f 383 384 322
f 322 384 327
f 384 347 327
f 327 347 320
f 252 296 354
f 252 354 264
f 354 353 264
f 264 353 263
f 353 352 263
f 263 352 262
f 352 351 262
f 262 351 261
f 351 350 261
f 261 350 253
f 350 326 253
f 253 326 254
f 209 207 233
f 207 206 233
f 233 206 222
f 233 234 209
f 234 231 209
f 209 231 211
f 231 232 211
f 232 229 211
f 211 229 213
f 229 230 213
f 230 228 213
f 228 227 213
f 213 227 215
f 227 225 215
f 215 225 216
f 225 226 216
f 216 226 220
f 226 223 220
f 220 223 219
f 223 224 219
f 219 224 202
f 233 222 236
f 231 234 265
f 234 233 265
f 233 236 265
f 236 237 265
f 265 237 266
f 237 239 266
f 239 240 266
f 266 240 267
f 240 242 267
f 267 242 268
f 242 243 268
f 243 244 268
f 244 246 268
f 268 246 269
f 246 247 269
f 247 249 269
f 269 249 270
f 249 250 270
f 250 252 270
f 270 252 264
f 229 232 271
f 232 231 271
f 231 265 271
f 265 266 271
f 271 266 272
f 266 267 272
f 272 267 273
f 267 268 273
f 273 268 274
f 268 269 274
f 274 269 275
f 269 270 275
f 275 270 276
f 270 264 276
f 276 264 263
f 228 230 277
f 230 229 277
f 229 271 277
f 271 272 277
f 277 272 278
f 272 273 278
f 278 273 279
f 273 274 279
f 279 274 280
f 274 275 280
f 280 275 281
f 275 276 281
f 281 276 282
f 276 263 282
f 282 263 262
f 225 227 283
f 227 228 283
f 228 277 283
f 277 278 283
f 283 278 284
f 278 279 284
f 284 279 285
f 279 280 285
f 285 280 286
f 280 281 286
f 286 281 287
f 281 282 287
f 287 282 288
f 282 262 288
f 288 262 261
f 223 226 289
f 226 225 289
f 225 283 289
f 283 284 289
f 289 284 290
f 284 285 290
f 290 285 291
f 285 286 291
f 291 286 292
f 286 287 292
f 292 287 293
f 287 288 293
f 293 288 294
f 288 261 294
f 294 261 253
f 260 224 223
f 223 289 260
f 289 290 260
f 260 290 259
f 290 291 259
f 259 291 258
f 291 292 258
f 258 292 257
f 292 293 257
f 257 293 256
f 293 294 256
f 256 294 255
f 294 253 255
f 255 253 254
f 7 50 8
f 50 51 8
f 8 51 9
f 51 54 9
f 9 54 10
f 54 63 10
f 10 63 11
f 63 55 11
f 11 55 12
f 55 56 12
f 12 56 13
f 56 57 13
f 13 57 14
f 57 58 14
f 14 58 15
f 58 64 15
f 15 64 16
f 64 65 16
f 16 65 17
f 65 66 17
f 17 66 18
f 66 67 18
f 18 67 19
f 67 59 19
f 19 59 20
f 59 60 20
f 20 60 21
f 60 68 21
f 21 68 22
f 68 71 22
f 22 71 23
f 71 69 23
f 23 69 24
f 69 70 24
f 24 70 1
f 70 72 1
f 1 72 2
f 72 61 2
f 2 61 3
f 61 62 3
f 3 62 4
f 62 52 4
f 4 52 5
f 52 53 5
f 5 53 6
f 53 49 6
f 6 49 7
f 49 50 7
f 26 2 25
f 2 3 25
f 25 3 27
f 3 4 27
f 27 4 28
f 4 5 28
f 28 5 29
f 5 6 29
f 29 6 30
f 6 7 30
f 30 7 31
f 7 8 31
f 31 8 32
f 8 9 32
f 32 9 33
f 9 10 33
f 33 10 34
f 10 11 34
f 34 11 35
f 11 12 35
f 35 12 36
f 12 13 36
f 36 13 37
f 13 14 37
f 37 14 38
f 14 15 38
f 38 15 39
f 15 16 39
f 39 16 40
f 16 17 40
f 40 17 41
f 17 18 41
f 41 18 42
f 18 19 42
f 42 19 43
f 19 20 43
f 43 20 44
f 20 21 44
f 44 21 45
f 21 22 45
f 45 22 46
f 22 23 46
f 46 23 47
f 23 24 47
f 47 24 48
f 24 1 48
f 48 1 26
f 1 2 26
f 204 320 310
f 320 347 310
f 346 314 345
f 314 313 345
f 345 313 348
f 313 311 348
f 348 311 347
f 311 312 347
f 347 312 310
f 346 344 314
f 344 343 314
f 314 343 315
f 343 341 315
f 315 341 316
f 341 342 316
f 342 339 316
f 316 339 317
f 339 340 317
f 340 349 317
f 349 319 317
f 317 319 318
f 134 138 159
f 138 143 159
f 159 143 160
f 143 141 160
f 160 141 152
f 153 157 156
f 157 158 156
f 156 158 161
f 151 154 153
f 154 155 153
f 153 155 157
f 141 140 152
f 140 149 152
f 152 149 151
f 149 150 151
f 151 150 154
f 173 172 200
f 173 200 192
f 200 199 192
f 192 199 193
f 199 197 193
f 193 197 184
f 180 181 197
f 181 185 197
f 197 185 184
f 197 198 180
f 198 196 180
f 180 196 182
f 182 196 177
f 196 195 177
f 177 195 178
f 178 195 179
f 195 194 179
f 179 194 183
f 175 191 171
f 191 169 171
f 171 169 170
f 187 188 176
f 188 189 176
f 176 189 175
f 189 190 175
f 175 190 191
f 193 184 186
f 176 174 187
f 174 173 187
f 187 173 186
f 173 192 186
f 186 192 193
f 171 170 168
f 170 117 168
f 168 117 116
f 168 116 167
f 116 118 167
f 167 118 166
f 118 115 166
f 166 115 165
f 115 113 165
f 165 113 164
f 113 112 164
f 164 112 162
f 163 162 124
f 162 112 124
f 132 133 148
f 132 148 137
f 148 147 137
f 147 146 137
f 137 146 135
f 142 136 144
f 136 135 144
f 144 135 145
f 135 146 145
f 140 141 139
f 141 143 139
f 139 143 142
f 143 138 142
f 142 138 136
f 133 132 122
f 132 127 122
f 125 111 114
f 125 114 131
f 114 120 131
f 131 120 130
f 120 119 130
f 130 119 129
f 119 121 129
f 129 121 128
f 121 122 128
f 128 122 127
f 308 307 300
f 217 201 205
f 300 307 309
f 201 203 205
f 203 295 205
f 205 295 251
f 303 304 297
f 304 295 297
f 297 295 307
f 295 203 307
f 307 203 309
f 212 205 210
f 205 208 210
f 212 214 205
f 214 218 205
f 205 218 217
f 301 302 300
f 302 306 300
f 300 306 308
f 298 299 297
f 299 305 297
f 297 305 303
f 248 235 251
f 235 221 251
f 251 221 205
f 248 245 235
f 245 241 235
f 235 241 238
