v -0.0569078 0.103877 0.0116
v -0.0562408 0.10667 0.0116
v -0.050589 0.109879 0.0116
v -0.0530582 0.109468 0.012045
v -0.0565512 0.105268 0.0124678
v -0.0550991 0.107579 0.012847
v -0.0559932 0.102628 0.0131637
v -0.049215 0.108484 0.0134019
v -0.0503564 0.108757 0.0134019
v -0.049362 0.108088 0.0135499
v -0.0534596 0.10756 0.0135499
v -0.0413941 0.0844381 0.0143065
v -0.0505893 0.109912 0.0091
v -0.0521508 0.10979 0.0091
v -0.0549192 0.108382 0.0091
v -0.0566128 0.105779 0.0091
v -0.0568995 0.104239 0.0091
v -0.0379829 0.0835602 0.0175
v -0.0320336 0.0889087 0.0175
v -0.0156747 0.0587458 0.0175
v -0.0317026 0.0892062 0.0174499
v -0.00827531 0.0653978 0.015945
v -0.00879802 0.0649279 0.0170637
v -0.00913457 0.0632332 0.0175
v -0.00670847 0.0611013 0.0155
v -0.00767051 0.0581483 0.0155
v -0.0114571 0.0555502 0.0155
v -0.0159717 0.0563905 0.0155
v -0.00873788 0.0634349 0.0174499
v -0.00735185 0.0641398 0.01205
v -0.00823802 0.0654313 0.01205
v -0.0299217 0.0824461 -0.0175
v -0.0257639 0.0740818 -0.0175
v -0.0069951 0.0595615 -0.01205
v -0.00670847 0.0611013 -0.01205
v -0.00767051 0.0581483 -0.01205
v -0.00683015 0.0626629 -0.01205
v -0.0159717 0.0563905 -0.0155
v -0.0130187 0.0554285 -0.0155
v -0.00823802 0.0654313 -0.0155
v -0.0093404 0.0644403 -0.0174319
v -0.00972535 0.0640942 -0.0175
v -0.0100258 0.0584453 -0.0175
v -0.0101017 0.0563107 -0.0165
v -0.00709229 0.0626074 -0.0165
v -0.0114712 0.0556168 -0.0160176
v -0.0383139 0.0832627 -0.0174499
v -0.0313883 0.0894888 -0.0173019
v -0.0399756 0.0827852 -0.0154032
v -0.0405561 0.083506 -0.0155077
v -0.0553699 0.099909 -0.0116
v -0.0562408 0.10667 -0.0116
v -0.056723 0.102442 -0.0116
v -0.0568396 0.103877 -0.0121176
v -0.0561802 0.106639 -0.0121176
v -0.0529795 0.109265 -0.0126
v -0.0476862 0.108661 -0.0126
v -0.0557202 0.106401 -0.0130142
v -0.0559078 0.103884 -0.0133321
v -0.0549233 0.105991 -0.0135319
v -0.0559374 0.107192 -0.0091
v -0.0566128 0.105779 -0.0091
v -0.042234 0.103247 -0.0091
v -0.0441382 0.0874155 0.0092
f 30 40 31
f 46 38 43
f 55 58 54
f 22 8 21
f 22 30 31
f 22 25 30
f 3 9 8
f 3 13 14
f 3 57 13
f 3 8 57
f 10 21 8
f 10 8 9
f 10 19 21
f 7 1 51
f 7 51 64
f 11 18 19
f 11 7 18
f 11 6 7
f 11 10 9
f 11 19 10
f 12 18 7
f 12 7 64
f 49 50 38
f 49 64 51
f 49 51 50
f 34 35 25
f 37 30 25
f 37 25 35
f 37 40 30
f 28 27 20
f 28 12 64
f 28 20 18
f 28 18 12
f 28 49 38
f 28 64 49
f 26 34 25
f 26 36 34
f 26 25 29
f 26 20 27
f 42 41 43
f 45 41 40
f 45 40 37
f 45 37 35
f 45 43 41
f 45 35 34
f 45 34 36
f 44 46 43
f 44 45 36
f 44 43 45
f 44 27 46
f 44 36 26
f 44 26 27
f 39 38 46
f 39 46 27
f 39 28 38
f 39 27 28
f 47 32 33
f 47 38 50
f 47 50 51
f 47 33 43
f 47 43 38
f 48 42 32
f 48 41 42
f 48 40 41
f 48 57 40
f 48 32 47
f 48 47 60
f 56 60 58
f 56 58 55
f 56 48 60
f 56 57 48
f 56 61 15
f 56 13 57
f 56 14 13
f 63 31 40
f 63 40 57
f 63 22 31
f 63 57 8
f 63 8 22
f 17 1 16
f 17 16 62
f 17 54 1
f 17 62 54
f 5 16 1
f 5 1 7
f 5 7 6
f 2 6 15
f 2 15 61
f 2 5 6
f 2 16 5
f 59 58 60
f 59 54 58
f 59 60 47
f 59 47 51
f 53 51 1
f 53 1 54
f 53 59 51
f 53 54 59
f 4 15 6
f 4 56 15
f 4 14 56
f 4 3 14
f 4 9 3
f 4 11 9
f 4 6 11
f 52 2 61
f 52 54 62
f 52 55 54
f 52 61 56
f 52 56 55
f 24 20 26
f 24 26 29
f 24 29 21
f 24 21 19
f 23 21 29
f 23 22 21
f 23 29 25
f 23 25 22
f 42 43 33
f 42 33 32
f 52 16 2
f 52 62 16
f 24 19 18
f 24 18 20
