v -0.0527671 0.102249 0.0133
v -0.0522711 0.101825 0.0133
v -0.0516823 0.101543 0.0133
v -0.0510407 0.101424 0.0133
v -0.05039 0.101475 0.0133
v -0.0497747 0.101692 0.0133
v -0.0492365 0.102061 0.0133
v -0.0488123 0.102557 0.0133
v -0.0485309 0.103146 0.0133
v -0.0484114 0.103788 0.0133
v -0.0484621 0.104438 0.0133
v -0.0486795 0.105054 0.0133
v -0.0490488 0.105592 0.0133
v -0.0495447 0.106016 0.0133
v -0.0501335 0.106297 0.0133
v -0.0507751 0.106417 0.0133
v -0.0514258 0.106366 0.0133
v -0.0520412 0.106149 0.0133
v -0.0525793 0.105779 0.0133
v -0.0530035 0.105284 0.0133
v -0.053285 0.104695 0.0133
v -0.0534044 0.104053 0.0133
v -0.0533537 0.103402 0.0133
v -0.0531363 0.102787 0.0133
v -0.0509079 0.10392 0.0133
v -0.0488257 0.105792 0.0136
v -0.0493811 0.106267 0.0136
v -0.0500406 0.106583 0.0136
v -0.0507592 0.106716 0.0136
v -0.0514879 0.10666 0.0136
v -0.0521772 0.106416 0.0136
v -0.0527799 0.106003 0.0136
v -0.053255 0.105447 0.0136
v -0.0535702 0.104788 0.0136
v -0.053704 0.104069 0.0136
v -0.0536472 0.10334 0.0136
v -0.0534037 0.102651 0.0136
v -0.0529902 0.102048 0.0136
v -0.0524347 0.101573 0.0136
v -0.0517752 0.101258 0.0136
v -0.0510566 0.101124 0.0136
v -0.0503279 0.101181 0.0136
v -0.0496387 0.101425 0.0136
v -0.049036 0.101838 0.0136
v -0.0485608 0.102394 0.0136
v -0.0482456 0.103053 0.0136
v -0.0481119 0.103772 0.0136
v -0.0481687 0.1045 0.0136
v -0.0484121 0.10519 0.0136
v -0.0367015 0.094101 0.0136
v -0.0486597 0.107229 0.0136
v -0.0495168 0.107671 0.0136
v -0.051419 0.107888 0.0136
v -0.0523535 0.10765 0.0136
v -0.0532041 0.107196 0.0136
v -0.0539212 0.106551 0.0136
v -0.0544632 0.105753 0.0136
v -0.0479333 0.106595 0.0136
v -0.0504547 0.107895 0.0136
v -0.0547986 0.104849 0.0136
v -0.0547846 0.102935 0.0136
v -0.0544361 0.102036 0.0136
v -0.0538826 0.101246 0.0136
v -0.0426508 0.0887526 0.0136
v -0.0549078 0.103891 0.0136
v -0.0542135 0.100949 0.0135499
v -0.0542658 0.100902 0.0135253
v -0.0545279 0.100666 0.0134019
v -0.04755 0.106939 0.0135253
v -0.0476023 0.106892 0.0135499
v -0.0546218 0.100582 0.0133226
v -0.0548099 0.100412 0.0131637
v -0.047194 0.107259 0.0133226
v -0.0472879 0.107175 0.0134019
v -0.0549277 0.100307 0.0130053
v -0.0550454 0.100201 0.012847
v -0.0468882 0.107534 0.0130053
v -0.0470059 0.107428 0.0131637
v -0.0551636 0.100094 0.0125941
v -0.0552226 0.100041 0.0124678
v -0.0466522 0.107746 0.0125941
v -0.0467704 0.10764 0.012847
v -0.0553143 0.099959 0.0121153
v -0.0553326 0.0999425 0.012045
v -0.0465015 0.107882 0.0121153
v -0.0465932 0.107799 0.0124678
v -0.0553699 0.099909 0.0116
v -0.0562436 0.101205 0.0116
v -0.056723 0.102442 0.0116
v -0.0567537 0.102681 0.0116
v -0.0569078 0.103877 0.0116
v -0.0567439 0.105314 0.0116
v -0.0568669 0.104235 0.0116
v -0.0562408 0.10667 0.0116
v -0.0565764 0.105765 0.0116
v -0.0554278 0.107866 0.0116
v -0.0559022 0.107168 0.0116
v -0.05489 0.10835 0.0116
v -0.0543522 0.108833 0.0116
v -0.0536077 0.109231 0.0116
v -0.0530763 0.109515 0.0116
v -0.0521413 0.109752 0.0116
v -0.0516745 0.109871 0.0116
v -0.050589 0.109879 0.0116
v -0.0502281 0.109882 0.0116
v -0.049055 0.109602 0.0116
v -0.0488212 0.109546 0.0116
v -0.0476423 0.108938 0.0116
v -0.0475356 0.108883 0.0116
v -0.0464832 0.107898 0.012045
v -0.0464459 0.107932 0.0116
v -0.0562002 0.101093 0.0116
v -0.0475638 0.108841 0.012045
v -0.0488386 0.109499 0.012045
v -0.0502338 0.109832 0.012045
v -0.0516681 0.109821 0.012045
v -0.0530582 0.109468 0.012045
v -0.0543234 0.108792 0.012045
v -0.0553901 0.107833 0.012045
v -0.0561962 0.106647 0.012045
v -0.0566951 0.105302 0.012045
v -0.0568576 0.103877 0.012045
v -0.0566744 0.102454 0.012045
v -0.056156 0.101117 0.012045
v -0.0476469 0.108719 0.0124678
v -0.0560255 0.101187 0.0124678
v -0.056531 0.102491 0.0124678
v -0.0567097 0.103878 0.0124678
v -0.0565512 0.105268 0.0124678
v -0.0560648 0.106579 0.0124678
v -0.0552786 0.107736 0.0124678
v -0.0542385 0.108671 0.0124678
v -0.0530048 0.10933 0.0124678
v -0.0516492 0.109675 0.0124678
v -0.0502505 0.109685 0.0124678
v -0.0488901 0.10936 0.0124678
v -0.0477808 0.108522 0.012847
v -0.0489729 0.109137 0.012847
v -0.0502775 0.109448 0.012847
v -0.0516187 0.109438 0.012847
v -0.0529186 0.109108 0.012847
v -0.0541017 0.108476 0.012847
v -0.0550991 0.107579 0.012847
v -0.055853 0.10647 0.012847
v -0.0563195 0.105212 0.012847
v -0.0564714 0.10388 0.012847
v -0.0563001 0.10255 0.012847
v -0.0558153 0.101299 0.012847
v -0.0479588 0.10826 0.0131637
v -0.055536 0.101448 0.0131637
v -0.0559932 0.102628 0.0131637
v -0.0561548 0.103882 0.0131637
v -0.0560114 0.105139 0.0131637
v -0.0555715 0.106325 0.0131637
v -0.0548606 0.107371 0.0131637
v -0.0539199 0.108217 0.0131637
v -0.0528042 0.108813 0.0131637
v -0.0515783 0.109124 0.0131637
v -0.0503134 0.109134 0.0131637
v -0.0490831 0.10884 0.0131637
v -0.048172 0.107946 0.0134019
v -0.049215 0.108484 0.0134019
v -0.0503564 0.108757 0.0134019
v -0.0515298 0.108748 0.0134019
v -0.0526671 0.108459 0.0134019
v -0.0537022 0.107906 0.0134019
v -0.0545749 0.107122 0.0134019
v -0.0552345 0.106151 0.0134019
v -0.0556426 0.105051 0.0134019
v -0.0557756 0.103885 0.0134019
v -0.0556256 0.102721 0.0134019
v -0.0552015 0.101627 0.0134019
v -0.0484095 0.107597 0.0135499
v -0.049362 0.108088 0.0135499
v -0.0504043 0.108337 0.0135499
v -0.0514758 0.108329 0.0135499
v -0.0525144 0.108065 0.0135499
v -0.0534596 0.10756 0.0135499
v -0.0542565 0.106844 0.0135499
v -0.0548587 0.105957 0.0135499
v -0.0552314 0.104953 0.0135499
v -0.0553528 0.103888 0.0135499
v -0.0552159 0.102825 0.0135499
v -0.0548287 0.101826 0.0135499
v -0.0441009 0.087449 0.012045
v -0.0441382 0.0874155 0.0116
v -0.0439909 0.0875479 0.0124678
v -0.0440826 0.0874654 0.0121153
v -0.0438137 0.0877072 0.012847
v -0.0439319 0.0876009 0.0125941
v -0.0436959 0.087813 0.0130053
v -0.0435782 0.0879189 0.0131637
v -0.0433901 0.088088 0.0133226
v -0.0432962 0.0881724 0.0134019
v -0.0430341 0.088408 0.0135253
v -0.0429818 0.088455 0.0135499
v -0.0411316 0.086397 0.0150957
v -0.0408292 0.0867263 0.015122
v -0.0411706 0.0871061 0.0144896
v -0.0416076 0.0875921 0.0140063
v -0.0421118 0.088153 0.0137032
v -0.0413618 0.0860207 0.0150181
v -0.0415082 0.0856163 0.0148931
v -0.0415634 0.0852041 0.0147271
v -0.0415247 0.0848047 0.0145282
v -0.0413941 0.0844381 0.0143065
v -0.041178 0.0841228 0.0140732
v -0.0417328 0.0847399 0.0130456
v -0.0424429 0.0855297 0.0122602
v -0.0432623 0.0864411 0.0117678
v -0.0432999 0.0865581 0.0121984
v -0.0432611 0.0867362 0.0126075
v -0.0431478 0.0869665 0.0129745
v -0.0429657 0.0872376 0.013281
v -0.0427238 0.0875357 0.0135116
v -0.0424343 0.0878461 0.0136547
v -0.0425507 0.0857246 0.0126487
v -0.0425785 0.0859768 0.0130178
v -0.0425249 0.0862736 0.0133489
v -0.0423926 0.0866002 0.0136253
v -0.0421883 0.0869401 0.0138334
v -0.0419222 0.0872764 0.0139625
v -0.0419014 0.0850024 0.0133669
v -0.0419869 0.0853188 0.0136721
v -0.0419852 0.0856732 0.0139459
v -0.0418961 0.0860479 0.0141745
v -0.0417244 0.086424 0.0143466
v -0.0414784 0.0867827 0.0144534
v -0.0464459 0.107932 0.0091
v -0.0476362 0.10895 0.0091
v -0.0490494 0.109625 0.0091
v -0.0505893 0.109912 0.0091
v -0.0521508 0.10979 0.0091
v -0.0536277 0.109268 0.0091
v -0.0549192 0.108382 0.0091
v -0.0559374 0.107192 0.0091
v -0.0566128 0.105779 0.0091
v -0.0568995 0.104239 0.0091
v -0.0567778 0.102677 0.0091
v -0.0562561 0.101201 0.0091
v -0.0553699 0.099909 0.0091
v -0.0352698 0.0953882 0.0121153
v -0.0352515 0.0954046 0.012045
v -0.0352142 0.0954381 0.0116
v -0.0354205 0.0952527 0.0125941
v -0.0353615 0.0953057 0.0124678
v -0.0355387 0.0951464 0.012847
v -0.0356565 0.0950405 0.0130053
v -0.0359623 0.0947656 0.0133226
v -0.0357742 0.0949347 0.0131637
v -0.0363183 0.0944455 0.0135253
v -0.0360562 0.0946812 0.0134019
v -0.0363706 0.0943985 0.0135499
v -0.0361625 0.0935014 0.0137032
v -0.0356583 0.0929405 0.0140063
v -0.0352213 0.0924545 0.0144896
v -0.0348799 0.0920747 0.015122
v -0.0408579 0.0837667 0.014666
v -0.0404483 0.0833111 0.0151191
v -0.0399756 0.0827852 0.0154032
v -0.0394702 0.0822231 0.0155
v -0.0394147 0.0822731 0.0160153
v -0.0394329 0.0822566 0.015945
v -0.0392639 0.0824086 0.0164941
v -0.0393229 0.0823555 0.0163678
v -0.039028 0.0826207 0.0169053
v -0.0391458 0.0825148 0.016747
v -0.0387222 0.0828957 0.0172226
v -0.0389102 0.0827266 0.0170637
v -0.0383661 0.0832157 0.0174253
v -0.0386282 0.0829801 0.0173019
v -0.0402957 0.0861329 0.01611
v -0.039613 0.0853735 0.0168652
v -0.0388251 0.0844971 0.0173387
v -0.0383139 0.0832627 0.0174499
v -0.0379829 0.0835602 0.0175
v -0.0391477 0.0841901 0.0172902
v -0.0394371 0.0838798 0.017147
v -0.039679 0.0835816 0.0169164
v -0.0398611 0.0833106 0.01661
v -0.0399745 0.0830802 0.016243
v -0.0400132 0.0829021 0.0158339
v -0.0399276 0.0850578 0.0168214
v -0.0401938 0.0847215 0.0166923
v -0.0403981 0.0843816 0.0164843
v -0.0405304 0.084055 0.0162078
v -0.0405839 0.0837582 0.0158767
v -0.0405561 0.083506 0.0155077
v -0.0406035 0.0858095 0.0160738
v -0.0408494 0.0854508 0.015967
v -0.0410212 0.0850747 0.015795
v -0.0411103 0.0847 0.0155663
v -0.041112 0.0843456 0.0152926
v -0.0410265 0.0840292 0.0149873
v -0.0345204 0.0923405 0.0150957
v -0.0341218 0.0925295 0.0150181
v -0.0337042 0.0926321 0.0148931
v -0.0332884 0.0926433 0.0147271
v -0.0328953 0.0925625 0.0145282
v -0.0343383 0.0944638 0.0117678
v -0.0335189 0.0935523 0.0122602
v -0.0328089 0.0927626 0.0130456
v -0.0325447 0.0923937 0.0143065
v -0.0322541 0.0921454 0.0140732
v -0.0348672 0.0927262 0.0144534
v -0.0344506 0.0945137 0.0121984
v -0.0346318 0.094494 0.0126075
v -0.0348728 0.0944057 0.0129745
v -0.0351617 0.0942533 0.013281
v -0.033052 0.092958 0.0133669
v -0.0333576 0.0930766 0.0136721
v -0.0337102 0.0931125 0.0139459
v -0.0340922 0.0930637 0.0141745
v -0.0344844 0.0929328 0.0143466
v -0.0337013 0.0936802 0.0126487
v -0.0339491 0.0937346 0.0130178
v -0.0342499 0.0937128 0.0133489
v -0.0345887 0.093616 0.0136253
v -0.0349484 0.0934489 0.0138334
v -0.0354838 0.0940445 0.0135116
v -0.035311 0.0932199 0.0139625
v -0.0358231 0.0937896 0.0136547
v -0.0343464 0.0914813 0.01611
v -0.0336637 0.0907219 0.0168652
v -0.0328758 0.0898455 0.0173387
v -0.0320336 0.0889087 0.0175
v -0.017162 0.0574087 0.0155
v -0.0171247 0.0574422 0.015945
v -0.0171064 0.0574586 0.0160153
v -0.0170147 0.0575411 0.0163678
v -0.0169557 0.0575941 0.0164941
v -0.0168375 0.0577004 0.016747
v -0.0167197 0.0578062 0.0169053
v -0.016602 0.0579121 0.0170637
v -0.0164139 0.0580812 0.0172226
v -0.01632 0.0581656 0.0173019
v -0.0160579 0.0584013 0.0174253
v -0.0160056 0.0584482 0.0174499
v -0.0156747 0.0587458 0.0175
v -0.0305836 0.0902123 0.015945
v -0.0305463 0.0902458 0.0155
v -0.0310516 0.0908079 0.0154032
v -0.0315244 0.0913337 0.0151191
v -0.031934 0.0917894 0.014666
v -0.0306019 0.0901958 0.0160153
v -0.0306936 0.0901134 0.0163678
v -0.0307526 0.0900603 0.0164941
v -0.0308708 0.0899541 0.016747
v -0.0309885 0.0898482 0.0169053
v -0.0311063 0.0897423 0.0170637
v -0.0312944 0.0895732 0.0172226
v -0.0313883 0.0894888 0.0173019
v -0.0316504 0.0892532 0.0174253
v -0.0317026 0.0892062 0.0174499
v -0.0321771 0.0919848 0.0149873
v -0.0325364 0.0901337 0.0172902
v -0.0321972 0.0903886 0.017147
v -0.031875 0.0905974 0.0169164
v -0.0315862 0.0907498 0.01661
v -0.0339923 0.0917531 0.0160738
v -0.0336095 0.0919596 0.015967
v -0.0332173 0.0920905 0.015795
v -0.0328353 0.0921393 0.0155663
v -0.0324827 0.0921034 0.0152926
v -0.0333164 0.0910013 0.0168214
v -0.0329538 0.0912302 0.0166923
v -0.0325941 0.0913974 0.0164843
v -0.0322554 0.0914942 0.0162078
v -0.0319546 0.091516 0.0158767
v -0.0313451 0.0908381 0.016243
v -0.0317067 0.0914616 0.0155077
v -0.0311639 0.0908578 0.0158339
v -0.0082936 0.0653814 0.0160153
v -0.00827531 0.0653978 0.015945
v -0.00823802 0.0654313 0.0155
v -0.00844433 0.0652459 0.0164941
v -0.00838532 0.0652989 0.0163678
v -0.00856251 0.0651396 0.016747
v -0.00868026 0.0650338 0.0169053
v -0.00879802 0.0649279 0.0170637
v -0.00898611 0.0647588 0.0172226
v -0.00908002 0.0646744 0.0173019
v -0.00934212 0.0644387 0.0174253
v -0.00972535 0.0640942 0.0175
v -0.00939439 0.0643918 0.0174499
v -0.00913457 0.0632332 0.0175
v -0.00878677 0.0622486 0.0175
v -0.00870564 0.0612076 0.0175
v -0.00889673 0.060181 0.0175
v -0.00934701 0.0592388 0.0175
v -0.0100258 0.0584453 0.0175
v -0.0108868 0.0578546 0.0175
v -0.0118714 0.0575068 0.0175
v -0.0129124 0.0574256 0.0175
v -0.013939 0.0576167 0.0175
v -0.0148812 0.058067 0.0175
v -0.00735185 0.0641398 0.0155
v -0.00683015 0.0626629 0.0155
v -0.00670847 0.0611013 0.0155
v -0.0069951 0.0595615 0.0155
v -0.00767051 0.0581483 0.0155
v -0.00868867 0.056958 0.0155
v -0.0099802 0.0560719 0.0155
v -0.0114571 0.0555502 0.0155
v -0.0130187 0.0554285 0.0155
v -0.0145585 0.0557151 0.0155
v -0.0159717 0.0563905 0.0155
v -0.0159444 0.0564325 0.015945
v -0.014543 0.0557628 0.015945
v -0.013016 0.0554785 0.015945
v -0.0114675 0.0555992 0.015945
v -0.0100029 0.0561166 0.015945
v -0.00872219 0.0569953 0.015945
v -0.00771254 0.0581756 0.015945
v -0.00704278 0.059577 0.015945
v -0.00675854 0.061104 0.015945
v -0.00687921 0.0626525 0.015945
v -0.00739655 0.0641171 0.015945
v -0.0158637 0.0565565 0.0163678
v -0.0075284 0.06405 0.0163678
v -0.00702392 0.0626219 0.0163678
v -0.00690625 0.0611119 0.0163678
v -0.00718342 0.0596228 0.0163678
v -0.00783653 0.0582563 0.0163678
v -0.00882109 0.0571053 0.0163678
v -0.01007 0.0562484 0.0163678
v -0.0114981 0.0557439 0.0163678
v -0.0130081 0.0556263 0.0163678
v -0.0144972 0.0559034 0.0163678
v -0.0157338 0.0567563 0.016747
v -0.0144234 0.05613 0.016747
v -0.0129955 0.0558642 0.016747
v -0.0115475 0.055977 0.016747
v -0.010178 0.0564608 0.016747
v -0.00898039 0.0572825 0.016747
v -0.00803627 0.0583862 0.016747
v -0.00740997 0.0596966 0.016747
v -0.00714419 0.0611245 0.016747
v -0.00725702 0.0625725 0.016747
v -0.00774079 0.063942 0.016747
v -0.0155611 0.0570217 0.0170637
v -0.00802306 0.0637985 0.0170637
v -0.00756684 0.0625069 0.0170637
v -0.00746043 0.0611413 0.0170637
v -0.00771108 0.0597947 0.0170637
v -0.00830173 0.0585589 0.0170637
v -0.00919211 0.057518 0.0170637
v -0.0103215 0.0567431 0.0170637
v -0.0116131 0.0562868 0.0170637
v -0.0129787 0.0561804 0.0170637
v -0.0143253 0.0564311 0.0170637
v -0.0153543 0.0573396 0.0173019
v -0.0142078 0.0567916 0.0173019
v -0.0129585 0.0565591 0.0173019
v -0.0116916 0.0566578 0.0173019
v -0.0104934 0.0570811 0.0173019
v -0.00944563 0.0578 0.0173019
v -0.0086196 0.0587657 0.0173019
v -0.00807164 0.0599122 0.0173019
v -0.0078391 0.0611615 0.0173019
v -0.00793782 0.0624284 0.0173019
v -0.00836108 0.0636266 0.0173019
v -0.0151238 0.057694 0.0174499
v -0.0140769 0.0571936 0.0174499
v -0.0129361 0.0569812 0.0174499
v -0.0117792 0.0570714 0.0174499
v -0.0106851 0.0574579 0.0174499
v -0.00972825 0.0581144 0.0174499
v -0.00897395 0.0589962 0.0174499
v -0.00847358 0.0600431 0.0174499
v -0.00826123 0.0611839 0.0174499
v -0.00835138 0.0623408 0.0174499
v -0.00873788 0.0634349 0.0174499
v -0.017162 0.0574087 0.01205
v -0.0159717 0.0563905 0.01205
v -0.0145585 0.0557151 0.01205
v -0.0130187 0.0554285 0.01205
v -0.0114571 0.0555502 0.01205
v -0.0099802 0.0560719 0.01205
v -0.00868867 0.056958 0.01205
v -0.00767051 0.0581483 0.01205
v -0.0069951 0.0595615 0.01205
v -0.00670847 0.0611013 0.01205
v -0.00683015 0.0626629 0.01205
v -0.00735185 0.0641398 0.01205
v -0.00823802 0.0654313 0.01205
v -0.0122494 0.0698933 0.01205
v -0.0211733 0.0618706 0.01205
v -0.021704 0.0624609 0.01215
v -0.01278 0.0704836 0.01215
v -0.0147057 0.063651 0.0175
v -0.0140599 0.0640941 0.0175
v -0.0237865 0.0742359 0.0175
v -0.0113401 0.0587459 0.0175
v -0.0106943 0.059189 0.0175
v -0.0239986 0.0739879 0.0175
v -0.0152147 0.0630559 0.0175
v -0.0153741 0.0600601 0.0175
v -0.0156349 0.0607985 0.0175
v -0.0143359 0.0589053 0.0175
v -0.0136293 0.0585676 0.0175
v -0.0120785 0.0584851 0.0175
v -0.0254009 0.0760317 0.0175
v -0.0297371 0.0821771 0.0175
v -0.0242676 0.0738033 0.0175
v -0.0133215 0.0643549 0.0175
v -0.023586 0.0748511 0.0175
v -0.0236458 0.0745303 0.0175
v -0.0156958 0.0615793 0.0175
v -0.014931 0.0594143 0.0175
v -0.0128593 0.0584242 0.0175
v -0.0299217 0.0824461 0.0175
v -0.0155525 0.0623493 0.0175
v -0.0101853 0.0597841 0.0175
v -0.00984755 0.0604907 0.0175
v -0.0258821 0.0755991 0.0175
v -0.02567 0.0758471 0.0175
v -0.0257639 0.0740818 0.0175
v -0.0315329 0.0805626 0.0175
v -0.00970423 0.0612607 0.0175
v -0.0260228 0.0753047 0.0175
v -0.0304641 0.082799 0.0175
v -0.0301697 0.0826583 0.0175
v -0.0318991 0.0822921 0.0175
v -0.0312385 0.0804219 0.0175
v -0.00976508 0.0620415 0.0175
v -0.0100259 0.0627799 0.0175
v -0.0260572 0.0746585 0.0175
v -0.0260825 0.0749839 0.0175
v -0.0296284 0.0818694 0.0175
v -0.0259485 0.0743509 0.0175
v -0.0320398 0.0819976 0.0175
v -0.0319655 0.0810438 0.0175
v -0.0320742 0.0813515 0.0175
v -0.0317808 0.0807747 0.0175
v -0.0302846 0.0804962 0.0175
v -0.010469 0.0634257 0.0175
v -0.0117707 0.0642724 0.0175
v -0.0245753 0.0736946 0.0175
v -0.0249007 0.0736692 0.0175
v -0.0125407 0.0644158 0.0175
v -0.0237201 0.0754841 0.0175
v -0.0236114 0.0751764 0.0175
v -0.0239047 0.0757532 0.0175
v -0.0250932 0.0761404 0.0175
v -0.0247679 0.0761657 0.0175
v -0.029603 0.0815441 0.0175
v -0.0320995 0.0816768 0.0175
v -0.0305923 0.0803876 0.0175
v -0.0309177 0.0803622 0.0175
v -0.0298035 0.0809288 0.0175
v -0.0300156 0.0806809 0.0175
v -0.0296627 0.0812232 0.0175
v -0.0110641 0.0639347 0.0175
v -0.0244471 0.076106 0.0175
v -0.0241527 0.0759653 0.0175
v -0.031687 0.08254 0.0175
v -0.0314179 0.0827246 0.0175
v -0.0255159 0.0738697 0.0175
v -0.0252215 0.073729 0.0175
v -0.0311102 0.0828333 0.0175
v -0.0307849 0.0828587 0.0175
v -0.0255159 0.0738697 0.01215
v -0.0257639 0.0740818 0.01215
v -0.0252215 0.073729 0.01215
v -0.0249007 0.0736692 0.01215
v -0.0245753 0.0736946 0.01215
v -0.0242676 0.0738033 0.01215
v -0.0239986 0.0739879 0.01215
v -0.0237865 0.0742359 0.01215
v -0.0236458 0.0745303 0.01215
v -0.023586 0.0748511 0.01215
v -0.0236114 0.0751764 0.01215
v -0.0237201 0.0754841 0.01215
v -0.0239047 0.0757532 0.01215
v -0.0241527 0.0759653 0.01215
v -0.0244471 0.076106 0.01215
v -0.0247679 0.0761657 0.01215
v -0.0250932 0.0761404 0.01215
v -0.0254009 0.0760317 0.01215
v -0.02567 0.0758471 0.01215
v -0.0258821 0.0755991 0.01215
v -0.0260228 0.0753047 0.01215
v -0.0260825 0.0749839 0.01215
v -0.0260572 0.0746585 0.01215
v -0.0259485 0.0743509 0.01215
v -0.0302846 0.0804962 0.01215
v -0.0300156 0.0806809 0.01215
v -0.0298035 0.0809288 0.01215
v -0.029603 0.0815441 0.01215
v -0.0296284 0.0818694 0.01215
v -0.0296627 0.0812232 0.01215
v -0.0350792 0.0773388 0.01215
v -0.0312385 0.0804219 0.01215
v -0.0297249 0.0821524 0.01215
v -0.0261553 0.0853615 0.01215
v -0.0315097 0.0805479 0.01215
v -0.0309177 0.0803622 0.01215
v -0.0305923 0.0803876 0.01215
v -0.0315318 0.0805641 0.0121492
v -0.0316643 0.080661 0.0121445
v -0.0317816 0.0807756 0.0121307
v -0.0318827 0.0809043 0.0121084
v -0.0317808 0.0807748 0.0121308
v -0.0319655 0.0810438 0.0120783
v -0.0319831 0.0810798 0.0120698
v -0.0320742 0.0813515 0.0119978
v -0.0320995 0.0816768 0.0119025
v -0.032063 0.0819175 0.0118331
v -0.0319794 0.0821488 0.0117742
v -0.0320347 0.0819958 0.0118132
v -0.0318016 0.0824225 0.0117275
v -0.0318991 0.0822921 0.0117454
v -0.0315588 0.0826409 0.0117274
v -0.031687 0.08254 0.0117213
v -0.0312667 0.0827894 0.0117743
v -0.0314179 0.0827246 0.0117454
v -0.0310371 0.082839 0.0118319
v -0.0311102 0.0828333 0.0118114
v -0.0307849 0.0828587 0.0119025
v -0.0304641 0.082799 0.0119978
v -0.0302036 0.0826796 0.0120698
v -0.0300395 0.082561 0.0121084
v -0.0301712 0.0826561 0.0120774
v -0.0298206 0.0823177 0.0121445
v -0.0299217 0.0824461 0.0121308
v -0.0297371 0.0821771 0.0121499
v -0.0278279 0.087222 0.0109452
v -0.0274892 0.0868452 0.0114519
v -0.0364131 0.0788226 0.0114519
v -0.0280828 0.0875055 0.0103384
v -0.0367519 0.0791994 0.0109452
v -0.028241 0.0876815 0.00966207
v -0.0370068 0.0794829 0.0103384
v -0.0282947 0.0877412 0.00895
v -0.037165 0.0796589 0.00966207
v -0.0266314 0.085891 0.0120698
v -0.0270835 0.086394 0.0118331
v -0.0360075 0.0783714 0.0118331
v -0.0355553 0.0778684 0.0120698
v -0.0372186 0.0797186 0.00895
v -0.0282947 0.0877412 -0.00895
v -0.0372186 0.0797186 -0.00895
v -0.010469 0.0634257 0.0153
v -0.0100259 0.0627799 0.0153
v -0.00976508 0.0620415 0.0153
v -0.00970423 0.0612607 0.0153
v -0.00984755 0.0604907 0.0153
v -0.0101853 0.0597841 0.0153
v -0.0106943 0.059189 0.0153
v -0.0113401 0.0587459 0.0153
v -0.0120785 0.0584851 0.0153
v -0.0128593 0.0584242 0.0153
v -0.0136293 0.0585676 0.0153
v -0.0143359 0.0589053 0.0153
v -0.014931 0.0594143 0.0153
v -0.0153741 0.0600601 0.0153
v -0.0156349 0.0607985 0.0153
v -0.0156958 0.0615793 0.0153
v -0.0155525 0.0623493 0.0153
v -0.0152147 0.0630559 0.0153
v -0.0147057 0.063651 0.0153
v -0.0140599 0.0640941 0.0153
v -0.0133215 0.0643549 0.0153
v -0.0125407 0.0644158 0.0153
v -0.0117707 0.0642724 0.0153
v -0.0110641 0.0639347 0.0153
v -0.0127 0.06142 0.0153
v -0.0282218 0.0876601 -0.00977822
v -0.0280081 0.0874224 -0.01055
v -0.0371457 0.0796375 -0.00977822
v -0.0276681 0.0870442 -0.0112127
v -0.036932 0.0793997 -0.01055
v -0.036592 0.0790216 -0.0112127
v -0.031687 0.08254 -0.0117213
v -0.0361489 0.0785287 -0.0117213
v -0.035633 0.0779547 -0.012041
v -0.0318826 0.0809041 -0.0121084
v -0.0319655 0.0810438 -0.0120783
v -0.0317808 0.0807747 -0.0121308
v -0.0350792 0.0773388 -0.01215
v -0.0316639 0.0806606 -0.0121445
v -0.0315097 0.0805479 -0.01215
v -0.0315329 0.0805626 -0.0121499
v -0.0320398 0.0819976 -0.0118114
v -0.0319795 0.0821486 -0.0117743
v -0.0318991 0.0822921 -0.0117454
v -0.0318009 0.0824233 -0.0117274
v -0.0320995 0.0816768 -0.0119025
v -0.0320298 0.081194 -0.012041
v -0.0320742 0.0813515 -0.0119978
v -0.026709 0.0859774 -0.012041
v -0.027225 0.0865514 -0.0117213
v -0.0304641 0.082799 -0.0119978
v -0.0307849 0.0828587 -0.0119025
v -0.0314179 0.0827246 -0.0117454
v -0.0312669 0.0827893 -0.0117742
v -0.0315579 0.0826415 -0.0117275
v -0.0311102 0.0828333 -0.0118114
v -0.0261553 0.0853615 -0.01215
v -0.0298206 0.0823177 -0.0121445
v -0.0297386 0.0821762 -0.0121492
v -0.0300393 0.0825608 -0.0121085
v -0.0303121 0.0827382 -0.012041
v -0.0301697 0.0826583 -0.0120783
v -0.0299217 0.0824461 -0.0121308
v -0.0297249 0.0821524 -0.01215
v -0.0299217 0.0824461 -0.0175
v -0.0297371 0.0821771 -0.0175
v -0.0301697 0.0826583 -0.0175
v -0.0304641 0.082799 -0.0175
v -0.0307849 0.0828587 -0.0175
v -0.0314179 0.0827246 -0.0175
v -0.0311102 0.0828333 -0.0175
v -0.031687 0.08254 -0.0175
v -0.0318991 0.0822921 -0.0175
v -0.0320398 0.0819976 -0.0175
v -0.0320995 0.0816768 -0.0175
v -0.0319655 0.0810438 -0.0175
v -0.0320742 0.0813515 -0.0175
v -0.0317808 0.0807747 -0.0175
v -0.0315329 0.0805626 -0.0175
v -0.0312385 0.0804219 -0.0175
v -0.0309177 0.0803622 -0.0175
v -0.0312385 0.0804219 -0.01215
v -0.0305923 0.0803876 -0.0175
v -0.0309177 0.0803622 -0.01215
v -0.0302846 0.0804962 -0.0175
v -0.0305923 0.0803876 -0.01215
v -0.0300156 0.0806809 -0.0175
v -0.0302846 0.0804962 -0.01215
v -0.0298035 0.0809288 -0.0175
v -0.0300156 0.0806809 -0.01215
v -0.0296627 0.0812232 -0.0175
v -0.0298035 0.0809288 -0.01215
v -0.029603 0.0815441 -0.0175
v -0.0296627 0.0812232 -0.01215
v -0.0296284 0.0818694 -0.0175
v -0.029603 0.0815441 -0.01215
v -0.0296284 0.0818694 -0.01215
v -0.0260572 0.0746585 -0.01215
v -0.0260825 0.0749839 -0.01215
v -0.0258821 0.0755991 -0.01215
v -0.0259485 0.0743509 -0.01215
v -0.021704 0.0624609 -0.01215
v -0.0257639 0.0740818 -0.01215
v -0.02567 0.0758471 -0.01215
v -0.0254009 0.0760317 -0.01215
v -0.0260228 0.0753047 -0.01215
v -0.01278 0.0704836 -0.01215
v -0.0237201 0.0754841 -0.01215
v -0.0236114 0.0751764 -0.01215
v -0.0239047 0.0757532 -0.01215
v -0.0250932 0.0761404 -0.01215
v -0.0247679 0.0761657 -0.01215
v -0.0252215 0.073729 -0.01215
v -0.0255159 0.0738697 -0.01215
v -0.0239986 0.0739879 -0.01215
v -0.0244471 0.076106 -0.01215
v -0.0241527 0.0759653 -0.01215
v -0.0245753 0.0736946 -0.01215
v -0.0249007 0.0736692 -0.01215
v -0.0237865 0.0742359 -0.01215
v -0.023586 0.0748511 -0.01215
v -0.0236458 0.0745303 -0.01215
v -0.0242676 0.0738033 -0.01215
v -0.0255159 0.0738697 -0.0175
v -0.0257639 0.0740818 -0.0175
v -0.0252215 0.073729 -0.0175
v -0.0249007 0.0736692 -0.0175
v -0.0245753 0.0736946 -0.0175
v -0.0242676 0.0738033 -0.0175
v -0.0239986 0.0739879 -0.0175
v -0.0237865 0.0742359 -0.0175
v -0.0236458 0.0745303 -0.0175
v -0.023586 0.0748511 -0.0175
v -0.0236114 0.0751764 -0.0175
v -0.0237201 0.0754841 -0.0175
v -0.0239047 0.0757532 -0.0175
v -0.0241527 0.0759653 -0.0175
v -0.0244471 0.076106 -0.0175
v -0.0247679 0.0761657 -0.0175
v -0.0250932 0.0761404 -0.0175
v -0.0254009 0.0760317 -0.0175
v -0.02567 0.0758471 -0.0175
v -0.0258821 0.0755991 -0.0175
v -0.0260228 0.0753047 -0.0175
v -0.0260825 0.0749839 -0.0175
v -0.0260572 0.0746585 -0.0175
v -0.0259485 0.0743509 -0.0175
v -0.0122494 0.0698933 -0.01205
v -0.0211733 0.0618706 -0.01205
v -0.0099802 0.0560719 -0.01205
v -0.0069951 0.0595615 -0.01205
v -0.00670847 0.0611013 -0.01205
v -0.00868867 0.056958 -0.01205
v -0.00767051 0.0581483 -0.01205
v -0.00735185 0.0641398 -0.01205
v -0.0130187 0.0554285 -0.01205
v -0.0114571 0.0555502 -0.01205
v -0.0145585 0.0557151 -0.01205
v -0.017162 0.0574087 -0.01205
v -0.0159717 0.0563905 -0.01205
v -0.00683015 0.0626629 -0.01205
v -0.00823802 0.0654313 -0.01205
v -0.017162 0.0574087 -0.0155
v -0.0159717 0.0563905 -0.0155
v -0.0145585 0.0557151 -0.0155
v -0.0130187 0.0554285 -0.0155
v -0.0114571 0.0555502 -0.0155
v -0.0099802 0.0560719 -0.0155
v -0.00868867 0.056958 -0.0155
v -0.00767051 0.0581483 -0.0155
v -0.0069951 0.0595615 -0.0155
v -0.00670847 0.0611013 -0.0155
v -0.00683015 0.0626629 -0.0155
v -0.00735185 0.0641398 -0.0155
v -0.00823802 0.0654313 -0.0155
v -0.0082887 0.0653858 -0.0160176
v -0.0171185 0.0574477 -0.0159439
v -0.00843729 0.0652522 -0.0165
v -0.0170051 0.0575497 -0.0163624
v -0.0171113 0.0574542 -0.0160176
v -0.00867365 0.0650397 -0.0169142
v -0.0168276 0.0577093 -0.0167368
v -0.0169627 0.0575878 -0.0165
v -0.00898169 0.0647628 -0.0172321
v -0.0165944 0.0579189 -0.0170504
v -0.0167263 0.0578003 -0.0169142
v -0.0093404 0.0644403 -0.0174319
v -0.016316 0.0581692 -0.017289
v -0.0164183 0.0580772 -0.0172321
v -0.00972535 0.0640942 -0.0175
v -0.00913457 0.0632332 -0.0175
v -0.00878677 0.0622486 -0.0175
v -0.00870564 0.0612076 -0.0175
v -0.00889673 0.060181 -0.0175
v -0.00934701 0.0592388 -0.0175
v -0.0100258 0.0584453 -0.0175
v -0.0108868 0.0578546 -0.0175
v -0.0118714 0.0575068 -0.0175
v -0.0129124 0.0574256 -0.0175
v -0.013939 0.0576167 -0.0175
v -0.0148812 0.058067 -0.0175
v -0.0160048 0.058449 -0.0174416
v -0.0160596 0.0583997 -0.0174319
v -0.0156747 0.0587458 -0.0175
v -0.0151634 0.0576331 -0.0174319
v -0.0140994 0.0571246 -0.0174319
v -0.0129399 0.0569087 -0.0174319
v -0.0117642 0.0570004 -0.0174319
v -0.0106522 0.0573932 -0.0174319
v -0.00967971 0.0580604 -0.0174319
v -0.0089131 0.0589566 -0.0174319
v -0.00840455 0.0600206 -0.0174319
v -0.00818874 0.0611801 -0.0174319
v -0.00828036 0.0623558 -0.0174319
v -0.00867317 0.0634678 -0.0174319
v -0.0154264 0.0572288 -0.0172321
v -0.0142488 0.0566659 -0.0172321
v -0.0129655 0.0564271 -0.0172321
v -0.0116642 0.0565285 -0.0172321
v -0.0104335 0.0569632 -0.0172321
v -0.00935723 0.0577017 -0.0172321
v -0.00850876 0.0586936 -0.0172321
v -0.00794591 0.0598712 -0.0172321
v -0.00770706 0.0611545 -0.0172321
v -0.00780846 0.0624558 -0.0172321
v -0.00824321 0.0636865 -0.0172321
v -0.0156523 0.0568815 -0.0169142
v -0.0143771 0.0562721 -0.0169142
v -0.0129875 0.0560134 -0.0169142
v -0.0115784 0.0561232 -0.0169142
v -0.0102457 0.056594 -0.0169142
v -0.0090803 0.0573937 -0.0169142
v -0.00816154 0.0584677 -0.0169142
v -0.00755207 0.0597429 -0.0169142
v -0.00729343 0.0611325 -0.0169142
v -0.00740323 0.0625416 -0.0169142
v -0.007874 0.0638743 -0.0169142
v -0.0158256 0.0566151 -0.0165
v -0.0144755 0.0559699 -0.0165
v -0.0130044 0.055696 -0.0165
v -0.0115126 0.0558123 -0.0165
v -0.0101017 0.0563107 -0.0165
v -0.00886781 0.0571573 -0.0165
v -0.00789512 0.0582944 -0.0165
v -0.00724987 0.0596445 -0.0165
v -0.00697604 0.0611156 -0.0165
v -0.00709229 0.0626074 -0.0165
v -0.00759069 0.0640183 -0.0165
v -0.0159346 0.0564476 -0.0160176
v -0.0145374 0.0557799 -0.0160176
v -0.013015 0.0554965 -0.0160176
v -0.0114712 0.0556168 -0.0160176
v -0.0100111 0.0561326 -0.0160176
v -0.00873423 0.0570087 -0.0160176
v -0.00772763 0.0581854 -0.0160176
v -0.00705989 0.0595826 -0.0160176
v -0.00677652 0.061105 -0.0160176
v -0.00689682 0.0626488 -0.0160176
v -0.0074126 0.0641089 -0.0160176
v -0.0394702 0.0822231 -0.0155
v -0.0394329 0.0822566 -0.015945
v -0.0393229 0.0823555 -0.0163678
v -0.0391458 0.0825148 -0.016747
v -0.0389102 0.0827266 -0.0170637
v -0.0386282 0.0829801 -0.0173019
v -0.0383139 0.0832627 -0.0174499
v -0.0379829 0.0835602 -0.0175
v -0.0306019 0.0901958 -0.0160153
v -0.0305836 0.0902123 -0.015945
v -0.0305463 0.0902458 -0.0155
v -0.0307526 0.0900603 -0.0164941
v -0.0306936 0.0901134 -0.0163678
v -0.0308708 0.0899541 -0.016747
v -0.0309885 0.0898482 -0.0169053
v -0.0311063 0.0897423 -0.0170637
v -0.0312944 0.0895732 -0.0172226
v -0.0313883 0.0894888 -0.0173019
v -0.0316504 0.0892532 -0.0174253
v -0.0317026 0.0892062 -0.0174499
v -0.0320336 0.0889087 -0.0175
v -0.0113401 0.0587459 -0.0175
v -0.0120785 0.0584851 -0.0175
v -0.00970423 0.0612607 -0.0175
v -0.00984755 0.0604907 -0.0175
v -0.0101853 0.0597841 -0.0175
v -0.0106943 0.059189 -0.0175
v -0.0128593 0.0584242 -0.0175
v -0.0136293 0.0585676 -0.0175
v -0.0143359 0.0589053 -0.0175
v -0.0100259 0.0627799 -0.0175
v -0.00976508 0.0620415 -0.0175
v -0.014931 0.0594143 -0.0175
v -0.0156349 0.0607985 -0.0175
v -0.0152147 0.0630559 -0.0175
v -0.0133215 0.0643549 -0.0175
v -0.0140599 0.0640941 -0.0175
v -0.0110641 0.0639347 -0.0175
v -0.0153741 0.0600601 -0.0175
v -0.0157 0.06142 -0.0175
v -0.0155525 0.0623493 -0.0175
v -0.0156958 0.0615793 -0.0175
v -0.0125407 0.0644158 -0.0175
v -0.010469 0.0634257 -0.0175
v -0.0147057 0.063651 -0.0175
v -0.0117707 0.0642724 -0.0175
v -0.0388251 0.0844971 -0.0173387
v -0.0328758 0.0898455 -0.0173387
v -0.039613 0.0853735 -0.0168652
v -0.0336637 0.0907219 -0.0168652
v -0.0402957 0.0861329 -0.01611
v -0.0343464 0.0914813 -0.01611
v -0.0408292 0.0867263 -0.015122
v -0.0348799 0.0920747 -0.015122
v -0.0399756 0.0827852 -0.0154032
v -0.0404483 0.0833111 -0.0151191
v -0.0408579 0.0837667 -0.014666
v -0.041178 0.0841228 -0.0140732
v -0.0413941 0.0844381 -0.0143065
v -0.0415247 0.0848047 -0.0145282
v -0.0415634 0.0852041 -0.0147271
v -0.0415082 0.0856163 -0.0148931
v -0.0413618 0.0860207 -0.0150181
v -0.0411316 0.086397 -0.0150957
v -0.0406035 0.0858095 -0.0160738
v -0.0408494 0.0854508 -0.015967
v -0.0410212 0.0850747 -0.015795
v -0.0411103 0.0847 -0.0155663
v -0.041112 0.0843456 -0.0152926
v -0.0410265 0.0840292 -0.0149873
v -0.0399276 0.0850578 -0.0168214
v -0.0401938 0.0847215 -0.0166923
v -0.0403981 0.0843816 -0.0164843
v -0.0405304 0.084055 -0.0162078
v -0.0405839 0.0837582 -0.0158767
v -0.0405561 0.083506 -0.0155077
v -0.0391477 0.0841901 -0.0172902
v -0.0394371 0.0838798 -0.017147
v -0.039679 0.0835816 -0.0169164
v -0.0398611 0.0833106 -0.01661
v -0.0399745 0.0830802 -0.016243
v -0.0400132 0.0829021 -0.0158339
v -0.0429818 0.088455 -0.0135499
v -0.0426508 0.0887526 -0.0136
v -0.0421118 0.088153 -0.0137032
v -0.0416076 0.0875921 -0.0140063
v -0.0411706 0.0871061 -0.0144896
v -0.0430341 0.088408 -0.0135253
v -0.0432962 0.0881724 -0.0134019
v -0.0433901 0.088088 -0.0133226
v -0.0435782 0.0879189 -0.0131637
v -0.0436959 0.087813 -0.0130053
v -0.0438137 0.0877072 -0.012847
v -0.0439319 0.0876009 -0.0125941
v -0.0439909 0.0875479 -0.0124678
v -0.0440826 0.0874654 -0.0121153
v -0.0441009 0.087449 -0.012045
v -0.0441382 0.0874155 -0.0116
v -0.0432623 0.0864411 -0.0117678
v -0.0424429 0.0855297 -0.0122602
v -0.0417328 0.0847399 -0.0130456
v -0.0414784 0.0867827 -0.0144534
v -0.0432999 0.0865581 -0.0121984
v -0.0432611 0.0867362 -0.0126075
v -0.0431478 0.0869665 -0.0129745
v -0.0429657 0.0872376 -0.013281
v -0.0419014 0.0850024 -0.0133669
v -0.0419869 0.0853188 -0.0136721
v -0.0419852 0.0856732 -0.0139459
v -0.0418961 0.0860479 -0.0141745
v -0.0417244 0.086424 -0.0143466
v -0.0425507 0.0857246 -0.0126487
v -0.0425785 0.0859768 -0.0130178
v -0.0425249 0.0862736 -0.0133489
v -0.0423926 0.0866002 -0.0136253
v -0.0421883 0.0869401 -0.0138334
v -0.0427238 0.0875357 -0.0135116
v -0.0419222 0.0872764 -0.0139625
v -0.0424343 0.0878461 -0.0136547
v -0.0325503 0.0923875 -0.014306
v -0.0322541 0.0921454 -0.0140732
v -0.031934 0.0917894 -0.014666
v -0.0315244 0.0913337 -0.0151191
v -0.0310516 0.0908079 -0.0154032
v -0.0325994 0.0924276 -0.0143446
v -0.0330226 0.0925995 -0.0145976
v -0.0334947 0.0926493 -0.0148148
v -0.0344562 0.0923776 -0.0150862
v -0.0345165 0.0923345 -0.0150913
v -0.0339837 0.0925736 -0.0149814
v -0.0336095 0.0919596 -0.015967
v -0.0325364 0.0901337 -0.0172902
v -0.0333164 0.0910013 -0.0168214
v -0.0339923 0.0917531 -0.0160738
v -0.0321972 0.0903886 -0.017147
v -0.0329538 0.0912302 -0.0166923
v -0.031875 0.0905974 -0.0169164
v -0.0315862 0.0907498 -0.01661
v -0.0313451 0.0908381 -0.016243
v -0.0311639 0.0908578 -0.0158339
v -0.0325941 0.0913974 -0.0164843
v -0.0322554 0.0914942 -0.0162078
v -0.0319546 0.091516 -0.0158767
v -0.0317067 0.0914616 -0.0155077
v -0.0332173 0.0920905 -0.015795
v -0.0328353 0.0921393 -0.0155663
v -0.0324827 0.0921034 -0.0152926
v -0.0321771 0.0919848 -0.0149873
v -0.0352213 0.0924545 -0.0144896
v -0.0356583 0.0929405 -0.0140063
v -0.0361625 0.0935014 -0.0137032
v -0.0367015 0.094101 -0.0136
v -0.0553699 0.099909 -0.0116
v -0.0553192 0.0999546 -0.0121176
v -0.0551706 0.100088 -0.0126
v -0.0549343 0.100301 -0.0130142
v -0.0546262 0.100578 -0.0133321
v -0.0542675 0.1009 -0.0135319
v -0.0538826 0.101246 -0.0136
v -0.0363166 0.0944471 -0.0135319
v -0.0359579 0.0947696 -0.0133321
v -0.0356498 0.0950465 -0.0130142
v -0.0354135 0.095259 -0.0126
v -0.0328089 0.0927626 -0.0130456
v -0.0335189 0.0935523 -0.0122602
v -0.0343383 0.0944638 -0.0117678
v -0.0352649 0.0953926 -0.0121176
v -0.0352142 0.0954381 -0.0116
v -0.0344762 0.0945152 -0.0122687
v -0.034706 0.094472 -0.0127355
v -0.0350121 0.0943372 -0.0131363
v -0.0353737 0.0941198 -0.0134439
v -0.0357661 0.0938347 -0.0136373
v -0.0337383 0.0936945 -0.0127121
v -0.0340442 0.0937359 -0.0131332
v -0.0344156 0.0936736 -0.0134949
v -0.0348273 0.0935119 -0.0137723
v -0.0352511 0.0932619 -0.0139468
v -0.033099 0.0929833 -0.0134193
v -0.0334707 0.093098 -0.0137676
v -0.0338987 0.0930986 -0.0140666
v -0.0343537 0.0929852 -0.0142961
v -0.0348049 0.0927655 -0.0144404
v -0.0464459 0.107932 -0.0116
v -0.0464966 0.107886 -0.0121176
v -0.0466452 0.107753 -0.0126
v -0.0468816 0.10754 -0.0130142
v -0.0471896 0.107263 -0.0133321
v -0.0475483 0.106941 -0.0135319
v -0.0479333 0.106595 -0.0136
v -0.0544361 0.102036 -0.0136
v -0.0534037 0.102651 -0.0136
v -0.0536472 0.10334 -0.0136
v -0.0481687 0.1045 -0.0136
v -0.0484121 0.10519 -0.0136
v -0.0547846 0.102935 -0.0136
v -0.053704 0.104069 -0.0136
v -0.0549078 0.103891 -0.0136
v -0.0547986 0.104849 -0.0136
v -0.0535702 0.104788 -0.0136
v -0.053255 0.105447 -0.0136
v -0.0521772 0.106416 -0.0136
v -0.0527799 0.106003 -0.0136
v -0.0532041 0.107196 -0.0136
v -0.0523535 0.10765 -0.0136
v -0.051419 0.107888 -0.0136
v -0.0514879 0.10666 -0.0136
v -0.0507592 0.106716 -0.0136
v -0.049036 0.101838 -0.0136
v -0.0544632 0.105753 -0.0136
v -0.0539212 0.106551 -0.0136
v -0.0504547 0.107895 -0.0136
v -0.0481119 0.103772 -0.0136
v -0.0485608 0.102394 -0.0136
v -0.0482456 0.103053 -0.0136
v -0.0496387 0.101425 -0.0136
v -0.0510566 0.101124 -0.0136
v -0.0503279 0.101181 -0.0136
v -0.0524347 0.101573 -0.0136
v -0.0517752 0.101258 -0.0136
v -0.0495168 0.107671 -0.0136
v -0.0500406 0.106583 -0.0136
v -0.0493811 0.106267 -0.0136
v -0.0486597 0.107229 -0.0136
v -0.0488257 0.105792 -0.0136
v -0.0529902 0.102048 -0.0136
v -0.0476423 0.108938 -0.0116
v -0.0488212 0.109546 -0.0116
v -0.049055 0.109602 -0.0116
v -0.0502281 0.109882 -0.0116
v -0.0516745 0.109871 -0.0116
v -0.050589 0.109879 -0.0116
v -0.0530763 0.109515 -0.0116
v -0.0521413 0.109752 -0.0116
v -0.0543522 0.108833 -0.0116
v -0.0536077 0.109231 -0.0116
v -0.05489 0.10835 -0.0116
v -0.0554278 0.107866 -0.0116
v -0.0559022 0.107168 -0.0116
v -0.0562408 0.10667 -0.0116
v -0.0565764 0.105765 -0.0116
v -0.0567439 0.105314 -0.0116
v -0.0568669 0.104235 -0.0116
v -0.0569078 0.103877 -0.0116
v -0.0567537 0.102681 -0.0116
v -0.056723 0.102442 -0.0116
v -0.0562436 0.101205 -0.0116
v -0.0562002 0.101093 -0.0116
v -0.0475356 0.108883 -0.0116
v -0.0548927 0.101792 -0.0135319
v -0.0553182 0.101565 -0.0133321
v -0.0556835 0.101369 -0.0130142
v -0.0559639 0.10122 -0.0126
v -0.0561401 0.101125 -0.0121176
v -0.0566569 0.102459 -0.0121176
v -0.0568396 0.103877 -0.0121176
v -0.0566776 0.105298 -0.0121176
v -0.0561802 0.106639 -0.0121176
v -0.0553765 0.107821 -0.0121176
v -0.054313 0.108777 -0.0121176
v -0.0530517 0.109451 -0.0121176
v -0.0516658 0.109804 -0.0121176
v -0.0502358 0.109814 -0.0121176
v -0.0488449 0.109482 -0.0121176
v -0.0475739 0.108827 -0.0121176
v -0.0564633 0.102508 -0.0126
v -0.0566398 0.103879 -0.0126
v -0.0564832 0.105252 -0.0126
v -0.0560027 0.106547 -0.0126
v -0.055226 0.10769 -0.0126
v -0.0541984 0.108614 -0.0126
v -0.0529795 0.109265 -0.0126
v -0.0516403 0.109605 -0.0126
v -0.0502584 0.109615 -0.0126
v -0.0489144 0.109295 -0.0126
v -0.0476862 0.108661 -0.0126
v -0.0561552 0.102586 -0.0130142
v -0.056322 0.103881 -0.0130142
v -0.0561741 0.105178 -0.0130142
v -0.0557202 0.106401 -0.0130142
v -0.0549865 0.107481 -0.0130142
v -0.0540159 0.108354 -0.0130142
v -0.0528646 0.108969 -0.0130142
v -0.0515996 0.10929 -0.0130142
v -0.0502945 0.1093 -0.0130142
v -0.0490249 0.108997 -0.0130142
v -0.0478648 0.108398 -0.0130142
v -0.0557538 0.102688 -0.0133321
v -0.0559078 0.103884 -0.0133321
v -0.0557712 0.105082 -0.0133321
v -0.055352 0.106212 -0.0133321
v -0.0546745 0.107209 -0.0133321
v -0.0537781 0.108014 -0.0133321
v -0.0527149 0.108582 -0.0133321
v -0.0515467 0.108879 -0.0133321
v -0.0503414 0.108888 -0.0133321
v -0.049169 0.108608 -0.0133321
v -0.0480976 0.108056 -0.0133321
v -0.0552863 0.102807 -0.0135319
v -0.0554254 0.103887 -0.0135319
v -0.055302 0.10497 -0.0135319
v -0.0549233 0.105991 -0.0135319
v -0.0543111 0.106891 -0.0135319
v -0.0535012 0.107619 -0.0135319
v -0.0525406 0.108133 -0.0135319
v -0.0514851 0.108401 -0.0135319
v -0.050396 0.108409 -0.0135319
v -0.0493367 0.108156 -0.0135319
v -0.0483687 0.107657 -0.0135319
v -0.0476362 0.10895 -0.0091
v -0.0464459 0.107932 -0.0091
v -0.0490494 0.109625 -0.0091
v -0.0505893 0.109912 -0.0091
v -0.0521508 0.10979 -0.0091
v -0.0536277 0.109268 -0.0091
v -0.0549192 0.108382 -0.0091
v -0.0559374 0.107192 -0.0091
v -0.0566128 0.105779 -0.0091
v -0.0568995 0.104239 -0.0091
v -0.0567778 0.102677 -0.0091
v -0.0562561 0.101201 -0.0091
v -0.0553699 0.099909 -0.0091
v -0.0100259 0.0627799 -0.0153
v -0.010469 0.0634257 -0.0153
v -0.00976508 0.0620415 -0.0153
v -0.00970423 0.0612607 -0.0153
v -0.00984755 0.0604907 -0.0153
v -0.0101853 0.0597841 -0.0153
v -0.0106943 0.059189 -0.0153
v -0.0113401 0.0587459 -0.0153
v -0.0120785 0.0584851 -0.0153
v -0.0128593 0.0584242 -0.0153
v -0.0136293 0.0585676 -0.0153
v -0.0143359 0.0589053 -0.0153
v -0.014931 0.0594143 -0.0153
v -0.0153741 0.0600601 -0.0153
v -0.0156349 0.0607985 -0.0153
v -0.0156958 0.0615793 -0.0153
v -0.0157 0.06142 -0.0153
v -0.0155525 0.0623493 -0.0153
v -0.0152147 0.0630559 -0.0153
v -0.0147057 0.063651 -0.0153
v -0.0140599 0.0640941 -0.0153
v -0.0133215 0.0643549 -0.0153
v -0.0125407 0.0644158 -0.0153
v -0.0117707 0.0642724 -0.0153
v -0.0110641 0.0639347 -0.0153
v -0.0127 0.06142 -0.0153
v -0.0531363 0.102787 -0.0133
v -0.0533537 0.103402 -0.0133
v -0.0534044 0.104053 -0.0133
v -0.053285 0.104695 -0.0133
v -0.0530035 0.105284 -0.0133
v -0.0525793 0.105779 -0.0133
v -0.0520412 0.106149 -0.0133
v -0.0514258 0.106366 -0.0133
v -0.0507751 0.106417 -0.0133
v -0.0501335 0.106297 -0.0133
v -0.0495447 0.106016 -0.0133
v -0.0490488 0.105592 -0.0133
v -0.0486795 0.105054 -0.0133
v -0.0484621 0.104438 -0.0133
v -0.0484114 0.103788 -0.0133
v -0.0485309 0.103146 -0.0133
v -0.0488123 0.102557 -0.0133
v -0.0492365 0.102061 -0.0133
v -0.0497747 0.101692 -0.0133
v -0.05039 0.101475 -0.0133
v -0.0510407 0.101424 -0.0133
v -0.0516823 0.101543 -0.0133
v -0.0522711 0.101825 -0.0133
v -0.0527671 0.102249 -0.0133
v -0.0509079 0.10392 -0.0133
v -0.0400947 0.100867 0.0059
v -0.0400947 0.100867 -0.0059
v -0.0401676 0.100948 -0.00672822
v -0.0401676 0.100948 0.00672822
v -0.0403813 0.101186 0.0075
v -0.0403813 0.101186 -0.0075
v -0.042234 0.103247 -0.0091
v -0.0407213 0.101564 0.00816274
v -0.0407213 0.101564 -0.00816274
v -0.0411644 0.102057 -0.00867128
v -0.0416803 0.102631 0.00899096
v -0.042234 0.103247 0.0091
v -0.0411644 0.102057 0.00867128
v -0.0416803 0.102631 -0.00899096
v -0.041582 0.0995298 -0.0059
v -0.041582 0.0995298 0.0059
v -0.0416549 0.0996108 -0.00672822
v -0.0418686 0.0998486 -0.0075
v -0.0422086 0.100227 -0.00816274
v -0.0426517 0.10072 -0.00867128
v -0.0431677 0.101294 -0.00899096
v -0.0437214 0.101909 -0.0091
v -0.0431677 0.101294 0.00899096
v -0.0437214 0.101909 0.0091
v -0.0426517 0.10072 0.00867128
v -0.0422086 0.100227 0.00816274
v -0.0418686 0.0998486 0.0075
v -0.0416549 0.0996108 0.00672822
v -0.0439219 0.102133 -0.0091
v -0.0513586 0.095447 -0.0091
v -0.0513586 0.095447 0.0091
v -0.0439219 0.102133 0.0091
v -0.0433913 0.101542 0.0092
v -0.0508279 0.0948568 0.0092
v -0.0367015 0.094101 0.0092
v -0.0441382 0.0874155 0.0092
v -0.0346351 0.0918024 0.00682822
v -0.0345622 0.0917213 0.006
v -0.0419988 0.0850357 0.006
v -0.0348488 0.0920401 0.0076
v -0.0420717 0.0851168 0.00682822
v -0.0351888 0.0924183 0.00826274
v -0.0422854 0.0853546 0.0076
v -0.0356319 0.0929111 0.00877128
v -0.0426254 0.0857327 0.00826274
v -0.0361478 0.0934851 0.00909096
v -0.0430685 0.0862256 0.00877128
v -0.0435845 0.0867995 0.00909096
v -0.0345622 0.0917213 -0.006
v -0.0419988 0.0850357 -0.006
v -0.0420717 0.0851168 -0.00682822
v -0.0422854 0.0853546 -0.0076
v -0.0508279 0.0948568 -0.0092
v -0.0441382 0.0874155 -0.0092
v -0.0430685 0.0862256 -0.00877128
v -0.0426254 0.0857327 -0.00826274
v -0.0435845 0.0867995 -0.00909096
v -0.0361478 0.0934851 -0.00909096
v -0.0356319 0.0929111 -0.00877128
v -0.0346351 0.0918024 -0.00682822
v -0.0351888 0.0924183 -0.00826274
v -0.0348488 0.0920401 -0.0076
v -0.0367015 0.094101 -0.0092
v -0.0433913 0.101542 -0.0092
f 946 1226 940
f 1226 1249 940
f 940 1249 948
f 1249 1248 948
f 948 1248 945
f 1248 1247 945
f 945 1247 938
f 1247 1246 938
f 938 1246 939
f 1246 1245 939
f 939 1245 947
f 1245 1244 947
f 947 1244 937
f 1244 1243 937
f 937 1243 943
f 1243 1242 943
f 943 1242 944
f 1242 1240 944
f 944 1240 942
f 1240 1241 942
f 942 1241 936
f 1241 1239 936
f 936 1239 941
f 1239 1238 941
f 941 1238 935
f 1238 1237 935
f 935 1237 932
f 1237 1236 932
f 932 1236 931
f 1236 1235 931
f 931 1235 930
f 1235 1234 930
f 930 1234 925
f 1234 1233 925
f 925 1233 924
f 1233 1232 924
f 924 1232 929
f 1232 1231 929
f 929 1231 928
f 1231 1230 928
f 928 1230 927
f 1230 1229 927
f 927 1229 926
f 1229 1228 926
f 926 1228 934
f 1228 1227 934
f 934 1227 933
f 1227 1225 933
f 933 1225 946
f 1225 1226 946
f 644 537 667
f 537 554 667
f 667 554 666
f 554 538 666
f 666 538 665
f 538 541 665
f 665 541 664
f 541 506 664
f 664 506 663
f 506 492 663
f 663 492 662
f 492 491 662
f 662 491 661
f 491 497 661
f 661 497 660
f 497 513 660
f 660 513 659
f 513 509 659
f 659 509 658
f 509 499 658
f 658 499 657
f 499 498 657
f 657 498 656
f 498 510 656
f 656 510 655
f 510 500 655
f 655 500 654
f 500 501 654
f 654 501 653
f 501 511 653
f 653 511 652
f 511 502 652
f 652 502 651
f 502 494 651
f 651 494 650
f 494 495 650
f 650 495 649
f 495 514 649
f 649 514 648
f 514 515 648
f 648 515 647
f 515 520 647
f 647 520 646
f 520 526 646
f 646 526 645
f 526 527 645
f 645 527 644
f 527 537 644
f 1251 1094 1252
f 1094 1095 1252
f 1252 1095 1253
f 1095 1099 1253
f 1253 1099 1254
f 1099 1102 1254
f 1254 1102 1255
f 1102 1103 1255
f 1255 1103 1256
f 1103 1105 1256
f 1256 1105 1257
f 1105 1104 1257
f 1257 1104 1258
f 1104 1109 1258
f 1258 1109 1259
f 1109 1110 1259
f 1259 1110 1260
f 1110 1124 1260
f 1260 1124 1261
f 1124 1125 1261
f 1261 1125 1262
f 1125 1127 1262
f 1262 1127 1263
f 1127 1097 1263
f 1263 1097 1264
f 1097 1096 1264
f 1264 1096 1265
f 1096 1115 1265
f 1265 1115 1266
f 1115 1117 1266
f 1266 1117 1267
f 1117 1116 1267
f 1267 1116 1268
f 1116 1111 1268
f 1268 1111 1269
f 1111 1118 1269
f 1269 1118 1270
f 1118 1120 1270
f 1270 1120 1271
f 1120 1119 1271
f 1271 1119 1272
f 1119 1122 1272
f 1272 1122 1273
f 1122 1121 1273
f 1273 1121 1274
f 1121 1128 1274
f 1274 1128 1251
f 1128 1094 1251
f 14 27 15
f 27 28 15
f 15 28 16
f 28 29 16
f 16 29 17
f 29 30 17
f 17 30 18
f 30 31 18
f 18 31 19
f 31 32 19
f 19 32 20
f 32 33 20
f 20 33 21
f 33 34 21
f 21 34 22
f 34 35 22
f 22 35 23
f 35 36 23
f 23 36 24
f 36 37 24
f 24 37 1
f 37 38 1
f 1 38 2
f 38 39 2
f 2 39 3
f 39 40 3
f 3 40 4
f 40 41 4
f 4 41 5
f 41 42 5
f 5 42 6
f 42 43 6
f 6 43 7
f 43 44 7
f 7 44 8
f 44 45 8
f 8 45 9
f 45 46 9
f 9 46 10
f 46 47 10
f 10 47 11
f 47 48 11
f 11 48 12
f 48 49 12
f 12 49 13
f 49 26 13
f 13 26 14
f 26 27 14
f 518 564 531
f 564 586 531
f 531 586 528
f 586 585 528
f 528 585 529
f 585 584 529
f 529 584 521
f 584 583 521
f 521 583 516
f 583 582 516
f 516 582 517
f 582 581 517
f 517 581 503
f 581 580 503
f 503 580 545
f 580 579 545
f 545 579 546
f 579 578 546
f 546 578 555
f 578 577 555
f 555 577 556
f 577 576 556
f 556 576 544
f 576 575 544
f 544 575 542
f 575 574 542
f 542 574 543
f 574 573 543
f 543 573 507
f 573 572 507
f 507 572 508
f 572 571 508
f 508 571 493
f 571 570 493
f 493 570 496
f 570 569 496
f 496 569 505
f 569 568 505
f 505 568 539
f 568 567 539
f 539 567 540
f 567 566 540
f 540 566 560
f 566 565 560
f 560 565 559
f 565 563 559
f 559 563 518
f 563 564 518
f 746 768 744
f 768 790 744
f 744 790 741
f 790 789 741
f 741 789 742
f 789 788 742
f 742 788 749
f 788 787 749
f 749 787 743
f 787 786 743
f 743 786 747
f 786 785 747
f 747 785 748
f 785 784 748
f 748 784 754
f 784 783 754
f 754 783 755
f 783 782 755
f 755 782 759
f 782 781 759
f 759 781 760
f 781 780 760
f 760 780 753
f 780 779 753
f 753 779 751
f 779 778 751
f 751 778 752
f 778 777 752
f 752 777 764
f 777 776 764
f 764 776 765
f 776 775 765
f 765 775 763
f 775 774 763
f 763 774 758
f 774 773 758
f 758 773 766
f 773 772 766
f 766 772 761
f 772 771 761
f 761 771 762
f 771 770 762
f 762 770 756
f 770 769 756
f 756 769 757
f 769 767 757
f 757 767 746
f 767 768 746
f 709 738 740
f 740 738 739
f 738 736 739
f 739 736 737
f 736 734 737
f 737 734 735
f 734 732 735
f 735 732 733
f 732 730 733
f 733 730 731
f 730 728 731
f 731 728 729
f 728 726 729
f 729 726 727
f 726 724 727
f 727 724 725
f 724 723 725
f 725 723 683
f 723 722 683
f 683 722 684
f 684 722 682
f 722 721 682
f 682 721 680
f 680 721 678
f 721 719 678
f 678 719 679
f 679 719 690
f 719 720 690
f 690 720 691
f 720 718 691
f 691 718 689
f 718 717 689
f 689 717 685
f 685 717 686
f 717 716 686
f 686 716 687
f 687 716 688
f 716 715 688
f 688 715 675
f 675 715 698
f 715 713 698
f 698 713 696
f 696 713 697
f 713 714 697
f 697 714 699
f 714 712 699
f 699 712 695
f 712 711 695
f 695 711 694
f 710 708 706
f 706 703 710
f 703 705 710
f 710 705 711
f 705 704 711
f 711 704 694
f 740 707 709
f 707 702 709
f 709 702 708
f 702 701 708
f 708 701 706
f 603 605 533
f 512 626 625
f 512 625 504
f 626 512 623
f 512 523 623
f 623 523 624
f 624 523 622
f 523 522 622
f 622 522 621
f 522 562 621
f 621 562 620
f 620 562 618
f 562 561 618
f 618 561 619
f 619 561 616
f 561 558 616
f 616 558 617
f 617 558 614
f 558 557 614
f 614 557 615
f 615 557 612
f 557 524 612
f 612 524 613
f 613 524 610
f 524 532 610
f 610 532 611
f 611 532 609
f 532 548 609
f 609 548 608
f 548 534 608
f 608 534 607
f 533 605 534
f 605 606 534
f 534 606 607
f 535 519 600
f 600 601 535
f 601 604 535
f 535 604 533
f 604 602 533
f 533 602 603
f 625 627 504
f 627 595 504
f 504 595 530
f 595 591 530
f 530 591 547
f 591 590 547
f 547 590 553
f 590 592 553
f 553 592 551
f 592 589 551
f 551 589 552
f 589 588 552
f 552 588 536
f 588 587 536
f 536 587 549
f 587 599 549
f 549 599 550
f 599 598 550
f 550 598 525
f 598 594 525
f 525 594 519
f 594 597 519
f 519 597 600
f 1061 1060 1152
f 1060 1059 1153
f 1059 1058 1154
f 1058 1057 1155
f 1057 1056 1156
f 1056 1055 1150
f 1056 1150 1156
f 1150 1149 1156
f 1156 1149 1157
f 1149 1148 1157
f 1148 1147 1157
f 1157 1147 1158
f 1147 1146 1158
f 1146 1145 1158
f 1158 1145 1159
f 1145 1144 1159
f 1144 1143 1159
f 1159 1143 1160
f 1143 1142 1160
f 1142 1141 1160
f 1160 1141 1161
f 1141 1140 1161
f 1140 1139 1161
f 1161 1139 1162
f 1139 1137 1162
f 1162 1137 1163
f 1137 1138 1163
f 1138 1135 1163
f 1163 1135 1164
f 1135 1136 1164
f 1136 1133 1164
f 1164 1133 1165
f 1133 1134 1165
f 1134 1132 1165
f 1132 1131 1165
f 1165 1131 1166
f 1131 1130 1166
f 1130 1129 1166
f 1166 1129 1167
f 1129 1151 1167
f 1151 1086 1167
f 1167 1086 1087
f 1057 1156 1155
f 1156 1157 1155
f 1155 1157 1168
f 1157 1158 1168
f 1168 1158 1169
f 1158 1159 1169
f 1169 1159 1170
f 1159 1160 1170
f 1170 1160 1171
f 1160 1161 1171
f 1171 1161 1172
f 1161 1162 1172
f 1172 1162 1173
f 1162 1163 1173
f 1173 1163 1174
f 1163 1164 1174
f 1174 1164 1175
f 1164 1165 1175
f 1175 1165 1176
f 1165 1166 1176
f 1176 1166 1177
f 1166 1167 1177
f 1177 1167 1178
f 1167 1087 1178
f 1178 1087 1088
f 1058 1155 1154
f 1155 1168 1154
f 1154 1168 1179
f 1168 1169 1179
f 1179 1169 1180
f 1169 1170 1180
f 1180 1170 1181
f 1170 1171 1181
f 1181 1171 1182
f 1171 1172 1182
f 1182 1172 1183
f 1172 1173 1183
f 1183 1173 1184
f 1173 1174 1184
f 1184 1174 1185
f 1174 1175 1185
f 1185 1175 1186
f 1175 1176 1186
f 1186 1176 1187
f 1176 1177 1187
f 1187 1177 1188
f 1177 1178 1188
f 1188 1178 1189
f 1178 1088 1189
f 1189 1088 1089
f 1059 1154 1153
f 1154 1179 1153
f 1153 1179 1190
f 1179 1180 1190
f 1190 1180 1191
f 1180 1181 1191
f 1191 1181 1192
f 1181 1182 1192
f 1192 1182 1193
f 1182 1183 1193
f 1193 1183 1194
f 1183 1184 1194
f 1194 1184 1195
f 1184 1185 1195
f 1195 1185 1196
f 1185 1186 1196
f 1196 1186 1197
f 1186 1187 1197
f 1197 1187 1198
f 1187 1188 1198
f 1198 1188 1199
f 1188 1189 1199
f 1199 1189 1200
f 1189 1089 1200
f 1200 1089 1090
f 1060 1153 1152
f 1153 1190 1152
f 1152 1190 1201
f 1190 1191 1201
f 1201 1191 1202
f 1191 1192 1202
f 1202 1192 1203
f 1192 1193 1203
f 1203 1193 1204
f 1193 1194 1204
f 1204 1194 1205
f 1194 1195 1205
f 1205 1195 1206
f 1195 1196 1206
f 1206 1196 1207
f 1196 1197 1207
f 1207 1197 1208
f 1197 1198 1208
f 1208 1198 1209
f 1198 1199 1209
f 1209 1199 1210
f 1199 1200 1210
f 1210 1200 1211
f 1200 1090 1211
f 1211 1090 1091
f 1061 1152 1093
f 1152 1201 1093
f 1093 1201 1098
f 1201 1202 1098
f 1098 1202 1100
f 1202 1203 1100
f 1100 1203 1101
f 1203 1204 1101
f 1101 1204 1112
f 1204 1205 1112
f 1112 1205 1113
f 1205 1206 1113
f 1113 1206 1106
f 1206 1207 1106
f 1106 1207 1107
f 1207 1208 1107
f 1107 1208 1108
f 1208 1209 1108
f 1108 1209 1114
f 1209 1210 1114
f 1114 1210 1123
f 1210 1211 1123
f 1123 1211 1126
f 1211 1091 1126
f 1126 1091 1092
f 710 711 923
f 711 712 923
f 923 712 714
f 716 910 715
f 910 923 715
f 715 923 713
f 923 714 713
f 716 717 910
f 717 718 910
f 910 718 720
f 720 719 910
f 719 721 910
f 910 721 722
f 783 726 782
f 726 781 782
f 789 910 788
f 910 722 788
f 788 722 723
f 940 769 770
f 833 774 775
f 783 784 726
f 784 785 726
f 726 785 724
f 785 786 724
f 724 786 723
f 786 787 723
f 723 787 788
f 937 943 910
f 943 944 910
f 770 771 940
f 771 772 940
f 940 772 833
f 772 773 833
f 833 773 774
f 736 833 734
f 833 732 734
f 940 948 769
f 948 945 769
f 769 945 767
f 945 938 767
f 767 938 939
f 789 790 910
f 790 768 910
f 910 768 937
f 768 767 937
f 937 767 947
f 767 939 947
f 944 942 910
f 942 936 910
f 910 936 847
f 736 738 833
f 738 709 833
f 833 709 923
f 709 708 923
f 923 708 710
f 775 776 833
f 776 777 833
f 833 777 778
f 781 726 780
f 726 728 780
f 780 728 730
f 778 779 833
f 779 780 833
f 833 780 732
f 780 730 732
f 936 941 847
f 941 935 847
f 847 935 844
f 935 932 844
f 844 932 843
f 932 931 843
f 843 931 842
f 931 930 842
f 842 930 841
f 930 925 841
f 841 925 840
f 925 924 840
f 840 924 839
f 924 929 839
f 839 929 838
f 929 928 838
f 838 928 837
f 928 927 837
f 837 927 836
f 927 926 836
f 836 926 835
f 926 934 835
f 835 934 834
f 934 933 834
f 834 933 833
f 933 946 833
f 833 946 940
f 1314 1313 1325
f 1313 1324 1325
f 1309 1308 1311
f 1308 1310 1311
f 1339 1328 1338
f 1328 1329 1338
f 818 805 798
f 818 798 817
f 798 804 817
f 817 804 816
f 804 795 816
f 816 795 815
f 795 794 815
f 815 794 814
f 794 797 814
f 814 797 813
f 797 796 813
f 813 796 812
f 796 793 812
f 812 793 811
f 793 800 811
f 811 800 810
f 800 799 810
f 810 799 809
f 799 801 809
f 809 801 808
f 801 803 808
f 808 803 807
f 803 802 807
f 807 802 806
f 1055 1224 1150
f 1224 1223 1150
f 1150 1223 1149
f 1149 1223 1148
f 1223 1222 1148
f 1148 1222 1147
f 1147 1222 1146
f 1222 1221 1146
f 1146 1221 1145
f 1145 1221 1144
f 1221 1220 1144
f 1144 1220 1143
f 1143 1220 1142
f 1220 1219 1142
f 1142 1219 1141
f 1141 1219 1140
f 1219 1218 1140
f 1140 1218 1139
f 1139 1218 1137
f 1218 1217 1137
f 1137 1217 1138
f 1138 1217 1135
f 1217 1216 1135
f 1135 1216 1136
f 1136 1216 1133
f 1216 1215 1133
f 1133 1215 1134
f 1134 1215 1132
f 1215 1214 1132
f 1132 1214 1131
f 1131 1214 1130
f 1214 1212 1130
f 1130 1212 1129
f 1129 1212 1151
f 1212 1213 1151
f 1151 1213 1086
f 558 561 326
f 561 562 326
f 326 562 522
f 546 555 326
f 276 339 518
f 339 559 518
f 551 531 553
f 531 547 553
f 542 384 544
f 384 326 544
f 544 326 556
f 326 555 556
f 539 540 339
f 540 560 339
f 339 560 559
f 541 538 507
f 538 384 507
f 507 384 543
f 384 542 543
f 551 552 531
f 552 536 531
f 531 536 518
f 536 549 518
f 518 549 550
f 548 276 534
f 276 533 534
f 547 531 530
f 531 528 530
f 530 528 504
f 548 532 276
f 532 524 276
f 276 524 326
f 524 557 326
f 326 557 558
f 528 529 504
f 529 521 504
f 504 521 516
f 550 525 518
f 525 519 518
f 518 519 276
f 519 535 276
f 276 535 533
f 522 523 326
f 523 512 326
f 326 512 504
f 505 499 509
f 541 507 506
f 507 508 506
f 506 508 493
f 516 517 504
f 517 503 504
f 504 503 326
f 503 545 326
f 326 545 546
f 498 499 339
f 499 505 339
f 339 505 539
f 538 554 384
f 554 537 384
f 384 537 386
f 537 527 386
f 386 527 387
f 527 526 387
f 387 526 388
f 526 520 388
f 388 520 389
f 520 515 389
f 389 515 390
f 515 514 390
f 390 514 391
f 514 495 391
f 391 495 392
f 495 494 392
f 392 494 393
f 494 502 393
f 393 502 394
f 502 511 394
f 394 511 395
f 511 501 395
f 395 501 396
f 501 500 396
f 396 500 339
f 500 510 339
f 339 510 498
f 509 513 505
f 513 497 505
f 505 497 496
f 497 491 496
f 496 491 493
f 491 492 493
f 493 492 506
f 486 375 397
f 486 397 485
f 397 398 485
f 485 398 484
f 398 399 484
f 484 399 483
f 399 400 483
f 483 400 482
f 400 401 482
f 482 401 481
f 401 402 481
f 481 402 480
f 402 403 480
f 480 403 479
f 403 404 479
f 479 404 478
f 404 405 478
f 478 405 477
f 405 406 477
f 477 406 476
f 406 407 476
f 476 407 475
f 407 327 475
f 475 327 474
f 1305 1224 1055
f 802 792 806
f 792 745 806
f 806 745 903
f 745 681 903
f 903 681 677
f 488 474 327
f 1002 1003 1330
f 1003 960 1330
f 1330 960 1331
f 960 1327 1331
f 1002 1330 1001
f 1330 1332 1001
f 1001 1332 1000
f 1332 1329 1000
f 1000 1329 1055
f 1329 1328 1055
f 1055 1328 1305
f 677 676 903
f 676 674 903
f 903 674 957
f 674 673 957
f 957 673 958
f 673 959 958
f 261 1320 1318
f 241 1306 87
f 1306 1309 87
f 87 1309 186
f 1309 1311 186
f 186 1311 210
f 1311 1323 210
f 210 1323 209
f 1323 1322 209
f 209 1322 208
f 1322 207 208
f 261 260 1320
f 260 259 1320
f 1320 259 1322
f 259 258 1322
f 1322 258 207
f 634 632 1318
f 641 1316 1314
f 261 593 327
f 593 489 327
f 327 489 488
f 632 630 1318
f 630 639 1318
f 1318 639 261
f 639 640 261
f 261 640 593
f 641 1314 643
f 1314 1325 643
f 1325 1326 643
f 643 1326 671
f 1326 1327 671
f 671 1327 673
f 1327 960 673
f 673 960 959
f 1316 641 1318
f 641 636 1318
f 1318 636 634
f 87 112 241
f 112 240 241
f 112 88 240
f 88 89 240
f 240 89 239
f 89 90 239
f 90 91 239
f 239 91 238
f 91 93 238
f 93 92 238
f 238 92 237
f 92 95 237
f 95 94 237
f 237 94 236
f 94 97 236
f 97 96 236
f 236 96 235
f 96 98 235
f 98 99 235
f 235 99 234
f 99 100 234
f 100 101 234
f 234 101 233
f 101 102 233
f 102 103 233
f 233 103 232
f 103 104 232
f 104 105 232
f 232 105 231
f 105 106 231
f 106 107 231
f 231 107 230
f 111 229 109
f 229 230 109
f 109 230 108
f 230 107 108
f 229 111 1287
f 111 244 1287
f 1287 244 1286
f 1289 1285 1070
f 1285 1068 1070
f 693 1278 672
f 1278 670 672
f 1280 1283 244
f 1283 1288 244
f 244 1288 1286
f 1289 1070 1282
f 1070 1086 1282
f 1282 1086 1213
f 692 1066 1067
f 637 638 1279
f 638 629 1279
f 1279 629 628
f 1280 244 1279
f 244 300 1279
f 1279 300 637
f 300 301 637
f 301 302 637
f 637 302 304
f 693 692 1278
f 692 1067 1278
f 1278 1067 1281
f 1067 1068 1281
f 1281 1068 1284
f 1068 1285 1284
f 805 818 791
f 818 750 791
f 486 487 375
f 487 490 375
f 375 490 341
f 490 596 341
f 341 596 342
f 596 637 342
f 750 818 700
f 818 913 700
f 700 913 692
f 913 1026 692
f 692 1026 1025
f 628 631 1279
f 631 633 1279
f 1279 633 1276
f 633 635 1276
f 1276 635 1277
f 635 642 1277
f 1277 642 1278
f 642 669 1278
f 1278 669 670
f 304 344 637
f 344 343 637
f 637 343 342
f 1025 1024 692
f 1024 1023 692
f 692 1023 1066
f 1224 1305 1304
f 1223 1224 1213
f 1224 1304 1213
f 1213 1304 1282
f 1304 1297 1282
f 1219 1220 1213
f 1220 1221 1213
f 1221 1222 1213
f 1213 1222 1223
f 1215 1216 1214
f 1216 1217 1214
f 1214 1217 1212
f 1212 1217 1213
f 1217 1218 1213
f 1213 1218 1219
f 1287 1299 229
f 1299 1307 229
f 229 1307 1306
f 1306 241 229
f 241 240 229
f 229 240 239
f 239 238 229
f 238 237 229
f 229 237 236
f 232 231 233
f 231 234 233
f 236 235 229
f 235 234 229
f 229 234 230
f 234 231 230
f 791 792 805
f 792 802 805
f 805 802 798
f 802 803 798
f 798 803 801
f 801 799 798
f 799 800 798
f 798 800 793
f 794 793 797
f 793 796 797
f 794 795 793
f 795 804 793
f 793 804 798
f 643 642 641
f 642 635 641
f 474 488 487
f 487 486 474
f 486 485 474
f 474 485 484
f 484 483 474
f 483 482 474
f 474 482 481
f 480 476 481
f 476 475 481
f 481 475 474
f 480 479 476
f 479 478 476
f 476 478 477
f 1128 1121 1061
f 1061 1121 986
f 1121 1122 986
f 1122 1119 986
f 986 1119 1120
f 1120 1118 986
f 1118 1111 986
f 986 1111 1054
f 1111 1116 1054
f 1054 1116 1117
f 1117 1115 1054
f 1115 1096 1054
f 1054 1096 1092
f 1105 1106 1104
f 1106 1107 1104
f 1104 1107 1109
f 1107 1108 1109
f 1109 1108 1110
f 1108 1114 1110
f 1110 1114 1124
f 1114 1123 1124
f 1124 1123 1125
f 1123 1126 1125
f 1125 1126 1127
f 1126 1092 1127
f 1127 1092 1097
f 1092 1096 1097
f 1128 1061 1094
f 1061 1093 1094
f 1094 1093 1095
f 1093 1098 1095
f 1095 1098 1099
f 1098 1100 1099
f 1099 1100 1102
f 1100 1101 1102
f 1102 1101 1103
f 1101 1112 1103
f 1103 1112 1105
f 1112 1113 1105
f 1105 1113 1106
f 50 47 46
f 46 45 50
f 45 44 50
f 50 44 64
f 44 43 64
f 64 43 42
f 42 41 64
f 41 40 64
f 64 40 63
f 58 51 27
f 40 39 63
f 39 38 63
f 63 38 62
f 38 37 62
f 62 37 61
f 37 36 61
f 61 36 65
f 36 35 65
f 65 35 60
f 35 34 60
f 60 34 57
f 34 33 57
f 57 33 56
f 33 32 56
f 56 32 55
f 32 31 55
f 27 51 28
f 51 52 28
f 28 52 29
f 52 59 29
f 29 59 30
f 59 53 30
f 30 53 31
f 53 54 31
f 31 54 55
f 27 26 58
f 26 49 58
f 58 49 50
f 49 48 50
f 50 48 47
f 489 565 566
f 577 596 576
f 596 575 576
f 594 598 564
f 598 599 564
f 599 587 564
f 564 587 586
f 575 596 574
f 596 490 574
f 574 490 573
f 592 590 580
f 597 594 593
f 594 564 593
f 593 564 489
f 564 563 489
f 489 563 565
f 582 583 587
f 577 578 596
f 578 579 596
f 596 579 595
f 579 580 595
f 595 580 591
f 580 590 591
f 570 571 490
f 571 572 490
f 490 572 573
f 583 584 587
f 584 585 587
f 587 585 586
f 566 567 489
f 567 568 489
f 489 568 490
f 568 569 490
f 490 569 570
f 582 587 581
f 587 588 581
f 581 588 580
f 588 589 580
f 580 589 592
f 745 729 727
f 745 727 681
f 727 725 681
f 681 725 683
f 752 764 750
f 764 765 750
f 765 763 750
f 763 758 750
f 750 758 745
f 758 766 745
f 745 766 761
f 761 762 745
f 762 756 745
f 745 756 757
f 759 700 755
f 700 754 755
f 759 760 700
f 760 753 700
f 700 753 750
f 753 751 750
f 750 751 752
f 740 739 748
f 749 743 729
f 754 700 748
f 700 707 748
f 748 707 740
f 749 729 742
f 739 737 748
f 737 735 748
f 748 735 747
f 735 733 747
f 747 733 743
f 733 731 743
f 743 731 729
f 757 746 745
f 746 744 745
f 745 744 729
f 744 741 729
f 729 741 742
f 1291 1276 1290
f 1276 1277 1290
f 1338 1296 1339
f 1296 1297 1339
f 1339 1297 1304
f 1300 1310 1298
f 1310 1308 1298
f 1298 1308 1299
f 1308 1307 1299
f 1293 1294 1338
f 1294 1295 1338
f 1338 1295 1296
f 1290 1336 1337
f 1300 1301 1310
f 1301 1302 1310
f 1310 1302 1321
f 1302 1303 1321
f 1321 1303 1319
f 1303 1291 1319
f 1293 1338 1292
f 1338 1333 1292
f 1292 1333 1290
f 1333 1334 1290
f 1290 1334 1336
f 1312 1315 1291
f 1315 1317 1291
f 1291 1317 1319
f 1337 1335 1290
f 1335 1324 1290
f 1290 1324 1291
f 1324 1313 1291
f 1291 1313 1312
f 706 700 703
f 700 692 703
f 703 692 705
f 706 701 700
f 701 702 700
f 700 702 707
f 672 675 693
f 675 698 693
f 698 696 693
f 696 697 693
f 693 697 699
f 699 695 693
f 695 694 693
f 693 694 692
f 694 704 692
f 692 704 705
f 689 685 676
f 685 686 676
f 676 686 687
f 681 683 684
f 684 682 681
f 682 680 681
f 681 680 677
f 680 678 677
f 678 679 677
f 679 690 677
f 677 690 676
f 690 691 676
f 676 691 689
f 687 688 676
f 688 675 676
f 676 675 674
f 675 672 674
f 674 672 673
f 672 670 673
f 673 670 671
f 670 669 671
f 671 669 643
f 669 642 643
f 257 295 305
f 306 300 244
f 244 243 306
f 243 242 306
f 306 242 307
f 242 246 307
f 246 245 307
f 307 245 308
f 245 247 308
f 247 248 308
f 308 248 309
f 304 302 303
f 302 310 303
f 303 310 299
f 310 311 299
f 299 311 298
f 311 312 298
f 298 312 297
f 312 313 297
f 297 313 296
f 313 314 296
f 296 314 295
f 302 301 310
f 301 315 310
f 310 315 311
f 315 316 311
f 311 316 312
f 316 317 312
f 312 317 313
f 317 318 313
f 313 318 314
f 318 319 314
f 301 300 315
f 300 306 315
f 315 306 316
f 306 307 316
f 316 307 317
f 307 308 317
f 317 308 318
f 308 309 318
f 318 309 319
f 309 320 319
f 248 250 309
f 250 249 309
f 309 249 320
f 249 252 320
f 320 252 251
f 295 314 305
f 314 319 305
f 305 319 321
f 319 320 321
f 321 320 322
f 320 251 322
f 322 251 253
f 257 305 256
f 305 321 256
f 256 321 255
f 321 322 255
f 255 322 254
f 322 253 254
f 254 253 50
f 326 384 354
f 384 385 354
f 354 385 353
f 385 383 353
f 353 383 352
f 383 382 352
f 352 382 351
f 382 381 351
f 351 381 350
f 381 380 350
f 350 380 349
f 380 379 349
f 349 379 348
f 379 378 348
f 348 378 347
f 378 376 347
f 347 376 346
f 376 377 346
f 346 377 345
f 377 373 345
f 345 373 340
f 373 374 340
f 340 374 341
f 374 375 341
f 304 303 355
f 356 325 326
f 326 354 356
f 354 353 356
f 356 353 357
f 353 352 357
f 352 351 357
f 357 351 358
f 351 350 358
f 350 349 358
f 358 349 359
f 257 323 295
f 323 360 295
f 295 360 296
f 360 361 296
f 296 361 297
f 361 362 297
f 297 362 298
f 362 363 298
f 298 363 299
f 363 364 299
f 299 364 303
f 323 324 360
f 324 365 360
f 360 365 361
f 365 366 361
f 361 366 362
f 366 367 362
f 362 367 363
f 367 368 363
f 363 368 364
f 368 369 364
f 324 325 365
f 325 356 365
f 365 356 366
f 356 357 366
f 366 357 367
f 357 358 367
f 367 358 368
f 358 359 368
f 368 359 369
f 359 370 369
f 349 348 359
f 348 347 359
f 359 347 370
f 347 346 370
f 370 346 345
f 303 364 355
f 364 369 355
f 355 369 371
f 369 370 371
f 371 370 372
f 370 345 372
f 372 345 340
f 304 355 344
f 355 371 344
f 344 371 343
f 371 372 343
f 343 372 342
f 372 340 342
f 342 340 341
f 955 966 1004
f 1005 1001 1000
f 1000 999 1005
f 999 998 1005
f 1005 998 1006
f 998 997 1006
f 997 996 1006
f 1006 996 1007
f 996 995 1007
f 995 994 1007
f 1007 994 1008
f 960 1003 961
f 1003 1009 961
f 961 1009 962
f 1009 1010 962
f 962 1010 963
f 1010 1011 963
f 963 1011 964
f 1011 1012 964
f 964 1012 965
f 1012 1013 965
f 965 1013 966
f 1003 1002 1009
f 1002 1014 1009
f 1009 1014 1010
f 1014 1015 1010
f 1010 1015 1011
f 1015 1016 1011
f 1011 1016 1012
f 1016 1017 1012
f 1012 1017 1013
f 1017 1018 1013
f 1002 1001 1014
f 1001 1005 1014
f 1014 1005 1015
f 1005 1006 1015
f 1015 1006 1016
f 1006 1007 1016
f 1016 1007 1017
f 1007 1008 1017
f 1017 1008 1018
f 1008 1019 1018
f 994 993 1008
f 993 992 1008
f 1008 992 1019
f 992 991 1019
f 1019 991 990
f 966 1013 1004
f 1013 1018 1004
f 1004 1018 1020
f 1018 1019 1020
f 1020 1019 1021
f 1019 990 1021
f 1021 990 985
f 955 1004 989
f 1004 1020 989
f 989 1020 988
f 1020 1021 988
f 988 1021 987
f 1021 985 987
f 987 985 986
f 955 953 966
f 953 967 966
f 966 967 965
f 967 968 965
f 965 968 964
f 968 969 964
f 964 969 963
f 969 970 963
f 963 970 962
f 970 971 962
f 962 971 961
f 971 972 961
f 961 972 960
f 972 959 960
f 953 951 967
f 951 973 967
f 967 973 968
f 973 974 968
f 968 974 969
f 974 975 969
f 969 975 970
f 975 976 970
f 970 976 971
f 976 977 971
f 971 977 972
f 977 978 972
f 972 978 959
f 978 958 959
f 951 949 973
f 949 979 973
f 973 979 974
f 979 980 974
f 974 980 975
f 980 981 975
f 975 981 976
f 981 982 976
f 976 982 977
f 982 983 977
f 977 983 978
f 983 984 978
f 978 984 958
f 984 957 958
f 949 910 979
f 910 909 979
f 979 909 980
f 909 908 980
f 980 908 981
f 908 907 981
f 981 907 982
f 907 906 982
f 982 906 983
f 906 905 983
f 983 905 984
f 905 904 984
f 984 904 957
f 904 903 957
f 986 985 1061
f 985 1060 1061
f 985 990 1060
f 990 991 1060
f 1060 991 1059
f 991 992 1059
f 992 993 1059
f 1059 993 1058
f 993 994 1058
f 994 995 1058
f 1058 995 1057
f 995 996 1057
f 996 997 1057
f 1057 997 1056
f 997 998 1056
f 1056 998 1055
f 998 999 1055
f 1055 999 1000
f 908 909 845
f 909 910 845
f 845 910 847
f 845 846 908
f 846 831 908
f 908 831 907
f 831 832 907
f 832 828 907
f 828 829 907
f 907 829 906
f 829 825 906
f 825 826 906
f 906 826 905
f 826 822 905
f 822 823 905
f 905 823 904
f 823 820 904
f 820 806 904
f 904 806 903
f 845 847 844
f 831 846 848
f 846 845 848
f 845 844 848
f 844 843 848
f 848 843 849
f 843 842 849
f 849 842 850
f 842 841 850
f 850 841 851
f 841 840 851
f 851 840 852
f 840 839 852
f 852 839 853
f 839 838 853
f 853 838 854
f 838 837 854
f 854 837 855
f 837 836 855
f 855 836 856
f 836 835 856
f 856 835 857
f 835 834 857
f 857 834 858
f 834 833 858
f 858 833 830
f 828 832 859
f 832 831 859
f 831 848 859
f 848 849 859
f 859 849 860
f 849 850 860
f 860 850 861
f 850 851 861
f 861 851 862
f 851 852 862
f 862 852 863
f 852 853 863
f 863 853 864
f 853 854 864
f 864 854 865
f 854 855 865
f 865 855 866
f 855 856 866
f 866 856 867
f 856 857 867
f 867 857 868
f 857 858 868
f 868 858 869
f 858 830 869
f 869 830 827
f 825 829 870
f 829 828 870
f 828 859 870
f 859 860 870
f 870 860 871
f 860 861 871
f 871 861 872
f 861 862 872
f 872 862 873
f 862 863 873
f 873 863 874
f 863 864 874
f 874 864 875
f 864 865 875
f 875 865 876
f 865 866 876
f 876 866 877
f 866 867 877
f 877 867 878
f 867 868 878
f 878 868 879
f 868 869 879
f 879 869 880
f 869 827 880
f 880 827 824
f 822 826 881
f 826 825 881
f 825 870 881
f 870 871 881
f 881 871 882
f 871 872 882
f 882 872 883
f 872 873 883
f 883 873 884
f 873 874 884
f 884 874 885
f 874 875 885
f 885 875 886
f 875 876 886
f 886 876 887
f 876 877 887
f 887 877 888
f 877 878 888
f 888 878 889
f 878 879 889
f 889 879 890
f 879 880 890
f 890 880 891
f 880 824 891
f 891 824 821
f 820 823 892
f 823 822 892
f 822 881 892
f 881 882 892
f 892 882 893
f 882 883 893
f 893 883 894
f 883 884 894
f 894 884 895
f 884 885 895
f 895 885 896
f 885 886 896
f 896 886 897
f 886 887 897
f 897 887 898
f 887 888 898
f 898 888 899
f 888 889 899
f 899 889 900
f 889 890 900
f 900 890 901
f 890 891 901
f 901 891 902
f 891 821 902
f 902 821 819
f 807 806 820
f 820 892 807
f 892 893 807
f 807 893 808
f 893 894 808
f 808 894 809
f 894 895 809
f 809 895 810
f 895 896 810
f 810 896 811
f 896 897 811
f 811 897 812
f 897 898 812
f 812 898 813
f 898 899 813
f 813 899 814
f 899 900 814
f 814 900 815
f 900 901 815
f 815 901 816
f 901 902 816
f 816 902 817
f 902 819 817
f 817 819 818
f 1054 1092 1091
f 1054 1091 1062
f 1091 1090 1062
f 1062 1090 1063
f 1090 1089 1063
f 1063 1089 1064
f 1089 1088 1064
f 1064 1088 1065
f 1088 1087 1065
f 1065 1087 1069
f 1087 1086 1069
f 1069 1086 1070
f 923 922 833
f 922 830 833
f 922 921 830
f 921 920 830
f 830 920 827
f 920 919 827
f 919 918 827
f 827 918 824
f 918 917 824
f 917 916 824
f 824 916 821
f 916 914 821
f 821 914 819
f 914 915 819
f 915 911 819
f 819 911 818
f 911 912 818
f 818 912 913
f 647 646 668
f 646 645 668
f 668 645 644
f 650 649 668
f 649 648 668
f 668 648 647
f 653 652 668
f 652 651 668
f 668 651 650
f 656 655 668
f 655 654 668
f 668 654 653
f 659 658 668
f 658 657 668
f 668 657 656
f 662 661 668
f 661 660 668
f 668 660 659
f 665 664 668
f 664 663 668
f 668 663 662
f 644 667 668
f 667 666 668
f 668 666 665
f 1239 1241 1250
f 1236 1237 1250
f 1237 1238 1250
f 1250 1238 1239
f 1233 1234 1250
f 1234 1235 1250
f 1250 1235 1236
f 1230 1231 1250
f 1231 1232 1250
f 1250 1232 1233
f 1227 1228 1250
f 1228 1229 1250
f 1250 1229 1230
f 1249 1226 1250
f 1226 1225 1250
f 1250 1225 1227
f 1246 1247 1250
f 1247 1248 1250
f 1250 1248 1249
f 1243 1244 1250
f 1244 1245 1250
f 1250 1245 1246
f 1241 1240 1250
f 1240 1242 1250
f 1250 1242 1243
f 1259 1260 1275
f 1260 1261 1275
f 1275 1261 1262
f 1256 1257 1275
f 1257 1258 1275
f 1275 1258 1259
f 1253 1254 1275
f 1254 1255 1275
f 1275 1255 1256
f 1274 1251 1275
f 1251 1252 1275
f 1275 1252 1253
f 1271 1272 1275
f 1272 1273 1275
f 1275 1273 1274
f 1268 1269 1275
f 1269 1270 1275
f 1275 1270 1271
f 1265 1266 1275
f 1266 1267 1275
f 1275 1267 1268
f 1262 1263 1275
f 1263 1264 1275
f 1275 1264 1265
f 22 23 25
f 23 24 25
f 25 24 1
f 19 20 25
f 20 21 25
f 25 21 22
f 16 17 25
f 17 18 25
f 25 18 19
f 13 14 25
f 14 15 25
f 25 15 16
f 10 11 25
f 11 12 25
f 25 12 13
f 7 8 25
f 8 9 25
f 25 9 10
f 4 5 25
f 5 6 25
f 25 6 7
f 1 2 25
f 2 3 25
f 25 3 4
f 1033 1032 1029
f 921 922 1034
f 922 923 950
f 922 950 1034
f 950 952 1034
f 1034 952 1035
f 952 954 1035
f 1035 954 1036
f 1037 920 921
f 954 956 1036
f 956 1031 1036
f 1036 1031 1030
f 921 1034 1037
f 1034 1035 1037
f 1037 1035 1038
f 1035 1036 1038
f 1038 1036 1033
f 1036 1030 1033
f 1033 1030 1032
f 1040 917 1039
f 917 918 1039
f 1039 918 919
f 1041 914 1040
f 914 916 1040
f 1040 916 917
f 1042 911 1041
f 911 915 1041
f 1041 915 914
f 1026 913 1042
f 913 912 1042
f 1042 912 911
f 1039 1043 1040
f 1043 1044 1040
f 1040 1044 1041
f 1044 1045 1041
f 1041 1045 1042
f 1045 1046 1042
f 1042 1046 1026
f 1046 1025 1026
f 1043 1047 1044
f 1047 1048 1044
f 1044 1048 1045
f 1048 1049 1045
f 1045 1049 1046
f 1049 1050 1046
f 1046 1050 1025
f 1050 1024 1025
f 1023 1024 1022
f 1024 1050 1022
f 1022 1050 1027
f 1050 1049 1027
f 1027 1049 1028
f 1049 1048 1028
f 1028 1048 1029
f 1048 1047 1029
f 1029 1047 1033
f 1047 1043 1033
f 1033 1043 1038
f 1043 1039 1038
f 1038 1039 1037
f 1039 919 1037
f 1037 919 920
f 1066 1023 1022
f 1070 1068 1069
f 1068 1071 1069
f 1069 1071 1065
f 1071 1072 1065
f 1065 1072 1064
f 1072 1073 1064
f 1064 1073 1063
f 1073 1074 1063
f 1063 1074 1062
f 1074 1075 1062
f 1062 1075 1054
f 1068 1067 1071
f 1067 1076 1071
f 1071 1076 1072
f 1076 1077 1072
f 1072 1077 1073
f 1077 1078 1073
f 1073 1078 1074
f 1078 1079 1074
f 1074 1079 1075
f 1079 1080 1075
f 1067 1066 1076
f 1066 1081 1076
f 1076 1081 1077
f 1081 1082 1077
f 1077 1082 1078
f 1082 1083 1078
f 1078 1083 1079
f 1083 1084 1079
f 1079 1084 1080
f 1084 1085 1080
f 1066 1022 1081
f 1022 1027 1081
f 1081 1027 1082
f 1027 1028 1082
f 1082 1028 1083
f 1028 1029 1083
f 1083 1029 1084
f 1029 1032 1084
f 1084 1032 1085
f 1032 1030 1085
f 1085 1030 1031
f 1054 1075 1053
f 1075 1080 1053
f 1053 1080 1052
f 1080 1085 1052
f 1052 1085 1051
f 1085 1031 1051
f 1051 1031 956
f 328 327 407
f 328 407 408
f 407 406 408
f 408 406 409
f 406 405 409
f 409 405 410
f 405 404 410
f 410 404 411
f 404 403 411
f 411 403 412
f 403 402 412
f 412 402 413
f 402 401 413
f 413 401 414
f 401 400 414
f 414 400 415
f 400 399 415
f 415 399 416
f 399 398 416
f 416 398 417
f 398 397 417
f 417 397 418
f 331 330 419
f 330 329 419
f 397 375 418
f 375 374 418
f 418 374 373
f 373 420 418
f 420 421 418
f 418 421 417
f 421 422 417
f 417 422 416
f 422 423 416
f 416 423 415
f 423 424 415
f 415 424 414
f 424 425 414
f 414 425 413
f 425 426 413
f 413 426 412
f 426 427 412
f 412 427 411
f 427 428 411
f 411 428 410
f 428 429 410
f 410 429 409
f 429 419 409
f 409 419 408
f 419 329 408
f 408 329 328
f 430 332 331
f 331 419 430
f 419 429 430
f 430 429 431
f 429 428 431
f 431 428 432
f 428 427 432
f 432 427 433
f 427 426 433
f 433 426 434
f 426 425 434
f 434 425 435
f 425 424 435
f 435 424 436
f 424 423 436
f 436 423 437
f 423 422 437
f 437 422 438
f 422 421 438
f 438 421 439
f 421 420 439
f 439 420 440
f 335 334 441
f 334 333 441
f 373 377 420
f 377 376 420
f 420 376 440
f 376 378 440
f 440 378 379
f 379 442 440
f 442 443 440
f 440 443 439
f 443 444 439
f 439 444 438
f 444 445 438
f 438 445 437
f 445 446 437
f 437 446 436
f 446 447 436
f 436 447 435
f 447 448 435
f 435 448 434
f 448 449 434
f 434 449 433
f 449 450 433
f 433 450 432
f 450 451 432
f 432 451 431
f 451 441 431
f 431 441 430
f 441 333 430
f 430 333 332
f 337 336 452
f 336 335 452
f 335 441 452
f 441 451 452
f 452 451 453
f 451 450 453
f 453 450 454
f 450 449 454
f 454 449 455
f 449 448 455
f 455 448 456
f 448 447 456
f 456 447 457
f 447 446 457
f 457 446 458
f 446 445 458
f 458 445 459
f 445 444 459
f 459 444 460
f 444 443 460
f 460 443 461
f 443 442 461
f 461 442 462
f 339 338 463
f 338 337 463
f 379 380 442
f 380 381 442
f 442 381 462
f 381 382 462
f 462 382 383
f 337 452 463
f 452 453 463
f 463 453 464
f 453 454 464
f 464 454 465
f 454 455 465
f 465 455 466
f 455 456 466
f 466 456 467
f 456 457 467
f 467 457 468
f 457 458 468
f 468 458 469
f 458 459 469
f 469 459 470
f 459 460 470
f 470 460 471
f 460 461 471
f 471 461 472
f 461 462 472
f 472 462 473
f 462 383 473
f 473 383 385
f 339 463 396
f 463 464 396
f 396 464 395
f 464 465 395
f 395 465 394
f 465 466 394
f 394 466 393
f 466 467 393
f 393 467 392
f 467 468 392
f 392 468 391
f 468 469 391
f 391 469 390
f 469 470 390
f 390 470 389
f 470 471 389
f 389 471 388
f 471 472 388
f 388 472 387
f 472 473 387
f 387 473 386
f 473 385 386
f 386 385 384
f 58 50 70
f 50 253 70
f 70 253 69
f 253 251 69
f 69 251 74
f 251 252 74
f 74 252 73
f 252 249 73
f 73 249 78
f 249 250 78
f 78 250 77
f 250 248 77
f 77 248 82
f 248 247 82
f 82 247 81
f 247 245 81
f 81 245 86
f 245 246 86
f 86 246 85
f 246 242 85
f 85 242 110
f 242 243 110
f 110 243 111
f 243 244 111
f 261 327 263
f 327 328 263
f 263 328 262
f 328 329 262
f 262 329 265
f 329 330 265
f 265 330 264
f 330 331 264
f 264 331 267
f 331 332 267
f 267 332 266
f 332 333 266
f 266 333 269
f 333 334 269
f 269 334 268
f 334 335 268
f 268 335 271
f 335 336 271
f 271 336 270
f 336 337 270
f 270 337 275
f 337 338 275
f 275 338 276
f 338 339 276
f 110 111 109
f 110 109 113
f 109 108 113
f 113 108 114
f 108 107 114
f 107 106 114
f 114 106 115
f 106 105 115
f 105 104 115
f 115 104 116
f 104 103 116
f 103 102 116
f 116 102 117
f 102 101 117
f 101 100 117
f 117 100 118
f 100 99 118
f 99 98 118
f 118 98 119
f 98 96 119
f 119 96 120
f 96 97 120
f 97 94 120
f 120 94 121
f 94 95 121
f 95 92 121
f 121 92 122
f 92 93 122
f 93 91 122
f 91 90 122
f 122 90 123
f 112 124 88
f 124 123 88
f 88 123 89
f 123 90 89
f 81 86 125
f 86 85 125
f 112 87 124
f 87 84 124
f 124 84 83
f 83 126 124
f 126 127 124
f 124 127 123
f 127 128 123
f 123 128 122
f 128 129 122
f 122 129 121
f 129 130 121
f 121 130 120
f 130 131 120
f 120 131 119
f 131 132 119
f 119 132 118
f 132 133 118
f 118 133 117
f 133 134 117
f 117 134 116
f 134 135 116
f 116 135 115
f 135 136 115
f 115 136 114
f 136 125 114
f 114 125 113
f 125 85 113
f 113 85 110
f 137 82 81
f 81 125 137
f 125 136 137
f 137 136 138
f 136 135 138
f 138 135 139
f 135 134 139
f 139 134 140
f 134 133 140
f 140 133 141
f 133 132 141
f 141 132 142
f 132 131 142
f 142 131 143
f 131 130 143
f 143 130 144
f 130 129 144
f 144 129 145
f 129 128 145
f 145 128 146
f 128 127 146
f 146 127 147
f 127 126 147
f 147 126 148
f 73 78 149
f 78 77 149
f 83 80 126
f 80 79 126
f 126 79 148
f 79 76 148
f 148 76 75
f 75 150 148
f 150 151 148
f 148 151 147
f 151 152 147
f 147 152 146
f 152 153 146
f 146 153 145
f 153 154 145
f 145 154 144
f 154 155 144
f 144 155 143
f 155 156 143
f 143 156 142
f 156 157 142
f 142 157 141
f 157 158 141
f 141 158 140
f 158 159 140
f 140 159 139
f 159 160 139
f 139 160 138
f 160 149 138
f 138 149 137
f 149 77 137
f 137 77 82
f 69 74 161
f 74 73 161
f 73 149 161
f 149 160 161
f 161 160 162
f 160 159 162
f 162 159 163
f 159 158 163
f 163 158 164
f 158 157 164
f 164 157 165
f 157 156 165
f 165 156 166
f 156 155 166
f 166 155 167
f 155 154 167
f 167 154 168
f 154 153 168
f 168 153 169
f 153 152 169
f 169 152 170
f 152 151 170
f 170 151 171
f 151 150 171
f 171 150 172
f 58 70 173
f 70 69 173
f 75 72 150
f 72 71 150
f 150 71 172
f 71 68 172
f 172 68 67
f 69 161 173
f 161 162 173
f 173 162 174
f 162 163 174
f 174 163 175
f 163 164 175
f 175 164 176
f 164 165 176
f 176 165 177
f 165 166 177
f 177 166 178
f 166 167 178
f 178 167 179
f 167 168 179
f 179 168 180
f 168 169 180
f 180 169 181
f 169 170 181
f 181 170 182
f 170 171 182
f 182 171 183
f 171 172 183
f 183 172 184
f 172 67 184
f 184 67 66
f 58 173 51
f 173 174 51
f 51 174 52
f 174 175 52
f 52 175 59
f 175 176 59
f 59 176 53
f 176 177 53
f 53 177 54
f 177 178 54
f 54 178 55
f 178 179 55
f 55 179 56
f 179 180 56
f 56 180 57
f 180 181 57
f 57 181 60
f 181 182 60
f 60 182 65
f 182 183 65
f 65 183 61
f 183 184 61
f 61 184 62
f 184 66 62
f 62 66 63
f 276 274 275
f 274 277 275
f 275 277 270
f 277 278 270
f 279 268 278
f 268 271 278
f 278 271 270
f 280 266 279
f 266 269 279
f 279 269 268
f 281 264 280
f 264 267 280
f 280 267 266
f 282 262 281
f 262 265 281
f 281 265 264
f 260 261 282
f 261 263 282
f 282 263 262
f 274 273 277
f 273 283 277
f 277 283 278
f 283 284 278
f 278 284 279
f 284 285 279
f 279 285 280
f 285 286 280
f 280 286 281
f 286 287 281
f 281 287 282
f 287 288 282
f 282 288 260
f 288 259 260
f 273 272 283
f 272 289 283
f 283 289 284
f 289 290 284
f 284 290 285
f 290 291 285
f 285 291 286
f 291 292 286
f 286 292 287
f 292 293 287
f 287 293 288
f 293 294 288
f 288 294 259
f 294 258 259
f 272 198 289
f 198 197 289
f 289 197 290
f 197 202 290
f 290 202 291
f 202 203 291
f 291 203 292
f 203 204 292
f 292 204 293
f 204 205 293
f 293 205 294
f 205 206 294
f 294 206 258
f 206 207 258
f 64 63 196
f 63 66 196
f 196 66 195
f 66 67 195
f 195 67 194
f 67 68 194
f 194 68 193
f 68 71 193
f 193 71 192
f 71 72 192
f 192 72 191
f 72 75 191
f 191 75 189
f 75 76 189
f 189 76 190
f 76 79 190
f 190 79 187
f 79 80 187
f 187 80 188
f 80 83 188
f 188 83 185
f 83 84 185
f 185 84 186
f 84 87 186
f 186 210 185
f 210 211 185
f 185 211 188
f 211 212 188
f 213 190 212
f 190 187 212
f 212 187 188
f 214 191 213
f 191 189 213
f 213 189 190
f 215 193 214
f 193 192 214
f 214 192 191
f 216 195 215
f 195 194 215
f 215 194 193
f 201 64 216
f 64 196 216
f 216 196 195
f 210 209 211
f 209 217 211
f 211 217 212
f 217 218 212
f 212 218 213
f 218 219 213
f 213 219 214
f 219 220 214
f 214 220 215
f 220 221 215
f 215 221 216
f 221 222 216
f 216 222 201
f 222 200 201
f 209 208 217
f 208 223 217
f 217 223 218
f 223 224 218
f 218 224 219
f 224 225 219
f 219 225 220
f 225 226 220
f 220 226 221
f 226 227 221
f 221 227 222
f 227 228 222
f 222 228 200
f 228 199 200
f 208 207 223
f 207 206 223
f 223 206 224
f 206 205 224
f 224 205 225
f 205 204 225
f 225 204 226
f 204 203 226
f 226 203 227
f 203 202 227
f 227 202 228
f 202 197 228
f 228 197 199
f 197 198 199
f 1276 1291 1279
f 1291 1303 1279
f 1279 1303 1280
f 1303 1302 1280
f 1280 1302 1283
f 1302 1301 1283
f 1283 1301 1288
f 1301 1300 1288
f 1288 1300 1286
f 1300 1298 1286
f 1286 1298 1287
f 1298 1299 1287
f 1282 1297 1289
f 1297 1296 1289
f 1289 1296 1285
f 1296 1295 1285
f 1285 1295 1284
f 1295 1294 1284
f 1284 1294 1281
f 1294 1293 1281
f 1281 1293 1278
f 1293 1292 1278
f 1278 1292 1277
f 1292 1290 1277
f 1304 1305 1339
f 1305 1328 1339
f 1306 1307 1309
f 1307 1308 1309
f 487 488 490
f 488 489 490
f 792 791 745
f 791 750 745
f 955 956 954
f 955 954 953
f 954 952 953
f 953 952 951
f 952 950 951
f 951 950 949
f 950 923 949
f 949 923 910
f 276 326 325
f 276 325 274
f 325 324 274
f 274 324 273
f 324 323 273
f 273 323 272
f 323 257 272
f 272 257 198
f 986 1054 987
f 1054 1053 987
f 987 1053 988
f 1053 1052 988
f 988 1052 989
f 1052 1051 989
f 989 1051 955
f 1051 956 955
f 198 257 199
f 257 256 199
f 199 256 200
f 256 255 200
f 200 255 201
f 255 254 201
f 201 254 64
f 254 50 64
f 1325 1324 1326
f 1324 1335 1326
f 1326 1335 1327
f 1335 1337 1327
f 1327 1337 1331
f 1337 1336 1331
f 1331 1336 1330
f 1336 1334 1330
f 1330 1334 1332
f 1334 1333 1332
f 1332 1333 1329
f 1333 1338 1329
f 1311 1310 1323
f 1310 1321 1323
f 1323 1321 1322
f 1321 1319 1322
f 1322 1319 1320
f 1319 1317 1320
f 1320 1317 1318
f 1317 1315 1318
f 1318 1315 1316
f 1315 1312 1316
f 1316 1312 1314
f 1312 1313 1314
f 620 618 638
f 606 605 640
f 605 603 640
f 640 603 593
f 603 602 593
f 593 602 604
f 604 601 593
f 601 600 593
f 593 600 597
f 606 640 607
f 640 639 607
f 607 639 608
f 617 614 629
f 617 629 616
f 638 618 629
f 618 619 629
f 629 619 616
f 613 630 612
f 630 615 612
f 613 610 630
f 610 611 630
f 630 611 639
f 611 609 639
f 639 609 608
f 596 595 627
f 623 637 626
f 637 596 626
f 626 596 625
f 596 627 625
f 623 624 637
f 624 622 637
f 637 622 638
f 622 621 638
f 638 621 620
f 641 635 636
f 635 633 636
f 636 633 634
f 633 631 634
f 634 631 632
f 631 628 632
f 632 628 630
f 628 629 630
f 630 629 615
f 629 614 615
