v -0.0343503 0.0548255 0.00825
v -0.0286582 0.0516971 0.00825
v -0.0280059 0.0576114 0.00825
v -0.028795 0.0581909 0.00825
v -0.0316478 0.0585055 0.00825
v -0.0325441 0.0581119 0.00825
v -0.0333081 0.0574997 0.00825
v -0.0296475 0.0587892 0.008
v -0.0267601 0.0560209 0.008
v -0.0267165 0.0539508 0.008
v -0.0272288 0.0617153 0.0045
v -0.0290563 0.0623458 0.0045
v -0.0230325 0.0555939 0.0045
v -0.0243326 0.0592017 0.0045
v -0.0256196 0.0606442 0.0045
v -0.0260538 0.048815 0.0045
v -0.0246646 0.0501593 0.0045
v -0.0277373 0.0478648 0.0045
v -0.0236594 0.0518106 0.0045
v -0.029606 0.0473699 0.0045
v -0.0573988 0.0642455 0.0045
v -0.0568607 0.0645078 0.0045
v -0.0571464 0.0644107 0.0045
v -0.0565598 0.0645305 0.0045
v -0.0621568 0.0443737 0.0045
v -0.0674663 0.0529028 0.0045
v -0.067921 0.0514897 0.0045
v -0.0680149 0.0500082 0.0045
v -0.0677423 0.048549 0.0045
v -0.0666785 0.054161 0.0045
v -0.0671197 0.0472014 0.0045
v -0.0661853 0.0460479 0.0045
v -0.029606 0.0473699 -0.0045
v -0.0277373 0.0478648 -0.0045
v -0.0246646 0.0501593 -0.0045
v -0.0236594 0.0518106 -0.0045
v -0.0231034 0.053662 -0.0045
v -0.0230325 0.0555939 -0.0045
v -0.0234513 0.0574811 -0.0045
v -0.0243326 0.0592017 -0.0045
v -0.0256196 0.0606442 -0.0045
v -0.0272288 0.0617153 -0.0045
v -0.0290563 0.0623458 -0.0045
v -0.0666785 0.054161 -0.0045
v -0.0674663 0.0529028 -0.0045
v -0.067921 0.0514897 -0.0045
v -0.0680149 0.0500082 -0.0045
v -0.0661853 0.0460479 -0.0045
v -0.0636255 0.0445894 -0.0045
v -0.0621568 0.0443737 -0.0045
v -0.0565598 0.0645305 -0.0045
v -0.0568607 0.0645078 -0.0045
v -0.0571464 0.0644107 -0.0045
v -0.0573988 0.0642455 -0.0045
v -0.0267601 0.0560209 -0.008
v -0.0286745 0.05841 -0.008
v -0.026852 0.0549835 -0.00825
v -0.0297071 0.0585464 -0.00825
v -0.0306801 0.0586537 -0.00825
v -0.0325441 0.0581119 -0.00825
v -0.034243 0.0557986 -0.00825
v -0.0305222 0.0511553 -0.00825
v -0.0278942 0.0523093 -0.00825
v -0.0269593 0.0540105 -0.00825
f 27 28 1
f 12 24 8
f 26 27 1
f 11 12 8
f 38 37 57
f 38 57 55
f 38 55 39
f 38 39 13
f 38 13 37
f 51 43 59
f 56 55 57
f 4 11 8
f 6 23 21
f 14 13 39
f 16 35 17
f 63 36 35
f 33 50 62
f 29 1 28
f 29 28 47
f 29 47 48
f 40 39 55
f 40 14 39
f 40 56 41
f 40 55 56
f 61 45 44
f 61 46 45
f 61 47 46
f 61 48 47
f 61 62 48
f 60 54 53
f 60 44 54
f 60 61 44
f 52 51 59
f 52 59 60
f 52 60 53
f 42 41 56
f 58 59 43
f 58 43 42
f 58 42 56
f 58 56 57
f 15 4 3
f 15 11 4
f 15 3 14
f 7 21 30
f 7 6 21
f 7 30 26
f 7 26 1
f 5 22 23
f 5 23 6
f 5 24 22
f 5 8 24
f 5 4 8
f 19 13 10
f 19 10 17
f 19 37 13
f 19 36 37
f 9 10 13
f 9 3 10
f 9 13 14
f 9 14 3
f 2 10 3
f 2 32 25
f 2 1 32
f 2 25 20
f 2 20 18
f 2 18 16
f 2 17 10
f 2 16 17
f 64 36 63
f 64 57 37
f 64 37 36
f 34 62 63
f 34 33 62
f 34 63 35
f 34 35 16
f 34 16 18
f 49 62 50
f 49 48 62
f 49 50 25
f 49 32 48
f 49 25 32
f 31 32 1
f 31 1 29
f 31 48 32
f 31 29 48
f 46 47 28
f 46 28 27
f 54 30 21
f 54 44 30
f 54 21 23
f 54 23 53
f 51 12 43
f 51 24 12
f 45 30 44
f 45 26 30
f 45 46 27
f 45 27 26
f 33 25 50
f 33 20 25
f 52 53 23
f 52 23 22
f 52 24 51
f 52 22 24
f 42 43 12
f 42 12 11
f 15 42 11
f 15 41 42
f 15 40 41
f 15 14 40
f 19 35 36
f 19 17 35
f 2 3 4
f 2 4 5
f 2 7 1
f 2 6 7
f 2 5 6
f 64 58 57
f 64 60 59
f 64 63 62
f 64 62 61
f 64 61 60
f 64 59 58
f 34 20 33
f 34 18 20
